G04 #@! TF.GenerationSoftware,KiCad,Pcbnew,5.1.5+dfsg1-2build2*
G04 #@! TF.CreationDate,2021-11-13T16:54:46+00:00*
G04 #@! TF.ProjectId,board,626f6172-642e-46b6-9963-61645f706362,VERSION_HERE*
G04 #@! TF.SameCoordinates,Original*
G04 #@! TF.FileFunction,Copper,L2,Bot*
G04 #@! TF.FilePolarity,Positive*
%FSLAX46Y46*%
G04 Gerber Fmt 4.6, Leading zero omitted, Abs format (unit mm)*
G04 Created by KiCad (PCBNEW 5.1.5+dfsg1-2build2) date 2021-11-13 16:54:46*
%MOMM*%
%LPD*%
G04 APERTURE LIST*
G04 #@! TA.AperFunction,Profile*
%ADD10C,0.150000*%
G04 #@! TD*
G04 #@! TA.AperFunction,SMDPad,CuDef*
%ADD11R,2.600000X2.600000*%
G04 #@! TD*
G04 #@! TA.AperFunction,SMDPad,CuDef*
%ADD12R,0.900000X1.200000*%
G04 #@! TD*
G04 #@! TA.AperFunction,ComponentPad*
%ADD13C,1.905000*%
G04 #@! TD*
G04 #@! TA.AperFunction,ComponentPad*
%ADD14R,1.778000X1.778000*%
G04 #@! TD*
G04 #@! TA.AperFunction,SMDPad,CuDef*
%ADD15C,0.350000*%
G04 #@! TD*
G04 #@! TA.AperFunction,ComponentPad*
%ADD16C,0.350000*%
G04 #@! TD*
G04 #@! TA.AperFunction,ComponentPad*
%ADD17R,1.752600X1.752600*%
G04 #@! TD*
G04 #@! TA.AperFunction,ComponentPad*
%ADD18C,1.752600*%
G04 #@! TD*
G04 #@! TA.AperFunction,SMDPad,CuDef*
%ADD19R,1.500000X1.500000*%
G04 #@! TD*
G04 #@! TA.AperFunction,ComponentPad*
%ADD20O,2.200000X1.600000*%
G04 #@! TD*
G04 #@! TA.AperFunction,SMDPad,CuDef*
%ADD21R,1.143000X0.635000*%
G04 #@! TD*
G04 #@! TA.AperFunction,WasherPad*
%ADD22C,1.000000*%
G04 #@! TD*
G04 #@! TA.AperFunction,SMDPad,CuDef*
%ADD23R,1.250000X0.900000*%
G04 #@! TD*
G04 #@! TA.AperFunction,SMDPad,CuDef*
%ADD24R,0.900000X0.900000*%
G04 #@! TD*
G04 #@! TA.AperFunction,ComponentPad*
%ADD25C,2.000000*%
G04 #@! TD*
G04 #@! TA.AperFunction,ViaPad*
%ADD26C,0.800000*%
G04 #@! TD*
G04 #@! TA.AperFunction,Conductor*
%ADD27C,0.250000*%
G04 #@! TD*
G04 #@! TA.AperFunction,Conductor*
%ADD28C,0.500000*%
G04 #@! TD*
G04 APERTURE END LIST*
D10*
X10000000Y-9500000D02*
X26000000Y-9500000D01*
X8000000Y-7500000D02*
X8000000Y41500000D01*
X10000000Y-9500000D02*
G75*
G02X8000000Y-7500000I0J2000000D01*
G01*
X26000000Y43500000D02*
X10000000Y43500000D01*
X8000000Y41500000D02*
G75*
G02X10000000Y43500000I2000000J0D01*
G01*
X44000000Y55400000D02*
X28000000Y55400000D01*
X26000000Y53400000D02*
G75*
G02X28000000Y55400000I2000000J0D01*
G01*
X26000000Y53400000D02*
X26000000Y43500000D01*
X64000000Y55400000D02*
X64000000Y56800000D01*
X62000000Y58800000D02*
G75*
G02X64000000Y56800000I0J-2000000D01*
G01*
X62000000Y58800000D02*
X46000000Y58800000D01*
X44000000Y56800000D02*
G75*
G02X46000000Y58800000I2000000J0D01*
G01*
X44000000Y56800000D02*
X44000000Y55400000D01*
X80000000Y55400000D02*
G75*
G02X81977391Y53699872I0J-2000000D01*
G01*
X80000000Y55400000D02*
X64000000Y55400000D01*
X98000000Y53700000D02*
G75*
G02X99994367Y51850000I0J-2000000D01*
G01*
X98000000Y53700000D02*
X82000000Y53700000D01*
X81977391Y53699872D02*
G75*
G02X82000000Y53700000I22609J-1999872D01*
G01*
X119117258Y-41686664D02*
G75*
G02X116288831Y-41686665I-1414214J1414213D01*
G01*
X119117258Y-41686665D02*
X129723860Y-31080063D01*
X129723859Y-28251636D02*
G75*
G02X129723860Y-31080063I-1414213J-1414214D01*
G01*
X122000000Y-20208734D02*
X129723860Y-28251636D01*
X116288831Y-41686665D02*
X72707107Y-16524745D01*
X72707107Y-16524745D02*
X26000000Y-9500000D01*
X122000000Y-20208734D02*
X122000000Y49850000D01*
X120000000Y51850000D02*
G75*
G02X122000000Y49850000I0J-2000000D01*
G01*
X120000000Y51850000D02*
X99994367Y51850000D01*
X29050000Y28900000D02*
G75*
G03X29050000Y28900000I-2050000J0D01*
G01*
X29050000Y0D02*
G75*
G03X29050000Y0I-2050000J0D01*
G01*
X83050000Y44200000D02*
G75*
G03X83050000Y44200000I-2050000J0D01*
G01*
X74050000Y-6120000D02*
G75*
G03X74050000Y-6120000I-2050000J0D01*
G01*
X112399134Y-22311939D02*
G75*
G03X112399134Y-22311939I-2050000J0D01*
G01*
D11*
G04 #@! TO.P,S1,1*
G04 #@! TO.N,pinky_bottom*
X14725000Y5950000D03*
G04 #@! TO.P,S1,2*
G04 #@! TO.N,P20*
X26275000Y3750000D03*
G04 #@! TD*
D12*
G04 #@! TO.P,D1,2*
G04 #@! TO.N,pinky_bottom*
X19650000Y-5000000D03*
G04 #@! TO.P,D1,1*
G04 #@! TO.N,P6*
X16350000Y-5000000D03*
D13*
G04 #@! TO.N,pinky_bottom*
X21810000Y-5000000D03*
D14*
G04 #@! TO.P,D1,2*
G04 #@! TO.N,P6*
X14190000Y-5000000D03*
G04 #@! TD*
D11*
G04 #@! TO.P,S2,1*
G04 #@! TO.N,pinky_home*
X14725000Y22950000D03*
G04 #@! TO.P,S2,2*
G04 #@! TO.N,P20*
X26275000Y20750000D03*
G04 #@! TD*
D12*
G04 #@! TO.P,D2,2*
G04 #@! TO.N,pinky_home*
X19650000Y12000000D03*
G04 #@! TO.P,D2,1*
G04 #@! TO.N,P5*
X16350000Y12000000D03*
D13*
G04 #@! TO.N,pinky_home*
X21810000Y12000000D03*
D14*
G04 #@! TO.P,D2,2*
G04 #@! TO.N,P5*
X14190000Y12000000D03*
G04 #@! TD*
D11*
G04 #@! TO.P,S3,1*
G04 #@! TO.N,pinky_top*
X14725000Y39950000D03*
G04 #@! TO.P,S3,2*
G04 #@! TO.N,P20*
X26275000Y37750000D03*
G04 #@! TD*
D12*
G04 #@! TO.P,D3,2*
G04 #@! TO.N,pinky_top*
X19650000Y29000000D03*
G04 #@! TO.P,D3,1*
G04 #@! TO.N,P4*
X16350000Y29000000D03*
D13*
G04 #@! TO.N,pinky_top*
X21810000Y29000000D03*
D14*
G04 #@! TO.P,D3,2*
G04 #@! TO.N,P4*
X14190000Y29000000D03*
G04 #@! TD*
D11*
G04 #@! TO.P,S4,1*
G04 #@! TO.N,ring_bottom*
X32725000Y17850000D03*
G04 #@! TO.P,S4,2*
G04 #@! TO.N,P19*
X44275000Y15650000D03*
G04 #@! TD*
D12*
G04 #@! TO.P,D4,2*
G04 #@! TO.N,ring_bottom*
X37650000Y6900000D03*
G04 #@! TO.P,D4,1*
G04 #@! TO.N,P6*
X34350000Y6900000D03*
D13*
G04 #@! TO.N,ring_bottom*
X39810000Y6900000D03*
D14*
G04 #@! TO.P,D4,2*
G04 #@! TO.N,P6*
X32190000Y6900000D03*
G04 #@! TD*
D11*
G04 #@! TO.P,S5,1*
G04 #@! TO.N,ring_home*
X32725000Y34850000D03*
G04 #@! TO.P,S5,2*
G04 #@! TO.N,P19*
X44275000Y32650000D03*
G04 #@! TD*
D12*
G04 #@! TO.P,D5,2*
G04 #@! TO.N,ring_home*
X37650000Y23900000D03*
G04 #@! TO.P,D5,1*
G04 #@! TO.N,P5*
X34350000Y23900000D03*
D13*
G04 #@! TO.N,ring_home*
X39810000Y23900000D03*
D14*
G04 #@! TO.P,D5,2*
G04 #@! TO.N,P5*
X32190000Y23900000D03*
G04 #@! TD*
D11*
G04 #@! TO.P,S6,1*
G04 #@! TO.N,ring_top*
X32725000Y51850000D03*
G04 #@! TO.P,S6,2*
G04 #@! TO.N,P19*
X44275000Y49650000D03*
G04 #@! TD*
D12*
G04 #@! TO.P,D6,2*
G04 #@! TO.N,ring_top*
X37650000Y40900000D03*
G04 #@! TO.P,D6,1*
G04 #@! TO.N,P4*
X34350000Y40900000D03*
D13*
G04 #@! TO.N,ring_top*
X39810000Y40900000D03*
D14*
G04 #@! TO.P,D6,2*
G04 #@! TO.N,P4*
X32190000Y40900000D03*
G04 #@! TD*
D11*
G04 #@! TO.P,S7,1*
G04 #@! TO.N,middle_bottom*
X50725000Y21250000D03*
G04 #@! TO.P,S7,2*
G04 #@! TO.N,P18*
X62275000Y19050000D03*
G04 #@! TD*
D12*
G04 #@! TO.P,D7,2*
G04 #@! TO.N,middle_bottom*
X55650000Y10300000D03*
G04 #@! TO.P,D7,1*
G04 #@! TO.N,P6*
X52350000Y10300000D03*
D13*
G04 #@! TO.N,middle_bottom*
X57810000Y10300000D03*
D14*
G04 #@! TO.P,D7,2*
G04 #@! TO.N,P6*
X50190000Y10300000D03*
G04 #@! TD*
D11*
G04 #@! TO.P,S8,1*
G04 #@! TO.N,middle_home*
X50725000Y38250000D03*
G04 #@! TO.P,S8,2*
G04 #@! TO.N,P18*
X62275000Y36050000D03*
G04 #@! TD*
D12*
G04 #@! TO.P,D8,2*
G04 #@! TO.N,middle_home*
X55650000Y27300000D03*
G04 #@! TO.P,D8,1*
G04 #@! TO.N,P5*
X52350000Y27300000D03*
D13*
G04 #@! TO.N,middle_home*
X57810000Y27300000D03*
D14*
G04 #@! TO.P,D8,2*
G04 #@! TO.N,P5*
X50190000Y27300000D03*
G04 #@! TD*
D11*
G04 #@! TO.P,S9,1*
G04 #@! TO.N,middle_top*
X50725000Y55250000D03*
G04 #@! TO.P,S9,2*
G04 #@! TO.N,P18*
X62275000Y53050000D03*
G04 #@! TD*
D12*
G04 #@! TO.P,D9,2*
G04 #@! TO.N,middle_top*
X55650000Y44300000D03*
G04 #@! TO.P,D9,1*
G04 #@! TO.N,P4*
X52350000Y44300000D03*
D13*
G04 #@! TO.N,middle_top*
X57810000Y44300000D03*
D14*
G04 #@! TO.P,D9,2*
G04 #@! TO.N,P4*
X50190000Y44300000D03*
G04 #@! TD*
D11*
G04 #@! TO.P,S10,1*
G04 #@! TO.N,index_bottom*
X68725000Y17850000D03*
G04 #@! TO.P,S10,2*
G04 #@! TO.N,P15*
X80275000Y15650000D03*
G04 #@! TD*
D12*
G04 #@! TO.P,D10,2*
G04 #@! TO.N,index_bottom*
X73650000Y6900000D03*
G04 #@! TO.P,D10,1*
G04 #@! TO.N,P6*
X70350000Y6900000D03*
D13*
G04 #@! TO.N,index_bottom*
X75810000Y6900000D03*
D14*
G04 #@! TO.P,D10,2*
G04 #@! TO.N,P6*
X68190000Y6900000D03*
G04 #@! TD*
D11*
G04 #@! TO.P,S11,1*
G04 #@! TO.N,index_home*
X68725000Y34850000D03*
G04 #@! TO.P,S11,2*
G04 #@! TO.N,P15*
X80275000Y32650000D03*
G04 #@! TD*
D12*
G04 #@! TO.P,D11,2*
G04 #@! TO.N,index_home*
X73650000Y23900000D03*
G04 #@! TO.P,D11,1*
G04 #@! TO.N,P5*
X70350000Y23900000D03*
D13*
G04 #@! TO.N,index_home*
X75810000Y23900000D03*
D14*
G04 #@! TO.P,D11,2*
G04 #@! TO.N,P5*
X68190000Y23900000D03*
G04 #@! TD*
D11*
G04 #@! TO.P,S12,1*
G04 #@! TO.N,index_top*
X68725000Y51850000D03*
G04 #@! TO.P,S12,2*
G04 #@! TO.N,P15*
X80275000Y49650000D03*
G04 #@! TD*
D12*
G04 #@! TO.P,D12,2*
G04 #@! TO.N,index_top*
X73650000Y40900000D03*
G04 #@! TO.P,D12,1*
G04 #@! TO.N,P4*
X70350000Y40900000D03*
D13*
G04 #@! TO.N,index_top*
X75810000Y40900000D03*
D14*
G04 #@! TO.P,D12,2*
G04 #@! TO.N,P4*
X68190000Y40900000D03*
G04 #@! TD*
D11*
G04 #@! TO.P,S13,1*
G04 #@! TO.N,inner_bottom*
X86725000Y16150000D03*
G04 #@! TO.P,S13,2*
G04 #@! TO.N,P14*
X98275000Y13950000D03*
G04 #@! TD*
D12*
G04 #@! TO.P,D13,2*
G04 #@! TO.N,inner_bottom*
X91650000Y5200000D03*
G04 #@! TO.P,D13,1*
G04 #@! TO.N,P6*
X88350000Y5200000D03*
D13*
G04 #@! TO.N,inner_bottom*
X93810000Y5200000D03*
D14*
G04 #@! TO.P,D13,2*
G04 #@! TO.N,P6*
X86190000Y5200000D03*
G04 #@! TD*
D11*
G04 #@! TO.P,S14,1*
G04 #@! TO.N,inner_home*
X86725000Y33150000D03*
G04 #@! TO.P,S14,2*
G04 #@! TO.N,P14*
X98275000Y30950000D03*
G04 #@! TD*
D12*
G04 #@! TO.P,D14,2*
G04 #@! TO.N,inner_home*
X91650000Y22200000D03*
G04 #@! TO.P,D14,1*
G04 #@! TO.N,P5*
X88350000Y22200000D03*
D13*
G04 #@! TO.N,inner_home*
X93810000Y22200000D03*
D14*
G04 #@! TO.P,D14,2*
G04 #@! TO.N,P5*
X86190000Y22200000D03*
G04 #@! TD*
D11*
G04 #@! TO.P,S15,1*
G04 #@! TO.N,inner_top*
X86725000Y50150000D03*
G04 #@! TO.P,S15,2*
G04 #@! TO.N,P14*
X98275000Y47950000D03*
G04 #@! TD*
D12*
G04 #@! TO.P,D15,2*
G04 #@! TO.N,inner_top*
X91650000Y39200000D03*
G04 #@! TO.P,D15,1*
G04 #@! TO.N,P4*
X88350000Y39200000D03*
D13*
G04 #@! TO.N,inner_top*
X93810000Y39200000D03*
D14*
G04 #@! TO.P,D15,2*
G04 #@! TO.N,P4*
X86190000Y39200000D03*
G04 #@! TD*
G04 #@! TA.AperFunction,SMDPad,CuDef*
D15*
G04 #@! TO.P,S16,1*
G04 #@! TO.N,near_thumb*
G36*
X79677698Y-3743348D02*
G01*
X80350627Y-1231941D01*
X82862034Y-1904870D01*
X82189105Y-4416277D01*
X79677698Y-3743348D01*
G37*
G04 #@! TD.AperFunction*
G04 #@! TA.AperFunction,SMDPad,CuDef*
G04 #@! TO.P,S16,2*
G04 #@! TO.N,P18*
G36*
X90264740Y-8857745D02*
G01*
X90937669Y-6346338D01*
X93449076Y-7019267D01*
X92776147Y-9530674D01*
X90264740Y-8857745D01*
G37*
G04 #@! TD.AperFunction*
G04 #@! TD*
G04 #@! TA.AperFunction,SMDPad,CuDef*
G04 #@! TO.P,D16,2*
G04 #@! TO.N,near_thumb*
G36*
X82603020Y-15138737D02*
G01*
X82913603Y-13979626D01*
X83782936Y-14212563D01*
X83472353Y-15371674D01*
X82603020Y-15138737D01*
G37*
G04 #@! TD.AperFunction*
G04 #@! TA.AperFunction,SMDPad,CuDef*
G04 #@! TO.P,D16,1*
G04 #@! TO.N,P7*
G36*
X79415464Y-14284637D02*
G01*
X79726047Y-13125526D01*
X80595380Y-13358463D01*
X80284797Y-14517574D01*
X79415464Y-14284637D01*
G37*
G04 #@! TD.AperFunction*
D13*
G04 #@! TO.N,near_thumb*
X85279377Y-15234702D03*
G04 #@! TA.AperFunction,ComponentPad*
D16*
G04 #@! TO.P,D16,2*
G04 #@! TO.N,P7*
G36*
X76830225Y-13891116D02*
G01*
X77290405Y-12173700D01*
X79007821Y-12633880D01*
X78547641Y-14351296D01*
X76830225Y-13891116D01*
G37*
G04 #@! TD.AperFunction*
G04 #@! TD*
G04 #@! TA.AperFunction,SMDPad,CuDef*
D15*
G04 #@! TO.P,S17,1*
G04 #@! TO.N,home_thumb*
G36*
X99793934Y-10782982D02*
G01*
X101093934Y-8531316D01*
X103345600Y-9831316D01*
X102045600Y-12082982D01*
X99793934Y-10782982D01*
G37*
G04 #@! TD.AperFunction*
G04 #@! TA.AperFunction,SMDPad,CuDef*
G04 #@! TO.P,S17,2*
G04 #@! TO.N,P15*
G36*
X108696527Y-18463238D02*
G01*
X109996527Y-16211572D01*
X112248193Y-17511572D01*
X110948193Y-19763238D01*
X108696527Y-18463238D01*
G37*
G04 #@! TD.AperFunction*
G04 #@! TD*
G04 #@! TA.AperFunction,SMDPad,CuDef*
G04 #@! TO.P,D17,2*
G04 #@! TO.N,home_thumb*
G36*
X99670131Y-22547315D02*
G01*
X100270131Y-21508085D01*
X101049553Y-21958085D01*
X100449553Y-22997315D01*
X99670131Y-22547315D01*
G37*
G04 #@! TD.AperFunction*
G04 #@! TA.AperFunction,SMDPad,CuDef*
G04 #@! TO.P,D17,1*
G04 #@! TO.N,P7*
G36*
X96812247Y-20897315D02*
G01*
X97412247Y-19858085D01*
X98191669Y-20308085D01*
X97591669Y-21347315D01*
X96812247Y-20897315D01*
G37*
G04 #@! TD.AperFunction*
D13*
G04 #@! TO.N,home_thumb*
X102230457Y-23332700D03*
G04 #@! TA.AperFunction,ComponentPad*
D16*
G04 #@! TO.P,D17,2*
G04 #@! TO.N,P7*
G36*
X94416946Y-19848097D02*
G01*
X95305946Y-18308303D01*
X96845740Y-19197303D01*
X95956740Y-20737097D01*
X94416946Y-19848097D01*
G37*
G04 #@! TD.AperFunction*
G04 #@! TD*
G04 #@! TA.AperFunction,SMDPad,CuDef*
D15*
G04 #@! TO.P,S18,1*
G04 #@! TO.N,far_thumb*
G36*
X117402033Y-22789240D02*
G01*
X119240511Y-20950762D01*
X121078989Y-22789240D01*
X119240511Y-24627718D01*
X117402033Y-22789240D01*
G37*
G04 #@! TD.AperFunction*
G04 #@! TA.AperFunction,SMDPad,CuDef*
G04 #@! TO.P,S18,2*
G04 #@! TO.N,P14*
G36*
X124013481Y-32511958D02*
G01*
X125851959Y-30673480D01*
X127690437Y-32511958D01*
X125851959Y-34350436D01*
X124013481Y-32511958D01*
G37*
G04 #@! TD.AperFunction*
G04 #@! TD*
G04 #@! TA.AperFunction,SMDPad,CuDef*
G04 #@! TO.P,D18,2*
G04 #@! TO.N,far_thumb*
G36*
X114238264Y-34120592D02*
G01*
X115086792Y-33272064D01*
X115723188Y-33908460D01*
X114874660Y-34756988D01*
X114238264Y-34120592D01*
G37*
G04 #@! TD.AperFunction*
G04 #@! TA.AperFunction,SMDPad,CuDef*
G04 #@! TO.P,D18,1*
G04 #@! TO.N,P7*
G36*
X111904812Y-31787140D02*
G01*
X112753340Y-30938612D01*
X113389736Y-31575008D01*
X112541208Y-32423536D01*
X111904812Y-31787140D01*
G37*
G04 #@! TD.AperFunction*
D13*
G04 #@! TO.N,far_thumb*
X116508077Y-35541877D03*
G04 #@! TA.AperFunction,ComponentPad*
D16*
G04 #@! TO.P,D18,2*
G04 #@! TO.N,P7*
G36*
X109862687Y-30153723D02*
G01*
X111119923Y-28896487D01*
X112377159Y-30153723D01*
X111119923Y-31410959D01*
X109862687Y-30153723D01*
G37*
G04 #@! TD.AperFunction*
G04 #@! TD*
D17*
G04 #@! TO.P,MCU1,1*
G04 #@! TO.N,RAW*
X117620000Y47170000D03*
D18*
G04 #@! TO.P,MCU1,2*
G04 #@! TO.N,GND*
X117620000Y44630000D03*
G04 #@! TO.P,MCU1,3*
G04 #@! TO.N,RST*
X117620000Y42090000D03*
G04 #@! TO.P,MCU1,4*
G04 #@! TO.N,VCC*
X117620000Y39550000D03*
G04 #@! TO.P,MCU1,5*
G04 #@! TO.N,P21*
X117620000Y37010000D03*
G04 #@! TO.P,MCU1,6*
G04 #@! TO.N,P20*
X117620000Y34470000D03*
G04 #@! TO.P,MCU1,7*
G04 #@! TO.N,P19*
X117620000Y31930000D03*
G04 #@! TO.P,MCU1,8*
G04 #@! TO.N,P18*
X117620000Y29390000D03*
G04 #@! TO.P,MCU1,9*
G04 #@! TO.N,P15*
X117620000Y26850000D03*
G04 #@! TO.P,MCU1,10*
G04 #@! TO.N,P14*
X117620000Y24310000D03*
G04 #@! TO.P,MCU1,11*
G04 #@! TO.N,P16*
X117620000Y21770000D03*
G04 #@! TO.P,MCU1,12*
G04 #@! TO.N,P10*
X117620000Y19230000D03*
G04 #@! TO.P,MCU1,13*
G04 #@! TO.N,P1*
X102380000Y47170000D03*
G04 #@! TO.P,MCU1,14*
G04 #@! TO.N,P0*
X102380000Y44630000D03*
G04 #@! TO.P,MCU1,15*
G04 #@! TO.N,GND*
X102380000Y42090000D03*
G04 #@! TO.P,MCU1,16*
X102380000Y39550000D03*
G04 #@! TO.P,MCU1,17*
G04 #@! TO.N,P2*
X102380000Y37010000D03*
G04 #@! TO.P,MCU1,18*
G04 #@! TO.N,P3*
X102380000Y34470000D03*
G04 #@! TO.P,MCU1,19*
G04 #@! TO.N,P4*
X102380000Y31930000D03*
G04 #@! TO.P,MCU1,20*
G04 #@! TO.N,P5*
X102380000Y29390000D03*
G04 #@! TO.P,MCU1,21*
G04 #@! TO.N,P6*
X102380000Y26850000D03*
G04 #@! TO.P,MCU1,22*
G04 #@! TO.N,P7*
X102380000Y24310000D03*
G04 #@! TO.P,MCU1,23*
G04 #@! TO.N,P8*
X102380000Y21770000D03*
G04 #@! TO.P,MCU1,24*
G04 #@! TO.N,P9*
X102380000Y19230000D03*
G04 #@! TA.AperFunction,ComponentPad*
D16*
G04 #@! TO.P,MCU1,25*
G04 #@! TO.N,Bplus*
G36*
X118031756Y50458194D02*
G01*
X118068159Y50452794D01*
X118103857Y50443853D01*
X118138506Y50431455D01*
X118171774Y50415720D01*
X118203339Y50396801D01*
X118232897Y50374879D01*
X118260165Y50350165D01*
X118284879Y50322897D01*
X118306801Y50293339D01*
X118325720Y50261774D01*
X118341455Y50228506D01*
X118353853Y50193857D01*
X118362794Y50158159D01*
X118368194Y50121756D01*
X118370000Y50085000D01*
X118370000Y49335000D01*
X118368194Y49298244D01*
X118362794Y49261841D01*
X118353853Y49226143D01*
X118341455Y49191494D01*
X118325720Y49158226D01*
X118306801Y49126661D01*
X118284879Y49097103D01*
X118260165Y49069835D01*
X118232897Y49045121D01*
X118203339Y49023199D01*
X118171774Y49004280D01*
X118138506Y48988545D01*
X118103857Y48976147D01*
X118068159Y48967206D01*
X118031756Y48961806D01*
X117995000Y48960000D01*
X117245000Y48960000D01*
X117208244Y48961806D01*
X117171841Y48967206D01*
X117136143Y48976147D01*
X117101494Y48988545D01*
X117068226Y49004280D01*
X117036661Y49023199D01*
X117007103Y49045121D01*
X116979835Y49069835D01*
X116955121Y49097103D01*
X116933199Y49126661D01*
X116914280Y49158226D01*
X116898545Y49191494D01*
X116886147Y49226143D01*
X116877206Y49261841D01*
X116871806Y49298244D01*
X116870000Y49335000D01*
X116870000Y50085000D01*
X116871806Y50121756D01*
X116877206Y50158159D01*
X116886147Y50193857D01*
X116898545Y50228506D01*
X116914280Y50261774D01*
X116933199Y50293339D01*
X116955121Y50322897D01*
X116979835Y50350165D01*
X117007103Y50374879D01*
X117036661Y50396801D01*
X117068226Y50415720D01*
X117101494Y50431455D01*
X117136143Y50443853D01*
X117171841Y50452794D01*
X117208244Y50458194D01*
X117245000Y50460000D01*
X117995000Y50460000D01*
X118031756Y50458194D01*
G37*
G04 #@! TD.AperFunction*
G04 #@! TA.AperFunction,ComponentPad*
G04 #@! TO.N,Bminus*
G36*
X102791756Y50458194D02*
G01*
X102828159Y50452794D01*
X102863857Y50443853D01*
X102898506Y50431455D01*
X102931774Y50415720D01*
X102963339Y50396801D01*
X102992897Y50374879D01*
X103020165Y50350165D01*
X103044879Y50322897D01*
X103066801Y50293339D01*
X103085720Y50261774D01*
X103101455Y50228506D01*
X103113853Y50193857D01*
X103122794Y50158159D01*
X103128194Y50121756D01*
X103130000Y50085000D01*
X103130000Y49335000D01*
X103128194Y49298244D01*
X103122794Y49261841D01*
X103113853Y49226143D01*
X103101455Y49191494D01*
X103085720Y49158226D01*
X103066801Y49126661D01*
X103044879Y49097103D01*
X103020165Y49069835D01*
X102992897Y49045121D01*
X102963339Y49023199D01*
X102931774Y49004280D01*
X102898506Y48988545D01*
X102863857Y48976147D01*
X102828159Y48967206D01*
X102791756Y48961806D01*
X102755000Y48960000D01*
X102005000Y48960000D01*
X101968244Y48961806D01*
X101931841Y48967206D01*
X101896143Y48976147D01*
X101861494Y48988545D01*
X101828226Y49004280D01*
X101796661Y49023199D01*
X101767103Y49045121D01*
X101739835Y49069835D01*
X101715121Y49097103D01*
X101693199Y49126661D01*
X101674280Y49158226D01*
X101658545Y49191494D01*
X101646147Y49226143D01*
X101637206Y49261841D01*
X101631806Y49298244D01*
X101630000Y49335000D01*
X101630000Y50085000D01*
X101631806Y50121756D01*
X101637206Y50158159D01*
X101646147Y50193857D01*
X101658545Y50228506D01*
X101674280Y50261774D01*
X101693199Y50293339D01*
X101715121Y50322897D01*
X101739835Y50350165D01*
X101767103Y50374879D01*
X101796661Y50396801D01*
X101828226Y50415720D01*
X101861494Y50431455D01*
X101896143Y50443853D01*
X101931841Y50452794D01*
X101968244Y50458194D01*
X102005000Y50460000D01*
X102755000Y50460000D01*
X102791756Y50458194D01*
G37*
G04 #@! TD.AperFunction*
G04 #@! TD*
D17*
G04 #@! TO.P,MCU2,1*
G04 #@! TO.N,RAW*
X104880000Y45920000D03*
D18*
G04 #@! TO.P,MCU2,2*
G04 #@! TO.N,GND*
X104880000Y43380000D03*
G04 #@! TO.P,MCU2,3*
G04 #@! TO.N,RST*
X104880000Y40840000D03*
G04 #@! TO.P,MCU2,4*
G04 #@! TO.N,VCC*
X104880000Y38300000D03*
G04 #@! TO.P,MCU2,5*
G04 #@! TO.N,P21*
X104880000Y35760000D03*
G04 #@! TO.P,MCU2,6*
G04 #@! TO.N,P20*
X104880000Y33220000D03*
G04 #@! TO.P,MCU2,7*
G04 #@! TO.N,P19*
X104880000Y30680000D03*
G04 #@! TO.P,MCU2,8*
G04 #@! TO.N,P18*
X104880000Y28140000D03*
G04 #@! TO.P,MCU2,9*
G04 #@! TO.N,P15*
X104880000Y25600000D03*
G04 #@! TO.P,MCU2,10*
G04 #@! TO.N,P14*
X104880000Y23060000D03*
G04 #@! TO.P,MCU2,11*
G04 #@! TO.N,P16*
X104880000Y20520000D03*
G04 #@! TO.P,MCU2,12*
G04 #@! TO.N,P10*
X104880000Y17980000D03*
G04 #@! TO.P,MCU2,13*
G04 #@! TO.N,P1*
X120120000Y45920000D03*
G04 #@! TO.P,MCU2,14*
G04 #@! TO.N,P0*
X120120000Y43380000D03*
G04 #@! TO.P,MCU2,15*
G04 #@! TO.N,GND*
X120120000Y40840000D03*
G04 #@! TO.P,MCU2,16*
X120120000Y38300000D03*
G04 #@! TO.P,MCU2,17*
G04 #@! TO.N,P2*
X120120000Y35760000D03*
G04 #@! TO.P,MCU2,18*
G04 #@! TO.N,P3*
X120120000Y33220000D03*
G04 #@! TO.P,MCU2,19*
G04 #@! TO.N,P4*
X120120000Y30680000D03*
G04 #@! TO.P,MCU2,20*
G04 #@! TO.N,P5*
X120120000Y28140000D03*
G04 #@! TO.P,MCU2,21*
G04 #@! TO.N,P6*
X120120000Y25600000D03*
G04 #@! TO.P,MCU2,22*
G04 #@! TO.N,P7*
X120120000Y23060000D03*
G04 #@! TO.P,MCU2,23*
G04 #@! TO.N,P8*
X120120000Y20520000D03*
G04 #@! TO.P,MCU2,24*
G04 #@! TO.N,P9*
X120120000Y17980000D03*
G04 #@! TA.AperFunction,ComponentPad*
D16*
G04 #@! TO.P,MCU2,25*
G04 #@! TO.N,Bplus*
G36*
X105291756Y49208194D02*
G01*
X105328159Y49202794D01*
X105363857Y49193853D01*
X105398506Y49181455D01*
X105431774Y49165720D01*
X105463339Y49146801D01*
X105492897Y49124879D01*
X105520165Y49100165D01*
X105544879Y49072897D01*
X105566801Y49043339D01*
X105585720Y49011774D01*
X105601455Y48978506D01*
X105613853Y48943857D01*
X105622794Y48908159D01*
X105628194Y48871756D01*
X105630000Y48835000D01*
X105630000Y48085000D01*
X105628194Y48048244D01*
X105622794Y48011841D01*
X105613853Y47976143D01*
X105601455Y47941494D01*
X105585720Y47908226D01*
X105566801Y47876661D01*
X105544879Y47847103D01*
X105520165Y47819835D01*
X105492897Y47795121D01*
X105463339Y47773199D01*
X105431774Y47754280D01*
X105398506Y47738545D01*
X105363857Y47726147D01*
X105328159Y47717206D01*
X105291756Y47711806D01*
X105255000Y47710000D01*
X104505000Y47710000D01*
X104468244Y47711806D01*
X104431841Y47717206D01*
X104396143Y47726147D01*
X104361494Y47738545D01*
X104328226Y47754280D01*
X104296661Y47773199D01*
X104267103Y47795121D01*
X104239835Y47819835D01*
X104215121Y47847103D01*
X104193199Y47876661D01*
X104174280Y47908226D01*
X104158545Y47941494D01*
X104146147Y47976143D01*
X104137206Y48011841D01*
X104131806Y48048244D01*
X104130000Y48085000D01*
X104130000Y48835000D01*
X104131806Y48871756D01*
X104137206Y48908159D01*
X104146147Y48943857D01*
X104158545Y48978506D01*
X104174280Y49011774D01*
X104193199Y49043339D01*
X104215121Y49072897D01*
X104239835Y49100165D01*
X104267103Y49124879D01*
X104296661Y49146801D01*
X104328226Y49165720D01*
X104361494Y49181455D01*
X104396143Y49193853D01*
X104431841Y49202794D01*
X104468244Y49208194D01*
X104505000Y49210000D01*
X105255000Y49210000D01*
X105291756Y49208194D01*
G37*
G04 #@! TD.AperFunction*
G04 #@! TA.AperFunction,ComponentPad*
G04 #@! TO.N,Bminus*
G36*
X120531756Y49208194D02*
G01*
X120568159Y49202794D01*
X120603857Y49193853D01*
X120638506Y49181455D01*
X120671774Y49165720D01*
X120703339Y49146801D01*
X120732897Y49124879D01*
X120760165Y49100165D01*
X120784879Y49072897D01*
X120806801Y49043339D01*
X120825720Y49011774D01*
X120841455Y48978506D01*
X120853853Y48943857D01*
X120862794Y48908159D01*
X120868194Y48871756D01*
X120870000Y48835000D01*
X120870000Y48085000D01*
X120868194Y48048244D01*
X120862794Y48011841D01*
X120853853Y47976143D01*
X120841455Y47941494D01*
X120825720Y47908226D01*
X120806801Y47876661D01*
X120784879Y47847103D01*
X120760165Y47819835D01*
X120732897Y47795121D01*
X120703339Y47773199D01*
X120671774Y47754280D01*
X120638506Y47738545D01*
X120603857Y47726147D01*
X120568159Y47717206D01*
X120531756Y47711806D01*
X120495000Y47710000D01*
X119745000Y47710000D01*
X119708244Y47711806D01*
X119671841Y47717206D01*
X119636143Y47726147D01*
X119601494Y47738545D01*
X119568226Y47754280D01*
X119536661Y47773199D01*
X119507103Y47795121D01*
X119479835Y47819835D01*
X119455121Y47847103D01*
X119433199Y47876661D01*
X119414280Y47908226D01*
X119398545Y47941494D01*
X119386147Y47976143D01*
X119377206Y48011841D01*
X119371806Y48048244D01*
X119370000Y48085000D01*
X119370000Y48835000D01*
X119371806Y48871756D01*
X119377206Y48908159D01*
X119386147Y48943857D01*
X119398545Y48978506D01*
X119414280Y49011774D01*
X119433199Y49043339D01*
X119455121Y49072897D01*
X119479835Y49100165D01*
X119507103Y49124879D01*
X119536661Y49146801D01*
X119568226Y49165720D01*
X119601494Y49181455D01*
X119636143Y49193853D01*
X119671841Y49202794D01*
X119708244Y49208194D01*
X119745000Y49210000D01*
X120495000Y49210000D01*
X120531756Y49208194D01*
G37*
G04 #@! TD.AperFunction*
G04 #@! TD*
D19*
G04 #@! TO.P,PAD1,1*
G04 #@! TO.N,Braw*
X113000000Y26200000D03*
G04 #@! TD*
G04 #@! TO.P,PAD2,1*
G04 #@! TO.N,Bminus*
X113000000Y29200000D03*
G04 #@! TD*
D20*
G04 #@! TO.P,TRRS1,1*
G04 #@! TO.N,N/C*
X110700000Y-200000D03*
G04 #@! TO.P,TRRS1,2*
G04 #@! TO.N,VCC*
X111800000Y-4800000D03*
G04 #@! TO.P,TRRS1,3*
G04 #@! TO.N,GND*
X115800000Y-4800000D03*
G04 #@! TO.P,TRRS1,4*
G04 #@! TO.N,P0*
X118800000Y-4800000D03*
G04 #@! TD*
G04 #@! TO.P,TRRS2,1*
G04 #@! TO.N,N/C*
X110700000Y-2800000D03*
G04 #@! TO.P,TRRS2,2*
G04 #@! TO.N,VCC*
X111800000Y1800000D03*
G04 #@! TO.P,TRRS2,3*
G04 #@! TO.N,GND*
X115800000Y1800000D03*
G04 #@! TO.P,TRRS2,4*
G04 #@! TO.N,P0*
X118800000Y1800000D03*
G04 #@! TD*
D21*
G04 #@! TO.P,J1,1*
G04 #@! TO.N,Braw*
X113500000Y10700380D03*
G04 #@! TO.P,J1,2*
G04 #@! TO.N,Bplus*
X113500000Y9699620D03*
G04 #@! TD*
D22*
G04 #@! TO.P,T1,*
G04 #@! TO.N,*
X120000000Y8700000D03*
X120000000Y11700000D03*
G04 #@! TD*
G04 #@! TO.P,T2,*
G04 #@! TO.N,*
X120000000Y8700000D03*
X120000000Y11700000D03*
D23*
G04 #@! TO.P,T2,1*
G04 #@! TO.N,Braw*
X117925000Y12450000D03*
G04 #@! TO.P,T2,2*
G04 #@! TO.N,Bplus*
X117925000Y9450000D03*
G04 #@! TO.P,T2,3*
G04 #@! TO.N,N/C*
X117925000Y7950000D03*
D24*
G04 #@! TO.P,T2,*
G04 #@! TO.N,*
X121100000Y6500000D03*
X118900000Y6500000D03*
X118900000Y13900000D03*
X121100000Y13900000D03*
G04 #@! TD*
D25*
G04 #@! TO.P,B1,2*
G04 #@! TO.N,GND*
X107000000Y13450000D03*
G04 #@! TO.P,B1,1*
G04 #@! TO.N,RST*
X107000000Y6950000D03*
G04 #@! TD*
D26*
G04 #@! TO.N,P20*
X33988600Y37403000D03*
X99028800Y28127800D03*
X24269800Y28792900D03*
G04 #@! TO.N,P5*
X27000000Y10711700D03*
X68488400Y25524500D03*
G04 #@! TO.N,P19*
X44029400Y40343800D03*
X44969100Y13729400D03*
X100107700Y26351300D03*
G04 #@! TO.N,P18*
X45978000Y30867100D03*
X47898500Y20964800D03*
X92019800Y-1797300D03*
G04 #@! TO.N,P15*
X80275000Y38463700D03*
X83470000Y20907600D03*
X110472400Y-9514600D03*
G04 #@! TO.N,P14*
X99495200Y23004800D03*
X98275000Y41372200D03*
X121164200Y-20809300D03*
G04 #@! TO.N,inner_home*
X88573200Y34998200D03*
G04 #@! TO.N,RST*
X111891700Y11822400D03*
G04 #@! TO.N,P0*
X121339000Y15229000D03*
G04 #@! TO.N,Bplus*
X119116600Y10200000D03*
G04 #@! TO.N,Bminus*
X111600200Y28844700D03*
G04 #@! TO.N,Braw*
X115682000Y10700400D03*
X112628000Y24647100D03*
G04 #@! TD*
D27*
G04 #@! TO.N,pinky_bottom*
X19650000Y-5000000D02*
X18874700Y-5000000D01*
X18874700Y-5000000D02*
X15921700Y-2047000D01*
X15921700Y-2047000D02*
X15921700Y4753300D01*
X15921700Y4753300D02*
X14725000Y5950000D01*
X21810000Y-5000000D02*
X19650000Y-5000000D01*
G04 #@! TO.N,P20*
X26275000Y37750000D02*
X27900300Y37750000D01*
X104880000Y33220000D02*
X104880000Y32655500D01*
X104880000Y32655500D02*
X102884500Y30660000D01*
X102884500Y30660000D02*
X101561000Y30660000D01*
X101561000Y30660000D02*
X99028800Y28127800D01*
X33988600Y37403000D02*
X28247300Y37403000D01*
X28247300Y37403000D02*
X27900300Y37750000D01*
X26275000Y3750000D02*
X26275000Y5375300D01*
X26275000Y20750000D02*
X26275000Y19124700D01*
X26275000Y19124700D02*
X26274700Y19124400D01*
X26274700Y19124400D02*
X26274700Y5375600D01*
X26274700Y5375600D02*
X26275000Y5375300D01*
X24269800Y28792900D02*
X24269800Y24380500D01*
X24269800Y24380500D02*
X26275000Y22375300D01*
X26275000Y37750000D02*
X26275000Y32302900D01*
X26275000Y32302900D02*
X24269800Y30297700D01*
X24269800Y30297700D02*
X24269800Y28792900D01*
X26275000Y21256000D02*
X26275000Y20750000D01*
X26275000Y21256000D02*
X26275000Y22375300D01*
G04 #@! TO.N,P6*
X32190000Y6900000D02*
X32190000Y1794000D01*
X32190000Y1794000D02*
X24058700Y-6337300D01*
X24058700Y-6337300D02*
X18462600Y-6337300D01*
X18462600Y-6337300D02*
X17125300Y-5000000D01*
X16350000Y-5000000D02*
X17125300Y-5000000D01*
X34350000Y6900000D02*
X32190000Y6900000D01*
X102380000Y26850000D02*
X100220600Y24690600D01*
X100220600Y24690600D02*
X100220600Y9803300D01*
X100220600Y9803300D02*
X94325500Y3908200D01*
X94325500Y3908200D02*
X90417100Y3908200D01*
X90417100Y3908200D02*
X89125300Y5200000D01*
X88350000Y5200000D02*
X89125300Y5200000D01*
X88350000Y5200000D02*
X86190000Y5200000D01*
X16350000Y-5000000D02*
X14190000Y-5000000D01*
X52350000Y10300000D02*
X50190000Y10300000D01*
X70350000Y6900000D02*
X68190000Y6900000D01*
G04 #@! TO.N,pinky_home*
X19650000Y12000000D02*
X18874700Y12000000D01*
X18874700Y12000000D02*
X15921700Y14953000D01*
X15921700Y14953000D02*
X15921700Y21753300D01*
X15921700Y21753300D02*
X14725000Y22950000D01*
X21810000Y12000000D02*
X19650000Y12000000D01*
G04 #@! TO.N,P5*
X68488400Y23900000D02*
X68488400Y25524500D01*
X32190000Y22685700D02*
X27000000Y17495700D01*
X27000000Y17495700D02*
X27000000Y10711700D01*
X32190000Y23900000D02*
X32190000Y22685700D01*
X34350000Y23900000D02*
X32190000Y23900000D01*
X68488400Y23900000D02*
X68190000Y23900000D01*
X70350000Y23900000D02*
X68488400Y23900000D01*
X16350000Y12000000D02*
X14190000Y12000000D01*
X52350000Y27300000D02*
X50190000Y27300000D01*
X88350000Y22200000D02*
X86190000Y22200000D01*
G04 #@! TO.N,pinky_top*
X19650000Y29000000D02*
X18874700Y29000000D01*
X18874700Y29000000D02*
X15921700Y31953000D01*
X15921700Y31953000D02*
X15921700Y38753300D01*
X15921700Y38753300D02*
X14725000Y39950000D01*
X21810000Y29000000D02*
X19650000Y29000000D01*
G04 #@! TO.N,P4*
X35125300Y40900000D02*
X36413800Y39611500D01*
X36413800Y39611500D02*
X44411300Y39611500D01*
X44411300Y39611500D02*
X48975700Y44175900D01*
X48975700Y44175900D02*
X48975700Y44300000D01*
X70350000Y40900000D02*
X71125300Y40900000D01*
X86190000Y39200000D02*
X72825300Y39200000D01*
X72825300Y39200000D02*
X71125300Y40900000D01*
X88350000Y39200000D02*
X86190000Y39200000D01*
X34350000Y40900000D02*
X35125300Y40900000D01*
X50190000Y44300000D02*
X48975700Y44300000D01*
X52350000Y44300000D02*
X50190000Y44300000D01*
X16350000Y29000000D02*
X14190000Y29000000D01*
X34350000Y40900000D02*
X32190000Y40900000D01*
X70350000Y40900000D02*
X68190000Y40900000D01*
G04 #@! TO.N,ring_bottom*
X37650000Y6900000D02*
X36874700Y6900000D01*
X36874700Y6900000D02*
X33921700Y9853000D01*
X33921700Y9853000D02*
X33921700Y16653300D01*
X33921700Y16653300D02*
X32725000Y17850000D01*
X39810000Y6900000D02*
X37650000Y6900000D01*
G04 #@! TO.N,P19*
X44275000Y49650000D02*
X44275000Y40589400D01*
X44275000Y40589400D02*
X44029400Y40343800D01*
X44275000Y15650000D02*
X44275000Y14024700D01*
X44969100Y13729400D02*
X44673800Y14024700D01*
X44673800Y14024700D02*
X44275000Y14024700D01*
X104880000Y30680000D02*
X104880000Y30115500D01*
X104880000Y30115500D02*
X102952800Y28188300D01*
X102952800Y28188300D02*
X101944700Y28188300D01*
X101944700Y28188300D02*
X100107700Y26351300D01*
X44275000Y32650000D02*
X44275000Y15650000D01*
G04 #@! TO.N,ring_home*
X37650000Y23900000D02*
X36874700Y23900000D01*
X36874700Y23900000D02*
X33921700Y26853000D01*
X33921700Y26853000D02*
X33921700Y33653300D01*
X33921700Y33653300D02*
X32725000Y34850000D01*
X39810000Y23900000D02*
X37650000Y23900000D01*
G04 #@! TO.N,ring_top*
X37650000Y40900000D02*
X36874700Y40900000D01*
X36874700Y40900000D02*
X33921700Y43853000D01*
X33921700Y43853000D02*
X33921700Y50653300D01*
X33921700Y50653300D02*
X32725000Y51850000D01*
X39810000Y40900000D02*
X37650000Y40900000D01*
G04 #@! TO.N,middle_bottom*
X55650000Y10300000D02*
X54874700Y10300000D01*
X54874700Y10300000D02*
X51921700Y13253000D01*
X51921700Y13253000D02*
X51921700Y20053300D01*
X51921700Y20053300D02*
X50725000Y21250000D01*
X57810000Y10300000D02*
X55650000Y10300000D01*
G04 #@! TO.N,P18*
X49477600Y23087400D02*
X45978000Y26587000D01*
X45978000Y26587000D02*
X45978000Y30867100D01*
X49477600Y23087400D02*
X47898500Y21508300D01*
X47898500Y21508300D02*
X47898500Y20964800D01*
X62275000Y23087400D02*
X49477600Y23087400D01*
X62275000Y23087400D02*
X62275000Y19724800D01*
X62275000Y36050000D02*
X62275000Y23087400D01*
X104880000Y28140000D02*
X104880000Y27587100D01*
X104880000Y27587100D02*
X102872900Y25580000D01*
X102872900Y25580000D02*
X101914700Y25580000D01*
X101914700Y25580000D02*
X100670900Y24336200D01*
X100670900Y24336200D02*
X100670900Y6853800D01*
X100670900Y6853800D02*
X92019800Y-1797300D01*
X62275000Y19724800D02*
X62275000Y19050000D01*
X62275000Y19724800D02*
X72762200Y19724800D01*
X72762200Y19724800D02*
X74043900Y18443100D01*
X74043900Y18443100D02*
X74043900Y13661000D01*
X74043900Y13661000D02*
X89502200Y-1797300D01*
X89502200Y-1797300D02*
X92019800Y-1797300D01*
X92390300Y-5947800D02*
X92390200Y-5947800D01*
X92390200Y-5947800D02*
X92019800Y-5577400D01*
X92019800Y-5577400D02*
X92019800Y-1797300D01*
X62275000Y53050000D02*
X62275000Y36050000D01*
X91856900Y-7938500D02*
X92390300Y-5947800D01*
G04 #@! TO.N,middle_home*
X55650000Y27300000D02*
X54874700Y27300000D01*
X54874700Y27300000D02*
X51921700Y30253000D01*
X51921700Y30253000D02*
X51921700Y37053300D01*
X51921700Y37053300D02*
X50725000Y38250000D01*
X57810000Y27300000D02*
X55650000Y27300000D01*
G04 #@! TO.N,middle_top*
X55650000Y44300000D02*
X54874700Y44300000D01*
X54874700Y44300000D02*
X51921700Y47253000D01*
X51921700Y47253000D02*
X51921700Y54053300D01*
X51921700Y54053300D02*
X50725000Y55250000D01*
X57810000Y44300000D02*
X55650000Y44300000D01*
G04 #@! TO.N,index_bottom*
X73650000Y6900000D02*
X72874700Y6900000D01*
X72874700Y6900000D02*
X69921700Y9853000D01*
X69921700Y9853000D02*
X69921700Y16653300D01*
X69921700Y16653300D02*
X68725000Y17850000D01*
X75810000Y6900000D02*
X73650000Y6900000D01*
G04 #@! TO.N,P15*
X80275000Y32650000D02*
X80275000Y38463700D01*
X80275000Y49650000D02*
X81900300Y49650000D01*
X80275000Y32650000D02*
X81900300Y32650000D01*
X81900300Y32650000D02*
X86189600Y36939300D01*
X86189600Y36939300D02*
X87645100Y36939300D01*
X87645100Y36939300D02*
X89125400Y38419600D01*
X89125400Y38419600D02*
X89125400Y39954700D01*
X89125400Y39954700D02*
X86733100Y42347000D01*
X86733100Y42347000D02*
X86733100Y43635400D01*
X86733100Y43635400D02*
X81900300Y48468200D01*
X81900300Y48468200D02*
X81900300Y49650000D01*
X80275000Y20907600D02*
X80275000Y32650000D01*
X80275000Y20907600D02*
X80275000Y15650000D01*
X80275000Y20907600D02*
X83470000Y20907600D01*
X110472400Y-9514600D02*
X103634800Y-2677000D01*
X103634800Y-2677000D02*
X103634800Y24354800D01*
X103634800Y24354800D02*
X104880000Y25600000D01*
X111502800Y-16202700D02*
X110472400Y-15172300D01*
X110472400Y-15172300D02*
X110472400Y-9514600D01*
X110472400Y-17987400D02*
X111502800Y-16202700D01*
G04 #@! TO.N,index_home*
X73650000Y23900000D02*
X72874700Y23900000D01*
X72874700Y23900000D02*
X69921700Y26853000D01*
X69921700Y26853000D02*
X69921700Y33653300D01*
X69921700Y33653300D02*
X68725000Y34850000D01*
X75810000Y23900000D02*
X73650000Y23900000D01*
G04 #@! TO.N,index_top*
X73650000Y40900000D02*
X72874700Y40900000D01*
X72874700Y40900000D02*
X69921700Y43853000D01*
X69921700Y43853000D02*
X69921700Y50653300D01*
X69921700Y50653300D02*
X68725000Y51850000D01*
X75810000Y40900000D02*
X73650000Y40900000D01*
G04 #@! TO.N,inner_bottom*
X91650000Y5200000D02*
X90874700Y5200000D01*
X90874700Y5200000D02*
X87921700Y8153000D01*
X87921700Y8153000D02*
X87921700Y14953300D01*
X87921700Y14953300D02*
X86725000Y16150000D01*
X93810000Y5200000D02*
X91650000Y5200000D01*
G04 #@! TO.N,P14*
X117620000Y24310000D02*
X118902800Y23027200D01*
X118902800Y23027200D02*
X118902800Y16028400D01*
X118902800Y16028400D02*
X120324700Y14606500D01*
X120324700Y14606500D02*
X120324700Y13315200D01*
X120324700Y13315200D02*
X120860700Y12779200D01*
X120860700Y12779200D02*
X120860700Y7643100D01*
X120860700Y7643100D02*
X120302500Y7084900D01*
X120302500Y7084900D02*
X120302500Y2941400D01*
X120302500Y2941400D02*
X121347800Y1896100D01*
X121347800Y1896100D02*
X121347800Y-20625700D01*
X121347800Y-20625700D02*
X121164200Y-20809300D01*
X98275000Y23004800D02*
X98275000Y13950000D01*
X98275000Y30950000D02*
X98275000Y23004800D01*
X98275000Y23004800D02*
X99495200Y23004800D01*
X98275000Y41372200D02*
X98275000Y30950000D01*
X98275000Y47950000D02*
X98275000Y41372200D01*
X125852000Y-32512000D02*
X125852000Y-25497100D01*
X125852000Y-25497100D02*
X121164200Y-20809300D01*
G04 #@! TO.N,inner_home*
X86725000Y33150000D02*
X88573200Y34998200D01*
X91650000Y22200000D02*
X90874700Y22200000D01*
X90874700Y22200000D02*
X87921700Y25153000D01*
X87921700Y25153000D02*
X87921700Y31953300D01*
X87921700Y31953300D02*
X86725000Y33150000D01*
X93810000Y22200000D02*
X91650000Y22200000D01*
G04 #@! TO.N,inner_top*
X91650000Y39200000D02*
X90874700Y39200000D01*
X90874700Y39200000D02*
X87921700Y42153000D01*
X87921700Y42153000D02*
X87921700Y48953300D01*
X87921700Y48953300D02*
X86725000Y50150000D01*
X93810000Y39200000D02*
X91650000Y39200000D01*
G04 #@! TO.N,near_thumb*
X83193000Y-14675700D02*
X82204500Y-14410800D01*
X81269900Y-2824100D02*
X81269900Y-7663200D01*
X81269900Y-7663200D02*
X80850800Y-8082300D01*
X80850800Y-8082300D02*
X80850800Y-12333500D01*
X80850800Y-12333500D02*
X82204500Y-13687200D01*
X82204500Y-13687200D02*
X82204500Y-14410800D01*
X83193000Y-14675700D02*
X84181400Y-14940500D01*
X85279400Y-15234700D02*
X84475500Y-15234700D01*
X84475500Y-15234700D02*
X84181400Y-14940600D01*
X84181400Y-14940600D02*
X84181400Y-14940500D01*
G04 #@! TO.N,P7*
X96615800Y-20091100D02*
X96199700Y-20091100D01*
X96199700Y-20091100D02*
X95631300Y-19522700D01*
X102380000Y24310000D02*
X101177600Y23107600D01*
X101177600Y23107600D02*
X101177600Y-6191500D01*
X101177600Y-6191500D02*
X97102700Y-10266400D01*
X97102700Y-10266400D02*
X97102700Y-12433700D01*
X97102700Y-12433700D02*
X97888300Y-13219300D01*
X97888300Y-13219300D02*
X97888300Y-18818600D01*
X97888300Y-18818600D02*
X96615800Y-20091100D01*
X97502000Y-20602700D02*
X96615800Y-20091100D01*
X111119900Y-30153700D02*
X112647300Y-31681100D01*
X80005400Y-13821500D02*
X79017000Y-13556700D01*
X79017000Y-13556700D02*
X78213200Y-13556700D01*
X78213200Y-13556700D02*
X77919000Y-13262500D01*
G04 #@! TO.N,home_thumb*
X102230500Y-23332700D02*
X103499700Y-22063500D01*
X103499700Y-22063500D02*
X103499700Y-15976700D01*
X103499700Y-15976700D02*
X101569800Y-14046800D01*
X101569800Y-14046800D02*
X101569800Y-10307100D01*
X102230500Y-23332700D02*
X101814400Y-23332700D01*
X101814400Y-23332700D02*
X101246000Y-22764300D01*
X100359800Y-22252700D02*
X101246000Y-22764300D01*
G04 #@! TO.N,far_thumb*
X116508100Y-35541900D02*
X119405700Y-32644300D01*
X119405700Y-32644300D02*
X119405700Y-22954400D01*
X119405700Y-22954400D02*
X119240500Y-22789200D01*
X116508100Y-35541900D02*
X114980700Y-34014500D01*
D28*
G04 #@! TO.N,GND*
X115800000Y1800000D02*
X115800000Y3050300D01*
X104880000Y43380000D02*
X107000000Y41260000D01*
X107000000Y41260000D02*
X107000000Y13450000D01*
X115800000Y3050300D02*
X107000000Y11850300D01*
X107000000Y11850300D02*
X107000000Y13450000D01*
X102380000Y39550000D02*
X102380000Y42090000D01*
X120120000Y38300000D02*
X120120000Y40840000D01*
X115800000Y1800000D02*
X115800000Y-4800000D01*
D27*
G04 #@! TO.N,RST*
X111891700Y11822400D02*
X111891700Y27068300D01*
X111891700Y27068300D02*
X112842000Y28018600D01*
X112842000Y28018600D02*
X113812100Y28018600D01*
X113812100Y28018600D02*
X116281700Y30488200D01*
X116281700Y30488200D02*
X116281700Y40751700D01*
X116281700Y40751700D02*
X117620000Y42090000D01*
D28*
G04 #@! TO.N,VCC*
X111800000Y1800000D02*
X111800000Y4283800D01*
X111800000Y4283800D02*
X105492000Y10591800D01*
X105492000Y10591800D02*
X105492000Y14062400D01*
X105492000Y14062400D02*
X106252600Y14823000D01*
X106252600Y14823000D02*
X106252600Y36927400D01*
X106252600Y36927400D02*
X104880000Y38300000D01*
X111800000Y-4800000D02*
X112300000Y-4300000D01*
X112300000Y-4300000D02*
X112300000Y1300000D01*
X112300000Y1300000D02*
X111800000Y1800000D01*
D27*
G04 #@! TO.N,P0*
X120120000Y43380000D02*
X121339000Y42161000D01*
X121339000Y42161000D02*
X121339000Y15229000D01*
X118800000Y1800000D02*
X118800000Y-4800000D01*
D28*
G04 #@! TO.N,Bplus*
X107844300Y45495700D02*
X107844300Y14667300D01*
X107844300Y14667300D02*
X112478200Y10033400D01*
X112478200Y10033400D02*
X112478200Y9699600D01*
X107844300Y45495700D02*
X104880000Y48460000D01*
X107844300Y45495700D02*
X112058600Y49710000D01*
X112058600Y49710000D02*
X117620000Y49710000D01*
X113500000Y9699600D02*
X112478200Y9699600D01*
X114010900Y9699600D02*
X113500000Y9699600D01*
X114010900Y9699600D02*
X114521800Y9699600D01*
X117925000Y9450000D02*
X119000300Y9450000D01*
X119116600Y10200000D02*
X119000300Y10083700D01*
X119000300Y10083700D02*
X119000300Y9450000D01*
X117925000Y9450000D02*
X114771400Y9450000D01*
X114771400Y9450000D02*
X114521800Y9699600D01*
G04 #@! TO.N,Bminus*
X113000000Y29200000D02*
X111799700Y29200000D01*
X111600200Y28844700D02*
X111799700Y29044200D01*
X111799700Y29044200D02*
X111799700Y29200000D01*
X113000000Y29200000D02*
X113000000Y44986700D01*
X113000000Y44986700D02*
X116515800Y48502500D01*
X116515800Y48502500D02*
X120077500Y48502500D01*
X120077500Y48502500D02*
X120120000Y48460000D01*
G04 #@! TO.N,Braw*
X115682000Y12450000D02*
X114481800Y12450000D01*
X117925000Y12450000D02*
X115682000Y12450000D01*
X115682000Y12450000D02*
X115682000Y10700400D01*
X113000000Y25599900D02*
X112628000Y25227900D01*
X112628000Y25227900D02*
X112628000Y24647100D01*
X113000000Y25599900D02*
X113000000Y24999700D01*
X113000000Y26200000D02*
X113000000Y25599900D01*
X114481800Y12450000D02*
X113500000Y11468200D01*
X114481800Y12450000D02*
X114481800Y23517900D01*
X114481800Y23517900D02*
X113000000Y24999700D01*
X113500000Y10700400D02*
X113500000Y11468200D01*
G04 #@! TD*
M02*
