G04 #@! TF.GenerationSoftware,KiCad,Pcbnew,5.1.5+dfsg1-2build2*
G04 #@! TF.CreationDate,2021-11-11T17:13:18+00:00*
G04 #@! TF.ProjectId,board,626f6172-642e-46b6-9963-61645f706362,VERSION_HERE*
G04 #@! TF.SameCoordinates,Original*
G04 #@! TF.FileFunction,Paste,Bot*
G04 #@! TF.FilePolarity,Positive*
%FSLAX46Y46*%
G04 Gerber Fmt 4.6, Leading zero omitted, Abs format (unit mm)*
G04 Created by KiCad (PCBNEW 5.1.5+dfsg1-2build2) date 2021-11-11 17:13:18*
%MOMM*%
%LPD*%
G04 APERTURE LIST*
G04 #@! TA.AperFunction,Profile*
%ADD10C,0.150000*%
G04 #@! TD*
%ADD11R,2.600000X2.600000*%
%ADD12R,0.900000X1.200000*%
%ADD13C,0.350000*%
%ADD14R,1.500000X1.500000*%
%ADD15R,1.143000X0.635000*%
%ADD16R,1.250000X0.900000*%
%ADD17R,0.900000X0.900000*%
%ADD18R,1.100000X1.800000*%
G04 APERTURE END LIST*
D10*
X10000000Y-9500000D02*
X26000000Y-9500000D01*
X8000000Y-7500000D02*
X8000000Y41500000D01*
X10000000Y-9500000D02*
G75*
G02X8000000Y-7500000I0J2000000D01*
G01*
X26000000Y43500000D02*
X10000000Y43500000D01*
X8000000Y41500000D02*
G75*
G02X10000000Y43500000I2000000J0D01*
G01*
X44000000Y55400000D02*
X28000000Y55400000D01*
X26000000Y53400000D02*
G75*
G02X28000000Y55400000I2000000J0D01*
G01*
X26000000Y53400000D02*
X26000000Y43500000D01*
X64000000Y55400000D02*
X64000000Y56800000D01*
X62000000Y58800000D02*
G75*
G02X64000000Y56800000I0J-2000000D01*
G01*
X62000000Y58800000D02*
X46000000Y58800000D01*
X44000000Y56800000D02*
G75*
G02X46000000Y58800000I2000000J0D01*
G01*
X44000000Y56800000D02*
X44000000Y55400000D01*
X80000000Y55400000D02*
G75*
G02X81977391Y53699872I0J-2000000D01*
G01*
X80000000Y55400000D02*
X64000000Y55400000D01*
X98000000Y53700000D02*
G75*
G02X99994367Y51850000I0J-2000000D01*
G01*
X98000000Y53700000D02*
X82000000Y53700000D01*
X81977391Y53699872D02*
G75*
G02X82000000Y53700000I22609J-1999872D01*
G01*
X119117258Y-41686664D02*
G75*
G02X116288831Y-41686665I-1414214J1414213D01*
G01*
X119117258Y-41686665D02*
X129723860Y-31080063D01*
X129723859Y-28251636D02*
G75*
G02X129723860Y-31080063I-1414213J-1414214D01*
G01*
X122000000Y-20208734D02*
X129723860Y-28251636D01*
X116288831Y-41686665D02*
X72707107Y-16524745D01*
X72707107Y-16524745D02*
X26000000Y-9500000D01*
X122000000Y-20208734D02*
X122000000Y49850000D01*
X120000000Y51850000D02*
G75*
G02X122000000Y49850000I0J-2000000D01*
G01*
X120000000Y51850000D02*
X99994367Y51850000D01*
X29050000Y28900000D02*
G75*
G03X29050000Y28900000I-2050000J0D01*
G01*
X29050000Y0D02*
G75*
G03X29050000Y0I-2050000J0D01*
G01*
X83050000Y44200000D02*
G75*
G03X83050000Y44200000I-2050000J0D01*
G01*
X74050000Y-6120000D02*
G75*
G03X74050000Y-6120000I-2050000J0D01*
G01*
X112399134Y-22311939D02*
G75*
G03X112399134Y-22311939I-2050000J0D01*
G01*
D11*
G04 #@! TO.C,S1*
X14725000Y5950000D03*
X26275000Y3750000D03*
G04 #@! TD*
D12*
G04 #@! TO.C,D1*
X19650000Y-5000000D03*
X16350000Y-5000000D03*
G04 #@! TD*
D11*
G04 #@! TO.C,S2*
X14725000Y22950000D03*
X26275000Y20750000D03*
G04 #@! TD*
D12*
G04 #@! TO.C,D2*
X19650000Y12000000D03*
X16350000Y12000000D03*
G04 #@! TD*
D11*
G04 #@! TO.C,S3*
X14725000Y39950000D03*
X26275000Y37750000D03*
G04 #@! TD*
D12*
G04 #@! TO.C,D3*
X19650000Y29000000D03*
X16350000Y29000000D03*
G04 #@! TD*
D11*
G04 #@! TO.C,S4*
X32725000Y17850000D03*
X44275000Y15650000D03*
G04 #@! TD*
D12*
G04 #@! TO.C,D4*
X37650000Y6900000D03*
X34350000Y6900000D03*
G04 #@! TD*
D11*
G04 #@! TO.C,S5*
X32725000Y34850000D03*
X44275000Y32650000D03*
G04 #@! TD*
D12*
G04 #@! TO.C,D5*
X37650000Y23900000D03*
X34350000Y23900000D03*
G04 #@! TD*
D11*
G04 #@! TO.C,S6*
X32725000Y51850000D03*
X44275000Y49650000D03*
G04 #@! TD*
D12*
G04 #@! TO.C,D6*
X37650000Y40900000D03*
X34350000Y40900000D03*
G04 #@! TD*
D11*
G04 #@! TO.C,S7*
X50725000Y21250000D03*
X62275000Y19050000D03*
G04 #@! TD*
D12*
G04 #@! TO.C,D7*
X55650000Y10300000D03*
X52350000Y10300000D03*
G04 #@! TD*
D11*
G04 #@! TO.C,S8*
X50725000Y38250000D03*
X62275000Y36050000D03*
G04 #@! TD*
D12*
G04 #@! TO.C,D8*
X55650000Y27300000D03*
X52350000Y27300000D03*
G04 #@! TD*
D11*
G04 #@! TO.C,S9*
X50725000Y55250000D03*
X62275000Y53050000D03*
G04 #@! TD*
D12*
G04 #@! TO.C,D9*
X55650000Y44300000D03*
X52350000Y44300000D03*
G04 #@! TD*
D11*
G04 #@! TO.C,S10*
X68725000Y17850000D03*
X80275000Y15650000D03*
G04 #@! TD*
D12*
G04 #@! TO.C,D10*
X73650000Y6900000D03*
X70350000Y6900000D03*
G04 #@! TD*
D11*
G04 #@! TO.C,S11*
X68725000Y34850000D03*
X80275000Y32650000D03*
G04 #@! TD*
D12*
G04 #@! TO.C,D11*
X73650000Y23900000D03*
X70350000Y23900000D03*
G04 #@! TD*
D11*
G04 #@! TO.C,S12*
X68725000Y51850000D03*
X80275000Y49650000D03*
G04 #@! TD*
D12*
G04 #@! TO.C,D12*
X73650000Y40900000D03*
X70350000Y40900000D03*
G04 #@! TD*
D11*
G04 #@! TO.C,S13*
X86725000Y16150000D03*
X98275000Y13950000D03*
G04 #@! TD*
D12*
G04 #@! TO.C,D13*
X91650000Y5200000D03*
X88350000Y5200000D03*
G04 #@! TD*
D11*
G04 #@! TO.C,S14*
X86725000Y33150000D03*
X98275000Y30950000D03*
G04 #@! TD*
D12*
G04 #@! TO.C,D14*
X91650000Y22200000D03*
X88350000Y22200000D03*
G04 #@! TD*
D11*
G04 #@! TO.C,S15*
X86725000Y50150000D03*
X98275000Y47950000D03*
G04 #@! TD*
D12*
G04 #@! TO.C,D15*
X91650000Y39200000D03*
X88350000Y39200000D03*
G04 #@! TD*
D13*
G04 #@! TO.C,S16*
G36*
X79677698Y-3743348D02*
G01*
X80350627Y-1231941D01*
X82862034Y-1904870D01*
X82189105Y-4416277D01*
X79677698Y-3743348D01*
G37*
G36*
X90264740Y-8857745D02*
G01*
X90937669Y-6346338D01*
X93449076Y-7019267D01*
X92776147Y-9530674D01*
X90264740Y-8857745D01*
G37*
G04 #@! TD*
G04 #@! TO.C,D16*
G36*
X82603020Y-15138737D02*
G01*
X82913603Y-13979626D01*
X83782936Y-14212563D01*
X83472353Y-15371674D01*
X82603020Y-15138737D01*
G37*
G36*
X79415464Y-14284637D02*
G01*
X79726047Y-13125526D01*
X80595380Y-13358463D01*
X80284797Y-14517574D01*
X79415464Y-14284637D01*
G37*
G04 #@! TD*
G04 #@! TO.C,S17*
G36*
X99793934Y-10782982D02*
G01*
X101093934Y-8531316D01*
X103345600Y-9831316D01*
X102045600Y-12082982D01*
X99793934Y-10782982D01*
G37*
G36*
X108696527Y-18463238D02*
G01*
X109996527Y-16211572D01*
X112248193Y-17511572D01*
X110948193Y-19763238D01*
X108696527Y-18463238D01*
G37*
G04 #@! TD*
G04 #@! TO.C,D17*
G36*
X99670131Y-22547315D02*
G01*
X100270131Y-21508085D01*
X101049553Y-21958085D01*
X100449553Y-22997315D01*
X99670131Y-22547315D01*
G37*
G36*
X96812247Y-20897315D02*
G01*
X97412247Y-19858085D01*
X98191669Y-20308085D01*
X97591669Y-21347315D01*
X96812247Y-20897315D01*
G37*
G04 #@! TD*
G04 #@! TO.C,S18*
G36*
X117402033Y-22789240D02*
G01*
X119240511Y-20950762D01*
X121078989Y-22789240D01*
X119240511Y-24627718D01*
X117402033Y-22789240D01*
G37*
G36*
X124013481Y-32511958D02*
G01*
X125851959Y-30673480D01*
X127690437Y-32511958D01*
X125851959Y-34350436D01*
X124013481Y-32511958D01*
G37*
G04 #@! TD*
G04 #@! TO.C,D18*
G36*
X114238264Y-34120592D02*
G01*
X115086792Y-33272064D01*
X115723188Y-33908460D01*
X114874660Y-34756988D01*
X114238264Y-34120592D01*
G37*
G36*
X111904812Y-31787140D02*
G01*
X112753340Y-30938612D01*
X113389736Y-31575008D01*
X112541208Y-32423536D01*
X111904812Y-31787140D01*
G37*
G04 #@! TD*
D14*
G04 #@! TO.C,PAD1*
X113000000Y26200000D03*
G04 #@! TD*
G04 #@! TO.C,PAD2*
X113000000Y29200000D03*
G04 #@! TD*
D15*
G04 #@! TO.C,J1*
X113500000Y10700380D03*
X113500000Y9699620D03*
G04 #@! TD*
D16*
G04 #@! TO.C,T2*
X117925000Y12450000D03*
X117925000Y9450000D03*
X117925000Y7950000D03*
D17*
X121100000Y6500000D03*
X118900000Y6500000D03*
X118900000Y13900000D03*
X121100000Y13900000D03*
G04 #@! TD*
D18*
G04 #@! TO.C,B2*
X108850000Y13300000D03*
X108850000Y7100000D03*
X105150000Y13300000D03*
X105150000Y7100000D03*
G04 #@! TD*
M02*
