G04 #@! TF.GenerationSoftware,KiCad,Pcbnew,5.1.5+dfsg1-2build2*
G04 #@! TF.CreationDate,2021-10-14T21:44:16+00:00*
G04 #@! TF.ProjectId,board,626f6172-642e-46b6-9963-61645f706362,VERSION_HERE*
G04 #@! TF.SameCoordinates,Original*
G04 #@! TF.FileFunction,Legend,Top*
G04 #@! TF.FilePolarity,Positive*
%FSLAX46Y46*%
G04 Gerber Fmt 4.6, Leading zero omitted, Abs format (unit mm)*
G04 Created by KiCad (PCBNEW 5.1.5+dfsg1-2build2) date 2021-10-14 21:44:16*
%MOMM*%
%LPD*%
G04 APERTURE LIST*
G04 #@! TA.AperFunction,Profile*
%ADD10C,0.150000*%
G04 #@! TD*
%ADD11C,0.100000*%
%ADD12C,0.150000*%
G04 APERTURE END LIST*
D10*
X10000000Y-9500000D02*
X26000000Y-9500000D01*
X8000000Y-7500000D02*
X8000000Y41500000D01*
X10000000Y-9500000D02*
G75*
G02X8000000Y-7500000I0J2000000D01*
G01*
X26000000Y43500000D02*
X10000000Y43500000D01*
X8000000Y41500000D02*
G75*
G02X10000000Y43500000I2000000J0D01*
G01*
X44000000Y55400000D02*
X28000000Y55400000D01*
X26000000Y53400000D02*
G75*
G02X28000000Y55400000I2000000J0D01*
G01*
X26000000Y53400000D02*
X26000000Y43500000D01*
X64000000Y55400000D02*
X64000000Y56800000D01*
X62000000Y58800000D02*
G75*
G02X64000000Y56800000I0J-2000000D01*
G01*
X62000000Y58800000D02*
X46000000Y58800000D01*
X44000000Y56800000D02*
G75*
G02X46000000Y58800000I2000000J0D01*
G01*
X44000000Y56800000D02*
X44000000Y55400000D01*
X80000000Y55400000D02*
G75*
G02X81977391Y53699872I0J-2000000D01*
G01*
X80000000Y55400000D02*
X64000000Y55400000D01*
X98000000Y53700000D02*
G75*
G02X99994367Y51850000I0J-2000000D01*
G01*
X98000000Y53700000D02*
X82000000Y53700000D01*
X81977391Y53699872D02*
G75*
G02X82000000Y53700000I22609J-1999872D01*
G01*
X119117258Y-41686664D02*
G75*
G02X116288831Y-41686665I-1414214J1414213D01*
G01*
X119117258Y-41686665D02*
X129723860Y-31080063D01*
X129723859Y-28251636D02*
G75*
G02X129723860Y-31080063I-1414213J-1414214D01*
G01*
X122000000Y-20208734D02*
X129723860Y-28251636D01*
X116288831Y-41686665D02*
X72707107Y-16524745D01*
X72707107Y-16524745D02*
X26000000Y-9500000D01*
X122000000Y-20208734D02*
X122000000Y49850000D01*
X120000000Y51850000D02*
G75*
G02X122000000Y49850000I0J-2000000D01*
G01*
X120000000Y51850000D02*
X99994367Y51850000D01*
X29050000Y28900000D02*
G75*
G03X29050000Y28900000I-2050000J0D01*
G01*
X29050000Y0D02*
G75*
G03X29050000Y0I-2050000J0D01*
G01*
X83050000Y44200000D02*
G75*
G03X83050000Y44200000I-2050000J0D01*
G01*
X74050000Y-6120000D02*
G75*
G03X74050000Y-6120000I-2050000J0D01*
G01*
X112399134Y-22311939D02*
G75*
G03X112399134Y-22311939I-2050000J0D01*
G01*
D11*
G04 #@! TO.C,D1*
X18250000Y-5000000D02*
X18750000Y-5000000D01*
X18250000Y-5400000D02*
X17650000Y-5000000D01*
X18250000Y-4600000D02*
X18250000Y-5400000D01*
X17650000Y-5000000D02*
X18250000Y-4600000D01*
X17650000Y-5000000D02*
X17650000Y-5550000D01*
X17650000Y-5000000D02*
X17650000Y-4450000D01*
X17250000Y-5000000D02*
X17650000Y-5000000D01*
G04 #@! TO.C,D2*
X18250000Y12000000D02*
X18750000Y12000000D01*
X18250000Y11600000D02*
X17650000Y12000000D01*
X18250000Y12400000D02*
X18250000Y11600000D01*
X17650000Y12000000D02*
X18250000Y12400000D01*
X17650000Y12000000D02*
X17650000Y11450000D01*
X17650000Y12000000D02*
X17650000Y12550000D01*
X17250000Y12000000D02*
X17650000Y12000000D01*
G04 #@! TO.C,D3*
X18250000Y29000000D02*
X18750000Y29000000D01*
X18250000Y28600000D02*
X17650000Y29000000D01*
X18250000Y29400000D02*
X18250000Y28600000D01*
X17650000Y29000000D02*
X18250000Y29400000D01*
X17650000Y29000000D02*
X17650000Y28450000D01*
X17650000Y29000000D02*
X17650000Y29550000D01*
X17250000Y29000000D02*
X17650000Y29000000D01*
G04 #@! TO.C,D4*
X36250000Y6900000D02*
X36750000Y6900000D01*
X36250000Y6500000D02*
X35650000Y6900000D01*
X36250000Y7300000D02*
X36250000Y6500000D01*
X35650000Y6900000D02*
X36250000Y7300000D01*
X35650000Y6900000D02*
X35650000Y6350000D01*
X35650000Y6900000D02*
X35650000Y7450000D01*
X35250000Y6900000D02*
X35650000Y6900000D01*
G04 #@! TO.C,D5*
X36250000Y23900000D02*
X36750000Y23900000D01*
X36250000Y23500000D02*
X35650000Y23900000D01*
X36250000Y24300000D02*
X36250000Y23500000D01*
X35650000Y23900000D02*
X36250000Y24300000D01*
X35650000Y23900000D02*
X35650000Y23350000D01*
X35650000Y23900000D02*
X35650000Y24450000D01*
X35250000Y23900000D02*
X35650000Y23900000D01*
G04 #@! TO.C,D6*
X36250000Y40900000D02*
X36750000Y40900000D01*
X36250000Y40500000D02*
X35650000Y40900000D01*
X36250000Y41300000D02*
X36250000Y40500000D01*
X35650000Y40900000D02*
X36250000Y41300000D01*
X35650000Y40900000D02*
X35650000Y40350000D01*
X35650000Y40900000D02*
X35650000Y41450000D01*
X35250000Y40900000D02*
X35650000Y40900000D01*
G04 #@! TO.C,D7*
X54250000Y10300000D02*
X54750000Y10300000D01*
X54250000Y9900000D02*
X53650000Y10300000D01*
X54250000Y10700000D02*
X54250000Y9900000D01*
X53650000Y10300000D02*
X54250000Y10700000D01*
X53650000Y10300000D02*
X53650000Y9750000D01*
X53650000Y10300000D02*
X53650000Y10850000D01*
X53250000Y10300000D02*
X53650000Y10300000D01*
G04 #@! TO.C,D8*
X54250000Y27300000D02*
X54750000Y27300000D01*
X54250000Y26900000D02*
X53650000Y27300000D01*
X54250000Y27700000D02*
X54250000Y26900000D01*
X53650000Y27300000D02*
X54250000Y27700000D01*
X53650000Y27300000D02*
X53650000Y26750000D01*
X53650000Y27300000D02*
X53650000Y27850000D01*
X53250000Y27300000D02*
X53650000Y27300000D01*
G04 #@! TO.C,D9*
X54250000Y44300000D02*
X54750000Y44300000D01*
X54250000Y43900000D02*
X53650000Y44300000D01*
X54250000Y44700000D02*
X54250000Y43900000D01*
X53650000Y44300000D02*
X54250000Y44700000D01*
X53650000Y44300000D02*
X53650000Y43750000D01*
X53650000Y44300000D02*
X53650000Y44850000D01*
X53250000Y44300000D02*
X53650000Y44300000D01*
G04 #@! TO.C,D10*
X72250000Y6900000D02*
X72750000Y6900000D01*
X72250000Y6500000D02*
X71650000Y6900000D01*
X72250000Y7300000D02*
X72250000Y6500000D01*
X71650000Y6900000D02*
X72250000Y7300000D01*
X71650000Y6900000D02*
X71650000Y6350000D01*
X71650000Y6900000D02*
X71650000Y7450000D01*
X71250000Y6900000D02*
X71650000Y6900000D01*
G04 #@! TO.C,D11*
X72250000Y23900000D02*
X72750000Y23900000D01*
X72250000Y23500000D02*
X71650000Y23900000D01*
X72250000Y24300000D02*
X72250000Y23500000D01*
X71650000Y23900000D02*
X72250000Y24300000D01*
X71650000Y23900000D02*
X71650000Y23350000D01*
X71650000Y23900000D02*
X71650000Y24450000D01*
X71250000Y23900000D02*
X71650000Y23900000D01*
G04 #@! TO.C,D12*
X72250000Y40900000D02*
X72750000Y40900000D01*
X72250000Y40500000D02*
X71650000Y40900000D01*
X72250000Y41300000D02*
X72250000Y40500000D01*
X71650000Y40900000D02*
X72250000Y41300000D01*
X71650000Y40900000D02*
X71650000Y40350000D01*
X71650000Y40900000D02*
X71650000Y41450000D01*
X71250000Y40900000D02*
X71650000Y40900000D01*
G04 #@! TO.C,D13*
X90250000Y5200000D02*
X90750000Y5200000D01*
X90250000Y4800000D02*
X89650000Y5200000D01*
X90250000Y5600000D02*
X90250000Y4800000D01*
X89650000Y5200000D02*
X90250000Y5600000D01*
X89650000Y5200000D02*
X89650000Y4650000D01*
X89650000Y5200000D02*
X89650000Y5750000D01*
X89250000Y5200000D02*
X89650000Y5200000D01*
G04 #@! TO.C,D14*
X90250000Y22200000D02*
X90750000Y22200000D01*
X90250000Y21800000D02*
X89650000Y22200000D01*
X90250000Y22600000D02*
X90250000Y21800000D01*
X89650000Y22200000D02*
X90250000Y22600000D01*
X89650000Y22200000D02*
X89650000Y21650000D01*
X89650000Y22200000D02*
X89650000Y22750000D01*
X89250000Y22200000D02*
X89650000Y22200000D01*
G04 #@! TO.C,D15*
X90250000Y39200000D02*
X90750000Y39200000D01*
X90250000Y38800000D02*
X89650000Y39200000D01*
X90250000Y39600000D02*
X90250000Y38800000D01*
X89650000Y39200000D02*
X90250000Y39600000D01*
X89650000Y39200000D02*
X89650000Y38650000D01*
X89650000Y39200000D02*
X89650000Y39750000D01*
X89250000Y39200000D02*
X89650000Y39200000D01*
G04 #@! TO.C,D16*
X81840681Y-14313305D02*
X82323644Y-14442714D01*
X81737154Y-14699675D02*
X81261126Y-14158013D01*
X81944209Y-13926934D02*
X81737154Y-14699675D01*
X81261126Y-14158013D02*
X81944209Y-13926934D01*
X81261126Y-14158013D02*
X81118775Y-14689273D01*
X81261126Y-14158013D02*
X81403476Y-13626754D01*
X80874756Y-14054486D02*
X81261126Y-14158013D01*
G04 #@! TO.C,D17*
X99147406Y-21552700D02*
X99580419Y-21802700D01*
X98947406Y-21899110D02*
X98627791Y-21252700D01*
X99347406Y-21206290D02*
X98947406Y-21899110D01*
X98627791Y-21252700D02*
X99347406Y-21206290D01*
X98627791Y-21252700D02*
X98352791Y-21729014D01*
X98627791Y-21252700D02*
X98902791Y-20776386D01*
X98281381Y-21052700D02*
X98627791Y-21252700D01*
G04 #@! TO.C,D18*
X113990777Y-33024577D02*
X114344330Y-33378130D01*
X113707934Y-33307419D02*
X113566513Y-32600313D01*
X114273619Y-32741734D02*
X113707934Y-33307419D01*
X113566513Y-32600313D02*
X114273619Y-32741734D01*
X113566513Y-32600313D02*
X113177604Y-32989221D01*
X113566513Y-32600313D02*
X113955421Y-32211404D01*
X113283670Y-32317470D02*
X113566513Y-32600313D01*
D12*
G04 #@! TO.C,MCU2*
X103610000Y49730000D02*
X103610000Y16710000D01*
X103610000Y16710000D02*
X121390000Y16710000D01*
X121390000Y16710000D02*
X121390000Y49730000D01*
X121390000Y49730000D02*
X103610000Y49730000D01*
X106150000Y47190000D02*
X106150000Y44650000D01*
X106150000Y47190000D02*
X103610000Y47190000D01*
X106150000Y44650000D02*
X103610000Y44650000D01*
G04 #@! TD*
G04 #@! TO.C,MCU2*
X107147619Y45558095D02*
X106880952Y45939047D01*
X106690476Y45558095D02*
X106690476Y46358095D01*
X106995238Y46358095D01*
X107071428Y46320000D01*
X107109523Y46281904D01*
X107147619Y46205714D01*
X107147619Y46091428D01*
X107109523Y46015238D01*
X107071428Y45977142D01*
X106995238Y45939047D01*
X106690476Y45939047D01*
X107452380Y45786666D02*
X107833333Y45786666D01*
X107376190Y45558095D02*
X107642857Y46358095D01*
X107909523Y45558095D01*
X108100000Y46358095D02*
X108290476Y45558095D01*
X108442857Y46129523D01*
X108595238Y45558095D01*
X108785714Y46358095D01*
X107090476Y43780000D02*
X107014285Y43818095D01*
X106900000Y43818095D01*
X106785714Y43780000D01*
X106709523Y43703809D01*
X106671428Y43627619D01*
X106633333Y43475238D01*
X106633333Y43360952D01*
X106671428Y43208571D01*
X106709523Y43132380D01*
X106785714Y43056190D01*
X106900000Y43018095D01*
X106976190Y43018095D01*
X107090476Y43056190D01*
X107128571Y43094285D01*
X107128571Y43360952D01*
X106976190Y43360952D01*
X107471428Y43018095D02*
X107471428Y43818095D01*
X107928571Y43018095D01*
X107928571Y43818095D01*
X108309523Y43018095D02*
X108309523Y43818095D01*
X108500000Y43818095D01*
X108614285Y43780000D01*
X108690476Y43703809D01*
X108728571Y43627619D01*
X108766666Y43475238D01*
X108766666Y43360952D01*
X108728571Y43208571D01*
X108690476Y43132380D01*
X108614285Y43056190D01*
X108500000Y43018095D01*
X108309523Y43018095D01*
X107261904Y40478095D02*
X106995238Y40859047D01*
X106804761Y40478095D02*
X106804761Y41278095D01*
X107109523Y41278095D01*
X107185714Y41240000D01*
X107223809Y41201904D01*
X107261904Y41125714D01*
X107261904Y41011428D01*
X107223809Y40935238D01*
X107185714Y40897142D01*
X107109523Y40859047D01*
X106804761Y40859047D01*
X107566666Y40516190D02*
X107680952Y40478095D01*
X107871428Y40478095D01*
X107947619Y40516190D01*
X107985714Y40554285D01*
X108023809Y40630476D01*
X108023809Y40706666D01*
X107985714Y40782857D01*
X107947619Y40820952D01*
X107871428Y40859047D01*
X107719047Y40897142D01*
X107642857Y40935238D01*
X107604761Y40973333D01*
X107566666Y41049523D01*
X107566666Y41125714D01*
X107604761Y41201904D01*
X107642857Y41240000D01*
X107719047Y41278095D01*
X107909523Y41278095D01*
X108023809Y41240000D01*
X108252380Y41278095D02*
X108709523Y41278095D01*
X108480952Y40478095D02*
X108480952Y41278095D01*
X106633333Y38738095D02*
X106900000Y37938095D01*
X107166666Y38738095D01*
X107890476Y38014285D02*
X107852380Y37976190D01*
X107738095Y37938095D01*
X107661904Y37938095D01*
X107547619Y37976190D01*
X107471428Y38052380D01*
X107433333Y38128571D01*
X107395238Y38280952D01*
X107395238Y38395238D01*
X107433333Y38547619D01*
X107471428Y38623809D01*
X107547619Y38700000D01*
X107661904Y38738095D01*
X107738095Y38738095D01*
X107852380Y38700000D01*
X107890476Y38661904D01*
X108690476Y38014285D02*
X108652380Y37976190D01*
X108538095Y37938095D01*
X108461904Y37938095D01*
X108347619Y37976190D01*
X108271428Y38052380D01*
X108233333Y38128571D01*
X108195238Y38280952D01*
X108195238Y38395238D01*
X108233333Y38547619D01*
X108271428Y38623809D01*
X108347619Y38700000D01*
X108461904Y38738095D01*
X108538095Y38738095D01*
X108652380Y38700000D01*
X108690476Y38661904D01*
X106728571Y35398095D02*
X106728571Y36198095D01*
X107033333Y36198095D01*
X107109523Y36160000D01*
X107147619Y36121904D01*
X107185714Y36045714D01*
X107185714Y35931428D01*
X107147619Y35855238D01*
X107109523Y35817142D01*
X107033333Y35779047D01*
X106728571Y35779047D01*
X107490476Y36121904D02*
X107528571Y36160000D01*
X107604761Y36198095D01*
X107795238Y36198095D01*
X107871428Y36160000D01*
X107909523Y36121904D01*
X107947619Y36045714D01*
X107947619Y35969523D01*
X107909523Y35855238D01*
X107452380Y35398095D01*
X107947619Y35398095D01*
X108709523Y35398095D02*
X108252380Y35398095D01*
X108480952Y35398095D02*
X108480952Y36198095D01*
X108404761Y36083809D01*
X108328571Y36007619D01*
X108252380Y35969523D01*
X106728571Y32858095D02*
X106728571Y33658095D01*
X107033333Y33658095D01*
X107109523Y33620000D01*
X107147619Y33581904D01*
X107185714Y33505714D01*
X107185714Y33391428D01*
X107147619Y33315238D01*
X107109523Y33277142D01*
X107033333Y33239047D01*
X106728571Y33239047D01*
X107490476Y33581904D02*
X107528571Y33620000D01*
X107604761Y33658095D01*
X107795238Y33658095D01*
X107871428Y33620000D01*
X107909523Y33581904D01*
X107947619Y33505714D01*
X107947619Y33429523D01*
X107909523Y33315238D01*
X107452380Y32858095D01*
X107947619Y32858095D01*
X108442857Y33658095D02*
X108519047Y33658095D01*
X108595238Y33620000D01*
X108633333Y33581904D01*
X108671428Y33505714D01*
X108709523Y33353333D01*
X108709523Y33162857D01*
X108671428Y33010476D01*
X108633333Y32934285D01*
X108595238Y32896190D01*
X108519047Y32858095D01*
X108442857Y32858095D01*
X108366666Y32896190D01*
X108328571Y32934285D01*
X108290476Y33010476D01*
X108252380Y33162857D01*
X108252380Y33353333D01*
X108290476Y33505714D01*
X108328571Y33581904D01*
X108366666Y33620000D01*
X108442857Y33658095D01*
X106728571Y30318095D02*
X106728571Y31118095D01*
X107033333Y31118095D01*
X107109523Y31080000D01*
X107147619Y31041904D01*
X107185714Y30965714D01*
X107185714Y30851428D01*
X107147619Y30775238D01*
X107109523Y30737142D01*
X107033333Y30699047D01*
X106728571Y30699047D01*
X107947619Y30318095D02*
X107490476Y30318095D01*
X107719047Y30318095D02*
X107719047Y31118095D01*
X107642857Y31003809D01*
X107566666Y30927619D01*
X107490476Y30889523D01*
X108328571Y30318095D02*
X108480952Y30318095D01*
X108557142Y30356190D01*
X108595238Y30394285D01*
X108671428Y30508571D01*
X108709523Y30660952D01*
X108709523Y30965714D01*
X108671428Y31041904D01*
X108633333Y31080000D01*
X108557142Y31118095D01*
X108404761Y31118095D01*
X108328571Y31080000D01*
X108290476Y31041904D01*
X108252380Y30965714D01*
X108252380Y30775238D01*
X108290476Y30699047D01*
X108328571Y30660952D01*
X108404761Y30622857D01*
X108557142Y30622857D01*
X108633333Y30660952D01*
X108671428Y30699047D01*
X108709523Y30775238D01*
X106728571Y27778095D02*
X106728571Y28578095D01*
X107033333Y28578095D01*
X107109523Y28540000D01*
X107147619Y28501904D01*
X107185714Y28425714D01*
X107185714Y28311428D01*
X107147619Y28235238D01*
X107109523Y28197142D01*
X107033333Y28159047D01*
X106728571Y28159047D01*
X107947619Y27778095D02*
X107490476Y27778095D01*
X107719047Y27778095D02*
X107719047Y28578095D01*
X107642857Y28463809D01*
X107566666Y28387619D01*
X107490476Y28349523D01*
X108404761Y28235238D02*
X108328571Y28273333D01*
X108290476Y28311428D01*
X108252380Y28387619D01*
X108252380Y28425714D01*
X108290476Y28501904D01*
X108328571Y28540000D01*
X108404761Y28578095D01*
X108557142Y28578095D01*
X108633333Y28540000D01*
X108671428Y28501904D01*
X108709523Y28425714D01*
X108709523Y28387619D01*
X108671428Y28311428D01*
X108633333Y28273333D01*
X108557142Y28235238D01*
X108404761Y28235238D01*
X108328571Y28197142D01*
X108290476Y28159047D01*
X108252380Y28082857D01*
X108252380Y27930476D01*
X108290476Y27854285D01*
X108328571Y27816190D01*
X108404761Y27778095D01*
X108557142Y27778095D01*
X108633333Y27816190D01*
X108671428Y27854285D01*
X108709523Y27930476D01*
X108709523Y28082857D01*
X108671428Y28159047D01*
X108633333Y28197142D01*
X108557142Y28235238D01*
X106728571Y25238095D02*
X106728571Y26038095D01*
X107033333Y26038095D01*
X107109523Y26000000D01*
X107147619Y25961904D01*
X107185714Y25885714D01*
X107185714Y25771428D01*
X107147619Y25695238D01*
X107109523Y25657142D01*
X107033333Y25619047D01*
X106728571Y25619047D01*
X107947619Y25238095D02*
X107490476Y25238095D01*
X107719047Y25238095D02*
X107719047Y26038095D01*
X107642857Y25923809D01*
X107566666Y25847619D01*
X107490476Y25809523D01*
X108671428Y26038095D02*
X108290476Y26038095D01*
X108252380Y25657142D01*
X108290476Y25695238D01*
X108366666Y25733333D01*
X108557142Y25733333D01*
X108633333Y25695238D01*
X108671428Y25657142D01*
X108709523Y25580952D01*
X108709523Y25390476D01*
X108671428Y25314285D01*
X108633333Y25276190D01*
X108557142Y25238095D01*
X108366666Y25238095D01*
X108290476Y25276190D01*
X108252380Y25314285D01*
X106728571Y22698095D02*
X106728571Y23498095D01*
X107033333Y23498095D01*
X107109523Y23460000D01*
X107147619Y23421904D01*
X107185714Y23345714D01*
X107185714Y23231428D01*
X107147619Y23155238D01*
X107109523Y23117142D01*
X107033333Y23079047D01*
X106728571Y23079047D01*
X107947619Y22698095D02*
X107490476Y22698095D01*
X107719047Y22698095D02*
X107719047Y23498095D01*
X107642857Y23383809D01*
X107566666Y23307619D01*
X107490476Y23269523D01*
X108633333Y23231428D02*
X108633333Y22698095D01*
X108442857Y23536190D02*
X108252380Y22964761D01*
X108747619Y22964761D01*
X106728571Y20158095D02*
X106728571Y20958095D01*
X107033333Y20958095D01*
X107109523Y20920000D01*
X107147619Y20881904D01*
X107185714Y20805714D01*
X107185714Y20691428D01*
X107147619Y20615238D01*
X107109523Y20577142D01*
X107033333Y20539047D01*
X106728571Y20539047D01*
X107947619Y20158095D02*
X107490476Y20158095D01*
X107719047Y20158095D02*
X107719047Y20958095D01*
X107642857Y20843809D01*
X107566666Y20767619D01*
X107490476Y20729523D01*
X108633333Y20958095D02*
X108480952Y20958095D01*
X108404761Y20920000D01*
X108366666Y20881904D01*
X108290476Y20767619D01*
X108252380Y20615238D01*
X108252380Y20310476D01*
X108290476Y20234285D01*
X108328571Y20196190D01*
X108404761Y20158095D01*
X108557142Y20158095D01*
X108633333Y20196190D01*
X108671428Y20234285D01*
X108709523Y20310476D01*
X108709523Y20500952D01*
X108671428Y20577142D01*
X108633333Y20615238D01*
X108557142Y20653333D01*
X108404761Y20653333D01*
X108328571Y20615238D01*
X108290476Y20577142D01*
X108252380Y20500952D01*
X106728571Y17618095D02*
X106728571Y18418095D01*
X107033333Y18418095D01*
X107109523Y18380000D01*
X107147619Y18341904D01*
X107185714Y18265714D01*
X107185714Y18151428D01*
X107147619Y18075238D01*
X107109523Y18037142D01*
X107033333Y17999047D01*
X106728571Y17999047D01*
X107947619Y17618095D02*
X107490476Y17618095D01*
X107719047Y17618095D02*
X107719047Y18418095D01*
X107642857Y18303809D01*
X107566666Y18227619D01*
X107490476Y18189523D01*
X108442857Y18418095D02*
X108519047Y18418095D01*
X108595238Y18380000D01*
X108633333Y18341904D01*
X108671428Y18265714D01*
X108709523Y18113333D01*
X108709523Y17922857D01*
X108671428Y17770476D01*
X108633333Y17694285D01*
X108595238Y17656190D01*
X108519047Y17618095D01*
X108442857Y17618095D01*
X108366666Y17656190D01*
X108328571Y17694285D01*
X108290476Y17770476D01*
X108252380Y17922857D01*
X108252380Y18113333D01*
X108290476Y18265714D01*
X108328571Y18341904D01*
X108366666Y18380000D01*
X108442857Y18418095D01*
X116328571Y45558095D02*
X116328571Y46358095D01*
X116633333Y46358095D01*
X116709523Y46320000D01*
X116747619Y46281904D01*
X116785714Y46205714D01*
X116785714Y46091428D01*
X116747619Y46015238D01*
X116709523Y45977142D01*
X116633333Y45939047D01*
X116328571Y45939047D01*
X117280952Y46358095D02*
X117357142Y46358095D01*
X117433333Y46320000D01*
X117471428Y46281904D01*
X117509523Y46205714D01*
X117547619Y46053333D01*
X117547619Y45862857D01*
X117509523Y45710476D01*
X117471428Y45634285D01*
X117433333Y45596190D01*
X117357142Y45558095D01*
X117280952Y45558095D01*
X117204761Y45596190D01*
X117166666Y45634285D01*
X117128571Y45710476D01*
X117090476Y45862857D01*
X117090476Y46053333D01*
X117128571Y46205714D01*
X117166666Y46281904D01*
X117204761Y46320000D01*
X117280952Y46358095D01*
X118309523Y45558095D02*
X117852380Y45558095D01*
X118080952Y45558095D02*
X118080952Y46358095D01*
X118004761Y46243809D01*
X117928571Y46167619D01*
X117852380Y46129523D01*
X116328571Y43018095D02*
X116328571Y43818095D01*
X116633333Y43818095D01*
X116709523Y43780000D01*
X116747619Y43741904D01*
X116785714Y43665714D01*
X116785714Y43551428D01*
X116747619Y43475238D01*
X116709523Y43437142D01*
X116633333Y43399047D01*
X116328571Y43399047D01*
X117280952Y43818095D02*
X117357142Y43818095D01*
X117433333Y43780000D01*
X117471428Y43741904D01*
X117509523Y43665714D01*
X117547619Y43513333D01*
X117547619Y43322857D01*
X117509523Y43170476D01*
X117471428Y43094285D01*
X117433333Y43056190D01*
X117357142Y43018095D01*
X117280952Y43018095D01*
X117204761Y43056190D01*
X117166666Y43094285D01*
X117128571Y43170476D01*
X117090476Y43322857D01*
X117090476Y43513333D01*
X117128571Y43665714D01*
X117166666Y43741904D01*
X117204761Y43780000D01*
X117280952Y43818095D01*
X118042857Y43818095D02*
X118119047Y43818095D01*
X118195238Y43780000D01*
X118233333Y43741904D01*
X118271428Y43665714D01*
X118309523Y43513333D01*
X118309523Y43322857D01*
X118271428Y43170476D01*
X118233333Y43094285D01*
X118195238Y43056190D01*
X118119047Y43018095D01*
X118042857Y43018095D01*
X117966666Y43056190D01*
X117928571Y43094285D01*
X117890476Y43170476D01*
X117852380Y43322857D01*
X117852380Y43513333D01*
X117890476Y43665714D01*
X117928571Y43741904D01*
X117966666Y43780000D01*
X118042857Y43818095D01*
X116690476Y41240000D02*
X116614285Y41278095D01*
X116500000Y41278095D01*
X116385714Y41240000D01*
X116309523Y41163809D01*
X116271428Y41087619D01*
X116233333Y40935238D01*
X116233333Y40820952D01*
X116271428Y40668571D01*
X116309523Y40592380D01*
X116385714Y40516190D01*
X116500000Y40478095D01*
X116576190Y40478095D01*
X116690476Y40516190D01*
X116728571Y40554285D01*
X116728571Y40820952D01*
X116576190Y40820952D01*
X117071428Y40478095D02*
X117071428Y41278095D01*
X117528571Y40478095D01*
X117528571Y41278095D01*
X117909523Y40478095D02*
X117909523Y41278095D01*
X118100000Y41278095D01*
X118214285Y41240000D01*
X118290476Y41163809D01*
X118328571Y41087619D01*
X118366666Y40935238D01*
X118366666Y40820952D01*
X118328571Y40668571D01*
X118290476Y40592380D01*
X118214285Y40516190D01*
X118100000Y40478095D01*
X117909523Y40478095D01*
X116690476Y38700000D02*
X116614285Y38738095D01*
X116500000Y38738095D01*
X116385714Y38700000D01*
X116309523Y38623809D01*
X116271428Y38547619D01*
X116233333Y38395238D01*
X116233333Y38280952D01*
X116271428Y38128571D01*
X116309523Y38052380D01*
X116385714Y37976190D01*
X116500000Y37938095D01*
X116576190Y37938095D01*
X116690476Y37976190D01*
X116728571Y38014285D01*
X116728571Y38280952D01*
X116576190Y38280952D01*
X117071428Y37938095D02*
X117071428Y38738095D01*
X117528571Y37938095D01*
X117528571Y38738095D01*
X117909523Y37938095D02*
X117909523Y38738095D01*
X118100000Y38738095D01*
X118214285Y38700000D01*
X118290476Y38623809D01*
X118328571Y38547619D01*
X118366666Y38395238D01*
X118366666Y38280952D01*
X118328571Y38128571D01*
X118290476Y38052380D01*
X118214285Y37976190D01*
X118100000Y37938095D01*
X117909523Y37938095D01*
X116328571Y35398095D02*
X116328571Y36198095D01*
X116633333Y36198095D01*
X116709523Y36160000D01*
X116747619Y36121904D01*
X116785714Y36045714D01*
X116785714Y35931428D01*
X116747619Y35855238D01*
X116709523Y35817142D01*
X116633333Y35779047D01*
X116328571Y35779047D01*
X117280952Y36198095D02*
X117357142Y36198095D01*
X117433333Y36160000D01*
X117471428Y36121904D01*
X117509523Y36045714D01*
X117547619Y35893333D01*
X117547619Y35702857D01*
X117509523Y35550476D01*
X117471428Y35474285D01*
X117433333Y35436190D01*
X117357142Y35398095D01*
X117280952Y35398095D01*
X117204761Y35436190D01*
X117166666Y35474285D01*
X117128571Y35550476D01*
X117090476Y35702857D01*
X117090476Y35893333D01*
X117128571Y36045714D01*
X117166666Y36121904D01*
X117204761Y36160000D01*
X117280952Y36198095D01*
X117852380Y36121904D02*
X117890476Y36160000D01*
X117966666Y36198095D01*
X118157142Y36198095D01*
X118233333Y36160000D01*
X118271428Y36121904D01*
X118309523Y36045714D01*
X118309523Y35969523D01*
X118271428Y35855238D01*
X117814285Y35398095D01*
X118309523Y35398095D01*
X116328571Y32858095D02*
X116328571Y33658095D01*
X116633333Y33658095D01*
X116709523Y33620000D01*
X116747619Y33581904D01*
X116785714Y33505714D01*
X116785714Y33391428D01*
X116747619Y33315238D01*
X116709523Y33277142D01*
X116633333Y33239047D01*
X116328571Y33239047D01*
X117280952Y33658095D02*
X117357142Y33658095D01*
X117433333Y33620000D01*
X117471428Y33581904D01*
X117509523Y33505714D01*
X117547619Y33353333D01*
X117547619Y33162857D01*
X117509523Y33010476D01*
X117471428Y32934285D01*
X117433333Y32896190D01*
X117357142Y32858095D01*
X117280952Y32858095D01*
X117204761Y32896190D01*
X117166666Y32934285D01*
X117128571Y33010476D01*
X117090476Y33162857D01*
X117090476Y33353333D01*
X117128571Y33505714D01*
X117166666Y33581904D01*
X117204761Y33620000D01*
X117280952Y33658095D01*
X117814285Y33658095D02*
X118309523Y33658095D01*
X118042857Y33353333D01*
X118157142Y33353333D01*
X118233333Y33315238D01*
X118271428Y33277142D01*
X118309523Y33200952D01*
X118309523Y33010476D01*
X118271428Y32934285D01*
X118233333Y32896190D01*
X118157142Y32858095D01*
X117928571Y32858095D01*
X117852380Y32896190D01*
X117814285Y32934285D01*
X116328571Y30318095D02*
X116328571Y31118095D01*
X116633333Y31118095D01*
X116709523Y31080000D01*
X116747619Y31041904D01*
X116785714Y30965714D01*
X116785714Y30851428D01*
X116747619Y30775238D01*
X116709523Y30737142D01*
X116633333Y30699047D01*
X116328571Y30699047D01*
X117280952Y31118095D02*
X117357142Y31118095D01*
X117433333Y31080000D01*
X117471428Y31041904D01*
X117509523Y30965714D01*
X117547619Y30813333D01*
X117547619Y30622857D01*
X117509523Y30470476D01*
X117471428Y30394285D01*
X117433333Y30356190D01*
X117357142Y30318095D01*
X117280952Y30318095D01*
X117204761Y30356190D01*
X117166666Y30394285D01*
X117128571Y30470476D01*
X117090476Y30622857D01*
X117090476Y30813333D01*
X117128571Y30965714D01*
X117166666Y31041904D01*
X117204761Y31080000D01*
X117280952Y31118095D01*
X118233333Y30851428D02*
X118233333Y30318095D01*
X118042857Y31156190D02*
X117852380Y30584761D01*
X118347619Y30584761D01*
X116328571Y27778095D02*
X116328571Y28578095D01*
X116633333Y28578095D01*
X116709523Y28540000D01*
X116747619Y28501904D01*
X116785714Y28425714D01*
X116785714Y28311428D01*
X116747619Y28235238D01*
X116709523Y28197142D01*
X116633333Y28159047D01*
X116328571Y28159047D01*
X117280952Y28578095D02*
X117357142Y28578095D01*
X117433333Y28540000D01*
X117471428Y28501904D01*
X117509523Y28425714D01*
X117547619Y28273333D01*
X117547619Y28082857D01*
X117509523Y27930476D01*
X117471428Y27854285D01*
X117433333Y27816190D01*
X117357142Y27778095D01*
X117280952Y27778095D01*
X117204761Y27816190D01*
X117166666Y27854285D01*
X117128571Y27930476D01*
X117090476Y28082857D01*
X117090476Y28273333D01*
X117128571Y28425714D01*
X117166666Y28501904D01*
X117204761Y28540000D01*
X117280952Y28578095D01*
X118271428Y28578095D02*
X117890476Y28578095D01*
X117852380Y28197142D01*
X117890476Y28235238D01*
X117966666Y28273333D01*
X118157142Y28273333D01*
X118233333Y28235238D01*
X118271428Y28197142D01*
X118309523Y28120952D01*
X118309523Y27930476D01*
X118271428Y27854285D01*
X118233333Y27816190D01*
X118157142Y27778095D01*
X117966666Y27778095D01*
X117890476Y27816190D01*
X117852380Y27854285D01*
X116328571Y25238095D02*
X116328571Y26038095D01*
X116633333Y26038095D01*
X116709523Y26000000D01*
X116747619Y25961904D01*
X116785714Y25885714D01*
X116785714Y25771428D01*
X116747619Y25695238D01*
X116709523Y25657142D01*
X116633333Y25619047D01*
X116328571Y25619047D01*
X117280952Y26038095D02*
X117357142Y26038095D01*
X117433333Y26000000D01*
X117471428Y25961904D01*
X117509523Y25885714D01*
X117547619Y25733333D01*
X117547619Y25542857D01*
X117509523Y25390476D01*
X117471428Y25314285D01*
X117433333Y25276190D01*
X117357142Y25238095D01*
X117280952Y25238095D01*
X117204761Y25276190D01*
X117166666Y25314285D01*
X117128571Y25390476D01*
X117090476Y25542857D01*
X117090476Y25733333D01*
X117128571Y25885714D01*
X117166666Y25961904D01*
X117204761Y26000000D01*
X117280952Y26038095D01*
X118233333Y26038095D02*
X118080952Y26038095D01*
X118004761Y26000000D01*
X117966666Y25961904D01*
X117890476Y25847619D01*
X117852380Y25695238D01*
X117852380Y25390476D01*
X117890476Y25314285D01*
X117928571Y25276190D01*
X118004761Y25238095D01*
X118157142Y25238095D01*
X118233333Y25276190D01*
X118271428Y25314285D01*
X118309523Y25390476D01*
X118309523Y25580952D01*
X118271428Y25657142D01*
X118233333Y25695238D01*
X118157142Y25733333D01*
X118004761Y25733333D01*
X117928571Y25695238D01*
X117890476Y25657142D01*
X117852380Y25580952D01*
X116328571Y22698095D02*
X116328571Y23498095D01*
X116633333Y23498095D01*
X116709523Y23460000D01*
X116747619Y23421904D01*
X116785714Y23345714D01*
X116785714Y23231428D01*
X116747619Y23155238D01*
X116709523Y23117142D01*
X116633333Y23079047D01*
X116328571Y23079047D01*
X117280952Y23498095D02*
X117357142Y23498095D01*
X117433333Y23460000D01*
X117471428Y23421904D01*
X117509523Y23345714D01*
X117547619Y23193333D01*
X117547619Y23002857D01*
X117509523Y22850476D01*
X117471428Y22774285D01*
X117433333Y22736190D01*
X117357142Y22698095D01*
X117280952Y22698095D01*
X117204761Y22736190D01*
X117166666Y22774285D01*
X117128571Y22850476D01*
X117090476Y23002857D01*
X117090476Y23193333D01*
X117128571Y23345714D01*
X117166666Y23421904D01*
X117204761Y23460000D01*
X117280952Y23498095D01*
X117814285Y23498095D02*
X118347619Y23498095D01*
X118004761Y22698095D01*
X116328571Y20158095D02*
X116328571Y20958095D01*
X116633333Y20958095D01*
X116709523Y20920000D01*
X116747619Y20881904D01*
X116785714Y20805714D01*
X116785714Y20691428D01*
X116747619Y20615238D01*
X116709523Y20577142D01*
X116633333Y20539047D01*
X116328571Y20539047D01*
X117280952Y20958095D02*
X117357142Y20958095D01*
X117433333Y20920000D01*
X117471428Y20881904D01*
X117509523Y20805714D01*
X117547619Y20653333D01*
X117547619Y20462857D01*
X117509523Y20310476D01*
X117471428Y20234285D01*
X117433333Y20196190D01*
X117357142Y20158095D01*
X117280952Y20158095D01*
X117204761Y20196190D01*
X117166666Y20234285D01*
X117128571Y20310476D01*
X117090476Y20462857D01*
X117090476Y20653333D01*
X117128571Y20805714D01*
X117166666Y20881904D01*
X117204761Y20920000D01*
X117280952Y20958095D01*
X118004761Y20615238D02*
X117928571Y20653333D01*
X117890476Y20691428D01*
X117852380Y20767619D01*
X117852380Y20805714D01*
X117890476Y20881904D01*
X117928571Y20920000D01*
X118004761Y20958095D01*
X118157142Y20958095D01*
X118233333Y20920000D01*
X118271428Y20881904D01*
X118309523Y20805714D01*
X118309523Y20767619D01*
X118271428Y20691428D01*
X118233333Y20653333D01*
X118157142Y20615238D01*
X118004761Y20615238D01*
X117928571Y20577142D01*
X117890476Y20539047D01*
X117852380Y20462857D01*
X117852380Y20310476D01*
X117890476Y20234285D01*
X117928571Y20196190D01*
X118004761Y20158095D01*
X118157142Y20158095D01*
X118233333Y20196190D01*
X118271428Y20234285D01*
X118309523Y20310476D01*
X118309523Y20462857D01*
X118271428Y20539047D01*
X118233333Y20577142D01*
X118157142Y20615238D01*
X116328571Y17618095D02*
X116328571Y18418095D01*
X116633333Y18418095D01*
X116709523Y18380000D01*
X116747619Y18341904D01*
X116785714Y18265714D01*
X116785714Y18151428D01*
X116747619Y18075238D01*
X116709523Y18037142D01*
X116633333Y17999047D01*
X116328571Y17999047D01*
X117280952Y18418095D02*
X117357142Y18418095D01*
X117433333Y18380000D01*
X117471428Y18341904D01*
X117509523Y18265714D01*
X117547619Y18113333D01*
X117547619Y17922857D01*
X117509523Y17770476D01*
X117471428Y17694285D01*
X117433333Y17656190D01*
X117357142Y17618095D01*
X117280952Y17618095D01*
X117204761Y17656190D01*
X117166666Y17694285D01*
X117128571Y17770476D01*
X117090476Y17922857D01*
X117090476Y18113333D01*
X117128571Y18265714D01*
X117166666Y18341904D01*
X117204761Y18380000D01*
X117280952Y18418095D01*
X117928571Y17618095D02*
X118080952Y17618095D01*
X118157142Y17656190D01*
X118195238Y17694285D01*
X118271428Y17808571D01*
X118309523Y17960952D01*
X118309523Y18265714D01*
X118271428Y18341904D01*
X118233333Y18380000D01*
X118157142Y18418095D01*
X118004761Y18418095D01*
X117928571Y18380000D01*
X117890476Y18341904D01*
X117852380Y18265714D01*
X117852380Y18075238D01*
X117890476Y17999047D01*
X117928571Y17960952D01*
X118004761Y17922857D01*
X118157142Y17922857D01*
X118233333Y17960952D01*
X118271428Y17999047D01*
X118309523Y18075238D01*
G04 #@! TD*
M02*
