G04 #@! TF.GenerationSoftware,KiCad,Pcbnew,5.1.5+dfsg1-2build2*
G04 #@! TF.CreationDate,2021-10-14T21:44:16+00:00*
G04 #@! TF.ProjectId,board,626f6172-642e-46b6-9963-61645f706362,VERSION_HERE*
G04 #@! TF.SameCoordinates,Original*
G04 #@! TF.FileFunction,Copper,L2,Bot*
G04 #@! TF.FilePolarity,Positive*
%FSLAX46Y46*%
G04 Gerber Fmt 4.6, Leading zero omitted, Abs format (unit mm)*
G04 Created by KiCad (PCBNEW 5.1.5+dfsg1-2build2) date 2021-10-14 21:44:16*
%MOMM*%
%LPD*%
G04 APERTURE LIST*
G04 #@! TA.AperFunction,Profile*
%ADD10C,0.150000*%
G04 #@! TD*
G04 #@! TA.AperFunction,SMDPad,CuDef*
%ADD11R,2.600000X2.600000*%
G04 #@! TD*
G04 #@! TA.AperFunction,SMDPad,CuDef*
%ADD12R,0.900000X1.200000*%
G04 #@! TD*
G04 #@! TA.AperFunction,ComponentPad*
%ADD13C,1.905000*%
G04 #@! TD*
G04 #@! TA.AperFunction,ComponentPad*
%ADD14R,1.778000X1.778000*%
G04 #@! TD*
G04 #@! TA.AperFunction,SMDPad,CuDef*
%ADD15C,0.350000*%
G04 #@! TD*
G04 #@! TA.AperFunction,ComponentPad*
%ADD16C,0.350000*%
G04 #@! TD*
G04 #@! TA.AperFunction,ComponentPad*
%ADD17R,1.752600X1.752600*%
G04 #@! TD*
G04 #@! TA.AperFunction,ComponentPad*
%ADD18C,1.752600*%
G04 #@! TD*
G04 #@! TA.AperFunction,ComponentPad*
%ADD19O,2.200000X1.600000*%
G04 #@! TD*
G04 #@! TA.AperFunction,ViaPad*
%ADD20C,0.800000*%
G04 #@! TD*
G04 #@! TA.AperFunction,Conductor*
%ADD21C,0.250000*%
G04 #@! TD*
G04 #@! TA.AperFunction,Conductor*
%ADD22C,0.500000*%
G04 #@! TD*
G04 APERTURE END LIST*
D10*
X10000000Y-9500000D02*
X26000000Y-9500000D01*
X8000000Y-7500000D02*
X8000000Y41500000D01*
X10000000Y-9500000D02*
G75*
G02X8000000Y-7500000I0J2000000D01*
G01*
X26000000Y43500000D02*
X10000000Y43500000D01*
X8000000Y41500000D02*
G75*
G02X10000000Y43500000I2000000J0D01*
G01*
X44000000Y55400000D02*
X28000000Y55400000D01*
X26000000Y53400000D02*
G75*
G02X28000000Y55400000I2000000J0D01*
G01*
X26000000Y53400000D02*
X26000000Y43500000D01*
X64000000Y55400000D02*
X64000000Y56800000D01*
X62000000Y58800000D02*
G75*
G02X64000000Y56800000I0J-2000000D01*
G01*
X62000000Y58800000D02*
X46000000Y58800000D01*
X44000000Y56800000D02*
G75*
G02X46000000Y58800000I2000000J0D01*
G01*
X44000000Y56800000D02*
X44000000Y55400000D01*
X80000000Y55400000D02*
G75*
G02X81977391Y53699872I0J-2000000D01*
G01*
X80000000Y55400000D02*
X64000000Y55400000D01*
X98000000Y53700000D02*
G75*
G02X99994367Y51850000I0J-2000000D01*
G01*
X98000000Y53700000D02*
X82000000Y53700000D01*
X81977391Y53699872D02*
G75*
G02X82000000Y53700000I22609J-1999872D01*
G01*
X119117258Y-41686664D02*
G75*
G02X116288831Y-41686665I-1414214J1414213D01*
G01*
X119117258Y-41686665D02*
X129723860Y-31080063D01*
X129723859Y-28251636D02*
G75*
G02X129723860Y-31080063I-1414213J-1414214D01*
G01*
X122000000Y-20208734D02*
X129723860Y-28251636D01*
X116288831Y-41686665D02*
X72707107Y-16524745D01*
X72707107Y-16524745D02*
X26000000Y-9500000D01*
X122000000Y-20208734D02*
X122000000Y49850000D01*
X120000000Y51850000D02*
G75*
G02X122000000Y49850000I0J-2000000D01*
G01*
X120000000Y51850000D02*
X99994367Y51850000D01*
X29050000Y28900000D02*
G75*
G03X29050000Y28900000I-2050000J0D01*
G01*
X29050000Y0D02*
G75*
G03X29050000Y0I-2050000J0D01*
G01*
X83050000Y44200000D02*
G75*
G03X83050000Y44200000I-2050000J0D01*
G01*
X74050000Y-6120000D02*
G75*
G03X74050000Y-6120000I-2050000J0D01*
G01*
X112399134Y-22311939D02*
G75*
G03X112399134Y-22311939I-2050000J0D01*
G01*
D11*
G04 #@! TO.P,S1,1*
G04 #@! TO.N,pinky_bottom*
X14725000Y5950000D03*
G04 #@! TO.P,S1,2*
G04 #@! TO.N,P21*
X26275000Y3750000D03*
G04 #@! TD*
D12*
G04 #@! TO.P,D1,2*
G04 #@! TO.N,pinky_bottom*
X19650000Y-5000000D03*
G04 #@! TO.P,D1,1*
G04 #@! TO.N,P7*
X16350000Y-5000000D03*
D13*
G04 #@! TO.N,pinky_bottom*
X21810000Y-5000000D03*
D14*
G04 #@! TO.P,D1,2*
G04 #@! TO.N,P7*
X14190000Y-5000000D03*
G04 #@! TD*
D11*
G04 #@! TO.P,S2,1*
G04 #@! TO.N,pinky_home*
X14725000Y22950000D03*
G04 #@! TO.P,S2,2*
G04 #@! TO.N,P21*
X26275000Y20750000D03*
G04 #@! TD*
D12*
G04 #@! TO.P,D2,2*
G04 #@! TO.N,pinky_home*
X19650000Y12000000D03*
G04 #@! TO.P,D2,1*
G04 #@! TO.N,P6*
X16350000Y12000000D03*
D13*
G04 #@! TO.N,pinky_home*
X21810000Y12000000D03*
D14*
G04 #@! TO.P,D2,2*
G04 #@! TO.N,P6*
X14190000Y12000000D03*
G04 #@! TD*
D11*
G04 #@! TO.P,S3,1*
G04 #@! TO.N,pinky_top*
X14725000Y39950000D03*
G04 #@! TO.P,S3,2*
G04 #@! TO.N,P21*
X26275000Y37750000D03*
G04 #@! TD*
D12*
G04 #@! TO.P,D3,2*
G04 #@! TO.N,pinky_top*
X19650000Y29000000D03*
G04 #@! TO.P,D3,1*
G04 #@! TO.N,P5*
X16350000Y29000000D03*
D13*
G04 #@! TO.N,pinky_top*
X21810000Y29000000D03*
D14*
G04 #@! TO.P,D3,2*
G04 #@! TO.N,P5*
X14190000Y29000000D03*
G04 #@! TD*
D11*
G04 #@! TO.P,S4,1*
G04 #@! TO.N,ring_bottom*
X32725000Y17850000D03*
G04 #@! TO.P,S4,2*
G04 #@! TO.N,P20*
X44275000Y15650000D03*
G04 #@! TD*
D12*
G04 #@! TO.P,D4,2*
G04 #@! TO.N,ring_bottom*
X37650000Y6900000D03*
G04 #@! TO.P,D4,1*
G04 #@! TO.N,P7*
X34350000Y6900000D03*
D13*
G04 #@! TO.N,ring_bottom*
X39810000Y6900000D03*
D14*
G04 #@! TO.P,D4,2*
G04 #@! TO.N,P7*
X32190000Y6900000D03*
G04 #@! TD*
D11*
G04 #@! TO.P,S5,1*
G04 #@! TO.N,ring_home*
X32725000Y34850000D03*
G04 #@! TO.P,S5,2*
G04 #@! TO.N,P20*
X44275000Y32650000D03*
G04 #@! TD*
D12*
G04 #@! TO.P,D5,2*
G04 #@! TO.N,ring_home*
X37650000Y23900000D03*
G04 #@! TO.P,D5,1*
G04 #@! TO.N,P6*
X34350000Y23900000D03*
D13*
G04 #@! TO.N,ring_home*
X39810000Y23900000D03*
D14*
G04 #@! TO.P,D5,2*
G04 #@! TO.N,P6*
X32190000Y23900000D03*
G04 #@! TD*
D11*
G04 #@! TO.P,S6,1*
G04 #@! TO.N,ring_top*
X32725000Y51850000D03*
G04 #@! TO.P,S6,2*
G04 #@! TO.N,P20*
X44275000Y49650000D03*
G04 #@! TD*
D12*
G04 #@! TO.P,D6,2*
G04 #@! TO.N,ring_top*
X37650000Y40900000D03*
G04 #@! TO.P,D6,1*
G04 #@! TO.N,P5*
X34350000Y40900000D03*
D13*
G04 #@! TO.N,ring_top*
X39810000Y40900000D03*
D14*
G04 #@! TO.P,D6,2*
G04 #@! TO.N,P5*
X32190000Y40900000D03*
G04 #@! TD*
D11*
G04 #@! TO.P,S7,1*
G04 #@! TO.N,middle_bottom*
X50725000Y21250000D03*
G04 #@! TO.P,S7,2*
G04 #@! TO.N,P19*
X62275000Y19050000D03*
G04 #@! TD*
D12*
G04 #@! TO.P,D7,2*
G04 #@! TO.N,middle_bottom*
X55650000Y10300000D03*
G04 #@! TO.P,D7,1*
G04 #@! TO.N,P7*
X52350000Y10300000D03*
D13*
G04 #@! TO.N,middle_bottom*
X57810000Y10300000D03*
D14*
G04 #@! TO.P,D7,2*
G04 #@! TO.N,P7*
X50190000Y10300000D03*
G04 #@! TD*
D11*
G04 #@! TO.P,S8,1*
G04 #@! TO.N,middle_home*
X50725000Y38250000D03*
G04 #@! TO.P,S8,2*
G04 #@! TO.N,P19*
X62275000Y36050000D03*
G04 #@! TD*
D12*
G04 #@! TO.P,D8,2*
G04 #@! TO.N,middle_home*
X55650000Y27300000D03*
G04 #@! TO.P,D8,1*
G04 #@! TO.N,P6*
X52350000Y27300000D03*
D13*
G04 #@! TO.N,middle_home*
X57810000Y27300000D03*
D14*
G04 #@! TO.P,D8,2*
G04 #@! TO.N,P6*
X50190000Y27300000D03*
G04 #@! TD*
D11*
G04 #@! TO.P,S9,1*
G04 #@! TO.N,middle_top*
X50725000Y55250000D03*
G04 #@! TO.P,S9,2*
G04 #@! TO.N,P19*
X62275000Y53050000D03*
G04 #@! TD*
D12*
G04 #@! TO.P,D9,2*
G04 #@! TO.N,middle_top*
X55650000Y44300000D03*
G04 #@! TO.P,D9,1*
G04 #@! TO.N,P5*
X52350000Y44300000D03*
D13*
G04 #@! TO.N,middle_top*
X57810000Y44300000D03*
D14*
G04 #@! TO.P,D9,2*
G04 #@! TO.N,P5*
X50190000Y44300000D03*
G04 #@! TD*
D11*
G04 #@! TO.P,S10,1*
G04 #@! TO.N,index_bottom*
X68725000Y17850000D03*
G04 #@! TO.P,S10,2*
G04 #@! TO.N,P18*
X80275000Y15650000D03*
G04 #@! TD*
D12*
G04 #@! TO.P,D10,2*
G04 #@! TO.N,index_bottom*
X73650000Y6900000D03*
G04 #@! TO.P,D10,1*
G04 #@! TO.N,P7*
X70350000Y6900000D03*
D13*
G04 #@! TO.N,index_bottom*
X75810000Y6900000D03*
D14*
G04 #@! TO.P,D10,2*
G04 #@! TO.N,P7*
X68190000Y6900000D03*
G04 #@! TD*
D11*
G04 #@! TO.P,S11,1*
G04 #@! TO.N,index_home*
X68725000Y34850000D03*
G04 #@! TO.P,S11,2*
G04 #@! TO.N,P18*
X80275000Y32650000D03*
G04 #@! TD*
D12*
G04 #@! TO.P,D11,2*
G04 #@! TO.N,index_home*
X73650000Y23900000D03*
G04 #@! TO.P,D11,1*
G04 #@! TO.N,P6*
X70350000Y23900000D03*
D13*
G04 #@! TO.N,index_home*
X75810000Y23900000D03*
D14*
G04 #@! TO.P,D11,2*
G04 #@! TO.N,P6*
X68190000Y23900000D03*
G04 #@! TD*
D11*
G04 #@! TO.P,S12,1*
G04 #@! TO.N,index_top*
X68725000Y51850000D03*
G04 #@! TO.P,S12,2*
G04 #@! TO.N,P18*
X80275000Y49650000D03*
G04 #@! TD*
D12*
G04 #@! TO.P,D12,2*
G04 #@! TO.N,index_top*
X73650000Y40900000D03*
G04 #@! TO.P,D12,1*
G04 #@! TO.N,P5*
X70350000Y40900000D03*
D13*
G04 #@! TO.N,index_top*
X75810000Y40900000D03*
D14*
G04 #@! TO.P,D12,2*
G04 #@! TO.N,P5*
X68190000Y40900000D03*
G04 #@! TD*
D11*
G04 #@! TO.P,S13,1*
G04 #@! TO.N,inner_bottom*
X86725000Y16150000D03*
G04 #@! TO.P,S13,2*
G04 #@! TO.N,P15*
X98275000Y13950000D03*
G04 #@! TD*
D12*
G04 #@! TO.P,D13,2*
G04 #@! TO.N,inner_bottom*
X91650000Y5200000D03*
G04 #@! TO.P,D13,1*
G04 #@! TO.N,P7*
X88350000Y5200000D03*
D13*
G04 #@! TO.N,inner_bottom*
X93810000Y5200000D03*
D14*
G04 #@! TO.P,D13,2*
G04 #@! TO.N,P7*
X86190000Y5200000D03*
G04 #@! TD*
D11*
G04 #@! TO.P,S14,1*
G04 #@! TO.N,inner_home*
X86725000Y33150000D03*
G04 #@! TO.P,S14,2*
G04 #@! TO.N,P15*
X98275000Y30950000D03*
G04 #@! TD*
D12*
G04 #@! TO.P,D14,2*
G04 #@! TO.N,inner_home*
X91650000Y22200000D03*
G04 #@! TO.P,D14,1*
G04 #@! TO.N,P6*
X88350000Y22200000D03*
D13*
G04 #@! TO.N,inner_home*
X93810000Y22200000D03*
D14*
G04 #@! TO.P,D14,2*
G04 #@! TO.N,P6*
X86190000Y22200000D03*
G04 #@! TD*
D11*
G04 #@! TO.P,S15,1*
G04 #@! TO.N,inner_top*
X86725000Y50150000D03*
G04 #@! TO.P,S15,2*
G04 #@! TO.N,P15*
X98275000Y47950000D03*
G04 #@! TD*
D12*
G04 #@! TO.P,D15,2*
G04 #@! TO.N,inner_top*
X91650000Y39200000D03*
G04 #@! TO.P,D15,1*
G04 #@! TO.N,P5*
X88350000Y39200000D03*
D13*
G04 #@! TO.N,inner_top*
X93810000Y39200000D03*
D14*
G04 #@! TO.P,D15,2*
G04 #@! TO.N,P5*
X86190000Y39200000D03*
G04 #@! TD*
G04 #@! TA.AperFunction,SMDPad,CuDef*
D15*
G04 #@! TO.P,S16,1*
G04 #@! TO.N,near_thumb*
G36*
X79677698Y-3743348D02*
G01*
X80350627Y-1231941D01*
X82862034Y-1904870D01*
X82189105Y-4416277D01*
X79677698Y-3743348D01*
G37*
G04 #@! TD.AperFunction*
G04 #@! TA.AperFunction,SMDPad,CuDef*
G04 #@! TO.P,S16,2*
G04 #@! TO.N,P19*
G36*
X90264740Y-8857745D02*
G01*
X90937669Y-6346338D01*
X93449076Y-7019267D01*
X92776147Y-9530674D01*
X90264740Y-8857745D01*
G37*
G04 #@! TD.AperFunction*
G04 #@! TD*
G04 #@! TA.AperFunction,SMDPad,CuDef*
G04 #@! TO.P,D16,2*
G04 #@! TO.N,near_thumb*
G36*
X82603020Y-15138737D02*
G01*
X82913603Y-13979626D01*
X83782936Y-14212563D01*
X83472353Y-15371674D01*
X82603020Y-15138737D01*
G37*
G04 #@! TD.AperFunction*
G04 #@! TA.AperFunction,SMDPad,CuDef*
G04 #@! TO.P,D16,1*
G04 #@! TO.N,P4*
G36*
X79415464Y-14284637D02*
G01*
X79726047Y-13125526D01*
X80595380Y-13358463D01*
X80284797Y-14517574D01*
X79415464Y-14284637D01*
G37*
G04 #@! TD.AperFunction*
D13*
G04 #@! TO.N,near_thumb*
X85279377Y-15234702D03*
G04 #@! TA.AperFunction,ComponentPad*
D16*
G04 #@! TO.P,D16,2*
G04 #@! TO.N,P4*
G36*
X76830225Y-13891116D02*
G01*
X77290405Y-12173700D01*
X79007821Y-12633880D01*
X78547641Y-14351296D01*
X76830225Y-13891116D01*
G37*
G04 #@! TD.AperFunction*
G04 #@! TD*
G04 #@! TA.AperFunction,SMDPad,CuDef*
D15*
G04 #@! TO.P,S17,1*
G04 #@! TO.N,home_thumb*
G36*
X99793934Y-10782982D02*
G01*
X101093934Y-8531316D01*
X103345600Y-9831316D01*
X102045600Y-12082982D01*
X99793934Y-10782982D01*
G37*
G04 #@! TD.AperFunction*
G04 #@! TA.AperFunction,SMDPad,CuDef*
G04 #@! TO.P,S17,2*
G04 #@! TO.N,P18*
G36*
X108696527Y-18463238D02*
G01*
X109996527Y-16211572D01*
X112248193Y-17511572D01*
X110948193Y-19763238D01*
X108696527Y-18463238D01*
G37*
G04 #@! TD.AperFunction*
G04 #@! TD*
G04 #@! TA.AperFunction,SMDPad,CuDef*
G04 #@! TO.P,D17,2*
G04 #@! TO.N,home_thumb*
G36*
X99670131Y-22547315D02*
G01*
X100270131Y-21508085D01*
X101049553Y-21958085D01*
X100449553Y-22997315D01*
X99670131Y-22547315D01*
G37*
G04 #@! TD.AperFunction*
G04 #@! TA.AperFunction,SMDPad,CuDef*
G04 #@! TO.P,D17,1*
G04 #@! TO.N,P4*
G36*
X96812247Y-20897315D02*
G01*
X97412247Y-19858085D01*
X98191669Y-20308085D01*
X97591669Y-21347315D01*
X96812247Y-20897315D01*
G37*
G04 #@! TD.AperFunction*
D13*
G04 #@! TO.N,home_thumb*
X102230457Y-23332700D03*
G04 #@! TA.AperFunction,ComponentPad*
D16*
G04 #@! TO.P,D17,2*
G04 #@! TO.N,P4*
G36*
X94416946Y-19848097D02*
G01*
X95305946Y-18308303D01*
X96845740Y-19197303D01*
X95956740Y-20737097D01*
X94416946Y-19848097D01*
G37*
G04 #@! TD.AperFunction*
G04 #@! TD*
G04 #@! TA.AperFunction,SMDPad,CuDef*
D15*
G04 #@! TO.P,S18,1*
G04 #@! TO.N,far_thumb*
G36*
X117402033Y-22789240D02*
G01*
X119240511Y-20950762D01*
X121078989Y-22789240D01*
X119240511Y-24627718D01*
X117402033Y-22789240D01*
G37*
G04 #@! TD.AperFunction*
G04 #@! TA.AperFunction,SMDPad,CuDef*
G04 #@! TO.P,S18,2*
G04 #@! TO.N,P15*
G36*
X124013481Y-32511958D02*
G01*
X125851959Y-30673480D01*
X127690437Y-32511958D01*
X125851959Y-34350436D01*
X124013481Y-32511958D01*
G37*
G04 #@! TD.AperFunction*
G04 #@! TD*
G04 #@! TA.AperFunction,SMDPad,CuDef*
G04 #@! TO.P,D18,2*
G04 #@! TO.N,far_thumb*
G36*
X114238264Y-34120592D02*
G01*
X115086792Y-33272064D01*
X115723188Y-33908460D01*
X114874660Y-34756988D01*
X114238264Y-34120592D01*
G37*
G04 #@! TD.AperFunction*
G04 #@! TA.AperFunction,SMDPad,CuDef*
G04 #@! TO.P,D18,1*
G04 #@! TO.N,P4*
G36*
X111904812Y-31787140D02*
G01*
X112753340Y-30938612D01*
X113389736Y-31575008D01*
X112541208Y-32423536D01*
X111904812Y-31787140D01*
G37*
G04 #@! TD.AperFunction*
D13*
G04 #@! TO.N,far_thumb*
X116508077Y-35541877D03*
G04 #@! TA.AperFunction,ComponentPad*
D16*
G04 #@! TO.P,D18,2*
G04 #@! TO.N,P4*
G36*
X109862687Y-30153723D02*
G01*
X111119923Y-28896487D01*
X112377159Y-30153723D01*
X111119923Y-31410959D01*
X109862687Y-30153723D01*
G37*
G04 #@! TD.AperFunction*
G04 #@! TD*
D17*
G04 #@! TO.P,MCU1,1*
G04 #@! TO.N,RAW*
X117620000Y47170000D03*
D18*
G04 #@! TO.P,MCU1,2*
G04 #@! TO.N,GND*
X117620000Y44630000D03*
G04 #@! TO.P,MCU1,3*
G04 #@! TO.N,RST*
X117620000Y42090000D03*
G04 #@! TO.P,MCU1,4*
G04 #@! TO.N,VCC*
X117620000Y39550000D03*
G04 #@! TO.P,MCU1,5*
G04 #@! TO.N,P21*
X117620000Y37010000D03*
G04 #@! TO.P,MCU1,6*
G04 #@! TO.N,P20*
X117620000Y34470000D03*
G04 #@! TO.P,MCU1,7*
G04 #@! TO.N,P19*
X117620000Y31930000D03*
G04 #@! TO.P,MCU1,8*
G04 #@! TO.N,P18*
X117620000Y29390000D03*
G04 #@! TO.P,MCU1,9*
G04 #@! TO.N,P15*
X117620000Y26850000D03*
G04 #@! TO.P,MCU1,10*
G04 #@! TO.N,P14*
X117620000Y24310000D03*
G04 #@! TO.P,MCU1,11*
G04 #@! TO.N,P16*
X117620000Y21770000D03*
G04 #@! TO.P,MCU1,12*
G04 #@! TO.N,P10*
X117620000Y19230000D03*
G04 #@! TO.P,MCU1,13*
G04 #@! TO.N,P1*
X102380000Y47170000D03*
G04 #@! TO.P,MCU1,14*
G04 #@! TO.N,P0*
X102380000Y44630000D03*
G04 #@! TO.P,MCU1,15*
G04 #@! TO.N,GND*
X102380000Y42090000D03*
G04 #@! TO.P,MCU1,16*
X102380000Y39550000D03*
G04 #@! TO.P,MCU1,17*
G04 #@! TO.N,P2*
X102380000Y37010000D03*
G04 #@! TO.P,MCU1,18*
G04 #@! TO.N,P3*
X102380000Y34470000D03*
G04 #@! TO.P,MCU1,19*
G04 #@! TO.N,P4*
X102380000Y31930000D03*
G04 #@! TO.P,MCU1,20*
G04 #@! TO.N,P5*
X102380000Y29390000D03*
G04 #@! TO.P,MCU1,21*
G04 #@! TO.N,P6*
X102380000Y26850000D03*
G04 #@! TO.P,MCU1,22*
G04 #@! TO.N,P7*
X102380000Y24310000D03*
G04 #@! TO.P,MCU1,23*
G04 #@! TO.N,P8*
X102380000Y21770000D03*
G04 #@! TO.P,MCU1,24*
G04 #@! TO.N,P9*
X102380000Y19230000D03*
G04 #@! TD*
D17*
G04 #@! TO.P,MCU2,1*
G04 #@! TO.N,RAW*
X104880000Y45920000D03*
D18*
G04 #@! TO.P,MCU2,2*
G04 #@! TO.N,GND*
X104880000Y43380000D03*
G04 #@! TO.P,MCU2,3*
G04 #@! TO.N,RST*
X104880000Y40840000D03*
G04 #@! TO.P,MCU2,4*
G04 #@! TO.N,VCC*
X104880000Y38300000D03*
G04 #@! TO.P,MCU2,5*
G04 #@! TO.N,P21*
X104880000Y35760000D03*
G04 #@! TO.P,MCU2,6*
G04 #@! TO.N,P20*
X104880000Y33220000D03*
G04 #@! TO.P,MCU2,7*
G04 #@! TO.N,P19*
X104880000Y30680000D03*
G04 #@! TO.P,MCU2,8*
G04 #@! TO.N,P18*
X104880000Y28140000D03*
G04 #@! TO.P,MCU2,9*
G04 #@! TO.N,P15*
X104880000Y25600000D03*
G04 #@! TO.P,MCU2,10*
G04 #@! TO.N,P14*
X104880000Y23060000D03*
G04 #@! TO.P,MCU2,11*
G04 #@! TO.N,P16*
X104880000Y20520000D03*
G04 #@! TO.P,MCU2,12*
G04 #@! TO.N,P10*
X104880000Y17980000D03*
G04 #@! TO.P,MCU2,13*
G04 #@! TO.N,P1*
X120120000Y45920000D03*
G04 #@! TO.P,MCU2,14*
G04 #@! TO.N,P0*
X120120000Y43380000D03*
G04 #@! TO.P,MCU2,15*
G04 #@! TO.N,GND*
X120120000Y40840000D03*
G04 #@! TO.P,MCU2,16*
X120120000Y38300000D03*
G04 #@! TO.P,MCU2,17*
G04 #@! TO.N,P2*
X120120000Y35760000D03*
G04 #@! TO.P,MCU2,18*
G04 #@! TO.N,P3*
X120120000Y33220000D03*
G04 #@! TO.P,MCU2,19*
G04 #@! TO.N,P4*
X120120000Y30680000D03*
G04 #@! TO.P,MCU2,20*
G04 #@! TO.N,P5*
X120120000Y28140000D03*
G04 #@! TO.P,MCU2,21*
G04 #@! TO.N,P6*
X120120000Y25600000D03*
G04 #@! TO.P,MCU2,22*
G04 #@! TO.N,P7*
X120120000Y23060000D03*
G04 #@! TO.P,MCU2,23*
G04 #@! TO.N,P8*
X120120000Y20520000D03*
G04 #@! TO.P,MCU2,24*
G04 #@! TO.N,P9*
X120120000Y17980000D03*
G04 #@! TD*
D19*
G04 #@! TO.P,REF\002A\002A,1*
G04 #@! TO.N,P0*
X110700000Y2200000D03*
G04 #@! TO.P,REF\002A\002A,2*
X111800000Y6800000D03*
G04 #@! TO.P,REF\002A\002A,3*
G04 #@! TO.N,GND*
X115800000Y6800000D03*
G04 #@! TO.P,REF\002A\002A,4*
G04 #@! TO.N,VCC*
X118800000Y6800000D03*
G04 #@! TO.P,REF\002A\002A,1*
G04 #@! TO.N,P0*
X110700000Y6800000D03*
G04 #@! TO.P,REF\002A\002A,2*
X111800000Y2200000D03*
G04 #@! TO.P,REF\002A\002A,3*
G04 #@! TO.N,GND*
X115800000Y2200000D03*
G04 #@! TO.P,REF\002A\002A,4*
G04 #@! TO.N,VCC*
X118800000Y2200000D03*
G04 #@! TD*
D20*
G04 #@! TO.N,P21*
X47716100Y40075400D03*
X24087700Y30297700D03*
G04 #@! TO.N,P6*
X90449400Y20875900D03*
G04 #@! TO.N,P5*
X89125300Y36290700D03*
G04 #@! TO.N,P20*
X61113500Y37959100D03*
X44275000Y26051400D03*
G04 #@! TO.N,P19*
X103308300Y43292500D03*
X62275000Y45267300D03*
X92019800Y-1797300D03*
G04 #@! TO.N,P18*
X94268400Y-8444500D03*
X81012000Y36726500D03*
X78408000Y48011900D03*
X110472400Y-9471400D03*
G04 #@! TO.N,P15*
X98275000Y18001600D03*
X98275000Y45663600D03*
X121164200Y-20809300D03*
G04 #@! TO.N,GND*
X120722900Y16044300D03*
G04 #@! TO.N,VCC*
X100712400Y22939000D03*
G04 #@! TO.N,P0*
X99656400Y10786200D03*
X99849500Y44844300D03*
G04 #@! TD*
D21*
G04 #@! TO.N,pinky_bottom*
X19650000Y-5000000D02*
X18874700Y-5000000D01*
X18874700Y-5000000D02*
X15921700Y-2047000D01*
X15921700Y-2047000D02*
X15921700Y4753300D01*
X15921700Y4753300D02*
X14725000Y5950000D01*
X21810000Y-5000000D02*
X19650000Y-5000000D01*
G04 #@! TO.N,P21*
X26275000Y37750000D02*
X45390700Y37750000D01*
X45390700Y37750000D02*
X47716100Y40075400D01*
X26275000Y37750000D02*
X26275000Y32302900D01*
X26275000Y32302900D02*
X24269800Y30297700D01*
X24269800Y30297700D02*
X24269800Y24380500D01*
X24269800Y24380500D02*
X26275000Y22375300D01*
X24087700Y30297700D02*
X24269800Y30297700D01*
X26275000Y20750000D02*
X26275000Y3750000D01*
X26275000Y21256000D02*
X26275000Y20750000D01*
X26275000Y21256000D02*
X26275000Y22375300D01*
X104880000Y35760000D02*
X116370000Y35760000D01*
X116370000Y35760000D02*
X117620000Y37010000D01*
G04 #@! TO.N,P7*
X89125300Y5200000D02*
X90425500Y3899800D01*
X90425500Y3899800D02*
X94334300Y3899800D01*
X94334300Y3899800D02*
X100405400Y9970900D01*
X100405400Y9970900D02*
X100405400Y21554700D01*
X100405400Y21554700D02*
X102380000Y23529300D01*
X102380000Y23529300D02*
X102380000Y24310000D01*
X32190000Y6900000D02*
X32190000Y1794000D01*
X32190000Y1794000D02*
X24058700Y-6337300D01*
X24058700Y-6337300D02*
X18462600Y-6337300D01*
X18462600Y-6337300D02*
X17125300Y-5000000D01*
X16350000Y-5000000D02*
X17125300Y-5000000D01*
X34350000Y6900000D02*
X32190000Y6900000D01*
X88350000Y5200000D02*
X89125300Y5200000D01*
X16350000Y-5000000D02*
X14190000Y-5000000D01*
X52350000Y10300000D02*
X50190000Y10300000D01*
X70350000Y6900000D02*
X68190000Y6900000D01*
X88350000Y5200000D02*
X86190000Y5200000D01*
G04 #@! TO.N,pinky_home*
X19650000Y12000000D02*
X18874700Y12000000D01*
X18874700Y12000000D02*
X15921700Y14953000D01*
X15921700Y14953000D02*
X15921700Y21753300D01*
X15921700Y21753300D02*
X14725000Y22950000D01*
X21810000Y12000000D02*
X19650000Y12000000D01*
G04 #@! TO.N,P6*
X89125300Y22200000D02*
X90449400Y20875900D01*
X88350000Y22200000D02*
X89125300Y22200000D01*
X52350000Y27300000D02*
X53125300Y27300000D01*
X68190000Y23900000D02*
X56525300Y23900000D01*
X56525300Y23900000D02*
X53125300Y27300000D01*
X70350000Y23900000D02*
X68190000Y23900000D01*
X16350000Y12000000D02*
X14190000Y12000000D01*
X34350000Y23900000D02*
X32190000Y23900000D01*
X52350000Y27300000D02*
X50190000Y27300000D01*
X88350000Y22200000D02*
X86190000Y22200000D01*
G04 #@! TO.N,pinky_top*
X19650000Y29000000D02*
X18874700Y29000000D01*
X18874700Y29000000D02*
X15921700Y31953000D01*
X15921700Y31953000D02*
X15921700Y38753300D01*
X15921700Y38753300D02*
X14725000Y39950000D01*
X21810000Y29000000D02*
X19650000Y29000000D01*
G04 #@! TO.N,P5*
X50190000Y44300000D02*
X48975700Y44300000D01*
X34350000Y40900000D02*
X35125300Y40900000D01*
X48975700Y44300000D02*
X44287200Y39611500D01*
X44287200Y39611500D02*
X36413800Y39611500D01*
X36413800Y39611500D02*
X35125300Y40900000D01*
X52350000Y44300000D02*
X50190000Y44300000D01*
X89125300Y39200000D02*
X89125300Y36290700D01*
X88350000Y39200000D02*
X89125300Y39200000D01*
X16350000Y29000000D02*
X14190000Y29000000D01*
X34350000Y40900000D02*
X32190000Y40900000D01*
X70350000Y40900000D02*
X68190000Y40900000D01*
X88350000Y39200000D02*
X86190000Y39200000D01*
G04 #@! TO.N,ring_bottom*
X37650000Y6900000D02*
X36874700Y6900000D01*
X36874700Y6900000D02*
X33921700Y9853000D01*
X33921700Y9853000D02*
X33921700Y16653300D01*
X33921700Y16653300D02*
X32725000Y17850000D01*
X39810000Y6900000D02*
X37650000Y6900000D01*
G04 #@! TO.N,P20*
X53125400Y42952200D02*
X56120400Y42952200D01*
X56120400Y42952200D02*
X61113500Y37959100D01*
X44275000Y32650000D02*
X44275000Y34881100D01*
X44275000Y34881100D02*
X52346100Y42952200D01*
X52346100Y42952200D02*
X53125400Y42952200D01*
X53125400Y42952200D02*
X53125400Y45054800D01*
X53125400Y45054800D02*
X50155500Y48024700D01*
X50155500Y48024700D02*
X47525600Y48024700D01*
X47525600Y48024700D02*
X45900300Y49650000D01*
X44275000Y49650000D02*
X45900300Y49650000D01*
X44275000Y26051400D02*
X44275000Y32650000D01*
X44275000Y26051400D02*
X44275000Y15650000D01*
X104880000Y33220000D02*
X116370000Y33220000D01*
X116370000Y33220000D02*
X117620000Y34470000D01*
G04 #@! TO.N,ring_home*
X37650000Y23900000D02*
X36874700Y23900000D01*
X36874700Y23900000D02*
X33921700Y26853000D01*
X33921700Y26853000D02*
X33921700Y33653300D01*
X33921700Y33653300D02*
X32725000Y34850000D01*
X39810000Y23900000D02*
X37650000Y23900000D01*
G04 #@! TO.N,ring_top*
X37650000Y40900000D02*
X36874700Y40900000D01*
X36874700Y40900000D02*
X33921700Y43853000D01*
X33921700Y43853000D02*
X33921700Y50653300D01*
X33921700Y50653300D02*
X32725000Y51850000D01*
X39810000Y40900000D02*
X37650000Y40900000D01*
G04 #@! TO.N,middle_bottom*
X55650000Y10300000D02*
X54874700Y10300000D01*
X54874700Y10300000D02*
X51921700Y13253000D01*
X51921700Y13253000D02*
X51921700Y20053300D01*
X51921700Y20053300D02*
X50725000Y21250000D01*
X57810000Y10300000D02*
X55650000Y10300000D01*
G04 #@! TO.N,P19*
X104880000Y30680000D02*
X103581700Y31978300D01*
X103581700Y31978300D02*
X103581700Y43019100D01*
X103581700Y43019100D02*
X103308300Y43292500D01*
X104880000Y30680000D02*
X116370000Y30680000D01*
X116370000Y30680000D02*
X117620000Y31930000D01*
X71831200Y19724800D02*
X72762200Y19724800D01*
X72762200Y19724800D02*
X74043900Y18443100D01*
X74043900Y18443100D02*
X74043900Y13645100D01*
X74043900Y13645100D02*
X89486300Y-1797300D01*
X89486300Y-1797300D02*
X92019800Y-1797300D01*
X62275000Y45267300D02*
X62275000Y36050000D01*
X62275000Y53050000D02*
X62275000Y45267300D01*
X62275000Y19050000D02*
X63900300Y19050000D01*
X62275000Y36050000D02*
X62275000Y34424700D01*
X71831200Y19724800D02*
X71831200Y23936700D01*
X71831200Y23936700D02*
X68161200Y27606700D01*
X68161200Y27606700D02*
X68161200Y28907200D01*
X68161200Y28907200D02*
X62643700Y34424700D01*
X62643700Y34424700D02*
X62275000Y34424700D01*
X63900300Y19050000D02*
X64575100Y19724800D01*
X64575100Y19724800D02*
X71831200Y19724800D01*
X92390300Y-5947800D02*
X92390200Y-5947800D01*
X92390200Y-5947800D02*
X92019800Y-5577400D01*
X92019800Y-5577400D02*
X92019800Y-1797300D01*
X91856900Y-7938500D02*
X92390300Y-5947800D01*
G04 #@! TO.N,middle_home*
X55650000Y27300000D02*
X54874700Y27300000D01*
X54874700Y27300000D02*
X51921700Y30253000D01*
X51921700Y30253000D02*
X51921700Y37053300D01*
X51921700Y37053300D02*
X50725000Y38250000D01*
X57810000Y27300000D02*
X55650000Y27300000D01*
G04 #@! TO.N,middle_top*
X55650000Y44300000D02*
X54874700Y44300000D01*
X54874700Y44300000D02*
X51921700Y47253000D01*
X51921700Y47253000D02*
X51921700Y54053300D01*
X51921700Y54053300D02*
X50725000Y55250000D01*
X57810000Y44300000D02*
X55650000Y44300000D01*
G04 #@! TO.N,index_bottom*
X73650000Y6900000D02*
X72874700Y6900000D01*
X72874700Y6900000D02*
X69921700Y9853000D01*
X69921700Y9853000D02*
X69921700Y16653300D01*
X69921700Y16653300D02*
X68725000Y17850000D01*
X75810000Y6900000D02*
X73650000Y6900000D01*
G04 #@! TO.N,P18*
X80275000Y15650000D02*
X80275000Y8822900D01*
X80275000Y8822900D02*
X89736000Y-638100D01*
X89736000Y-638100D02*
X91936700Y-638100D01*
X91936700Y-638100D02*
X94268400Y-2969800D01*
X94268400Y-2969800D02*
X94268400Y-8444500D01*
X80275000Y32650000D02*
X80275000Y15650000D01*
X80275000Y33869000D02*
X81012000Y34606000D01*
X81012000Y34606000D02*
X81012000Y36726500D01*
X80275000Y33869000D02*
X80275000Y34275300D01*
X80275000Y33462700D02*
X80275000Y33869000D01*
X80275000Y49650000D02*
X80275000Y48024700D01*
X79021900Y47398000D02*
X79021900Y45758300D01*
X79021900Y45758300D02*
X78587700Y45324100D01*
X78587700Y45324100D02*
X78587700Y35962600D01*
X78587700Y35962600D02*
X80275000Y34275300D01*
X78408000Y48011900D02*
X79021900Y47398000D01*
X80275000Y48024700D02*
X79648600Y48024700D01*
X79648600Y48024700D02*
X79021900Y47398000D01*
X111502800Y-16202700D02*
X110472400Y-15172300D01*
X110472400Y-15172300D02*
X110472400Y-9471400D01*
X80275000Y33462700D02*
X80275000Y32650000D01*
X110472400Y-17987400D02*
X111502800Y-16202700D01*
X104880000Y28140000D02*
X116370000Y28140000D01*
X116370000Y28140000D02*
X117620000Y29390000D01*
G04 #@! TO.N,index_home*
X73650000Y23900000D02*
X72874700Y23900000D01*
X72874700Y23900000D02*
X69921700Y26853000D01*
X69921700Y26853000D02*
X69921700Y33653300D01*
X69921700Y33653300D02*
X68725000Y34850000D01*
X75810000Y23900000D02*
X73650000Y23900000D01*
G04 #@! TO.N,index_top*
X73650000Y40900000D02*
X72874700Y40900000D01*
X72874700Y40900000D02*
X69921700Y43853000D01*
X69921700Y43853000D02*
X69921700Y50653300D01*
X69921700Y50653300D02*
X68725000Y51850000D01*
X75810000Y40900000D02*
X73650000Y40900000D01*
G04 #@! TO.N,inner_bottom*
X91650000Y5200000D02*
X90874700Y5200000D01*
X90874700Y5200000D02*
X87921700Y8153000D01*
X87921700Y8153000D02*
X87921700Y14953300D01*
X87921700Y14953300D02*
X86725000Y16150000D01*
X93810000Y5200000D02*
X91650000Y5200000D01*
G04 #@! TO.N,P15*
X98275000Y18001600D02*
X98275000Y30950000D01*
X98275000Y13950000D02*
X98275000Y18001600D01*
X98275000Y45663600D02*
X98275000Y30950000D01*
X98275000Y47950000D02*
X98275000Y45663600D01*
X121164200Y-20809300D02*
X121484700Y-20488800D01*
X121484700Y-20488800D02*
X121484700Y18363500D01*
X121484700Y18363500D02*
X120598200Y19250000D01*
X120598200Y19250000D02*
X119598900Y19250000D01*
X119598900Y19250000D02*
X118821700Y20027200D01*
X118821700Y20027200D02*
X118821700Y25648300D01*
X118821700Y25648300D02*
X117620000Y26850000D01*
X125852000Y-32512000D02*
X125852000Y-25497100D01*
X125852000Y-25497100D02*
X121164200Y-20809300D01*
X104880000Y25600000D02*
X106130000Y26850000D01*
X106130000Y26850000D02*
X117620000Y26850000D01*
G04 #@! TO.N,inner_home*
X90874700Y22200000D02*
X87921700Y25153000D01*
X87921700Y25153000D02*
X87921700Y31953300D01*
X87921700Y31953300D02*
X86725000Y33150000D01*
X91650000Y22200000D02*
X90874700Y22200000D01*
X93810000Y22200000D02*
X91650000Y22200000D01*
G04 #@! TO.N,inner_top*
X91650000Y39200000D02*
X90874700Y39200000D01*
X90874700Y39200000D02*
X87921700Y42153000D01*
X87921700Y42153000D02*
X87921700Y48953300D01*
X87921700Y48953300D02*
X86725000Y50150000D01*
X93810000Y39200000D02*
X91650000Y39200000D01*
G04 #@! TO.N,near_thumb*
X83193000Y-14675700D02*
X82204500Y-14410800D01*
X81269900Y-2824100D02*
X81269900Y-7663200D01*
X81269900Y-7663200D02*
X80850800Y-8082300D01*
X80850800Y-8082300D02*
X80850800Y-12333500D01*
X80850800Y-12333500D02*
X82204500Y-13687200D01*
X82204500Y-13687200D02*
X82204500Y-14410800D01*
X83193000Y-14675700D02*
X84181400Y-14940500D01*
X85279400Y-15234700D02*
X84475500Y-15234700D01*
X84475500Y-15234700D02*
X84181400Y-14940600D01*
X84181400Y-14940600D02*
X84181400Y-14940500D01*
G04 #@! TO.N,P4*
X97191800Y-20292500D02*
X97502000Y-20602700D01*
X96964700Y-20292600D02*
X96964800Y-20292500D01*
X96964800Y-20292500D02*
X97191800Y-20292500D01*
X102380000Y31930000D02*
X103622000Y30688000D01*
X103622000Y30688000D02*
X103622000Y-3747100D01*
X103622000Y-3747100D02*
X97102700Y-10266400D01*
X97102700Y-10266400D02*
X97102700Y-12433700D01*
X97102700Y-12433700D02*
X97932900Y-13263900D01*
X97932900Y-13263900D02*
X97932900Y-19551400D01*
X97932900Y-19551400D02*
X97191800Y-20292500D01*
X95631300Y-19522700D02*
X96964700Y-20292600D01*
X111119900Y-30153700D02*
X112647300Y-31681100D01*
X80005400Y-13821500D02*
X79017000Y-13556700D01*
X79017000Y-13556700D02*
X78213200Y-13556700D01*
X78213200Y-13556700D02*
X77919000Y-13262500D01*
G04 #@! TO.N,home_thumb*
X100359800Y-22252700D02*
X99473700Y-21741100D01*
X101569800Y-10307100D02*
X101569800Y-14015600D01*
X101569800Y-14015600D02*
X99380900Y-16204500D01*
X99380900Y-16204500D02*
X99380900Y-21273800D01*
X99380900Y-21273800D02*
X99473800Y-21366700D01*
X99473800Y-21366700D02*
X99473800Y-21741000D01*
X99473800Y-21741000D02*
X99473700Y-21741100D01*
X100359800Y-22252700D02*
X101246000Y-22764300D01*
X102230500Y-23332700D02*
X101814400Y-23332700D01*
X101814400Y-23332700D02*
X101246000Y-22764300D01*
G04 #@! TO.N,far_thumb*
X116508100Y-35541900D02*
X119405700Y-32644300D01*
X119405700Y-32644300D02*
X119405700Y-22954400D01*
X119405700Y-22954400D02*
X119240500Y-22789200D01*
X116508100Y-35541900D02*
X114980700Y-34014500D01*
D22*
G04 #@! TO.N,GND*
X115800000Y6800000D02*
X115800000Y8050300D01*
X115800000Y8050300D02*
X120722900Y12973200D01*
X120722900Y12973200D02*
X120722900Y16044300D01*
X102380000Y39550000D02*
X102380000Y42090000D01*
X120120000Y38300000D02*
X120120000Y40840000D01*
G04 #@! TO.N,VCC*
X104880000Y38300000D02*
X106206700Y39626700D01*
X106206700Y39626700D02*
X106206700Y47025300D01*
X106206700Y47025300D02*
X104697600Y48534400D01*
X104697600Y48534400D02*
X101821500Y48534400D01*
X101821500Y48534400D02*
X100712400Y47425300D01*
X100712400Y47425300D02*
X100712400Y22939000D01*
X118800000Y2200000D02*
X118800000Y6800000D01*
D21*
G04 #@! TO.N,P14*
X104880000Y23060000D02*
X116370000Y23060000D01*
X116370000Y23060000D02*
X117620000Y24310000D01*
G04 #@! TO.N,P16*
X104880000Y20520000D02*
X116370000Y20520000D01*
X116370000Y20520000D02*
X117620000Y21770000D01*
G04 #@! TO.N,P10*
X104880000Y17980000D02*
X116370000Y17980000D01*
X116370000Y17980000D02*
X117620000Y19230000D01*
G04 #@! TO.N,P0*
X99849500Y44844300D02*
X99900400Y44793400D01*
X99900400Y44793400D02*
X99900400Y11030200D01*
X99900400Y11030200D02*
X99656400Y10786200D01*
X111800000Y3325300D02*
X111033900Y3325300D01*
X111033900Y3325300D02*
X110906000Y3197400D01*
X110906000Y3197400D02*
X110802600Y3197400D01*
X110802600Y3197400D02*
X110700000Y3300000D01*
X110700000Y3300000D02*
X110700000Y6800000D01*
X111800000Y2200000D02*
X111800000Y3325300D01*
G04 #@! TD*
M02*
