M48
; DRILL file {KiCad 5.1.5+dfsg1-2build2} date Sat Nov 13 16:54:47 2021
; FORMAT={-:-/ absolute / metric / decimal}
; #@! TF.CreationDate,2021-11-13T16:54:47+00:00
; #@! TF.GenerationSoftware,Kicad,Pcbnew,5.1.5+dfsg1-2build2
FMAT,2
METRIC
T1C0.400
T2C0.900
T3C0.991
T4C1.092
T5C1.300
T6C0.900
T7C1.200
T8C1.702
T9C3.000
T10C3.429
%
G90
G05
T1
X24.27Y28.793
X27.0Y10.712
X33.989Y37.403
X44.029Y40.344
X44.969Y13.729
X45.978Y30.867
X47.898Y20.965
X68.488Y25.524
X80.275Y38.464
X83.47Y20.908
X88.573Y34.998
X92.02Y-1.797
X98.275Y41.372
X99.029Y28.128
X99.495Y23.005
X100.108Y26.351
X110.472Y-9.515
X111.6Y28.845
X111.892Y11.822
X112.628Y24.647
X115.682Y10.7
X119.117Y10.2
X121.164Y-20.809
X121.339Y15.229
T3
X95.631Y-19.523
X102.23Y-23.333
X14.19Y-5.0
X21.81Y-5.0
X50.19Y27.3
X57.81Y27.3
X86.19Y5.2
X93.81Y5.2
X32.19Y23.9
X39.81Y23.9
X77.919Y-13.262
X85.279Y-15.235
X68.19Y40.9
X75.81Y40.9
X32.19Y6.9
X39.81Y6.9
X68.19Y23.9
X75.81Y23.9
X68.19Y6.9
X75.81Y6.9
X50.19Y10.3
X57.81Y10.3
X14.19Y29.0
X21.81Y29.0
X111.12Y-30.154
X116.508Y-35.542
X14.19Y12.0
X21.81Y12.0
X86.19Y22.2
X93.81Y22.2
X86.19Y39.2
X93.81Y39.2
X50.19Y44.3
X57.81Y44.3
X32.19Y40.9
X39.81Y40.9
T4
X104.88Y48.46
X104.88Y45.92
X104.88Y43.38
X104.88Y40.84
X104.88Y38.3
X104.88Y35.76
X104.88Y33.22
X104.88Y30.68
X104.88Y28.14
X104.88Y25.6
X104.88Y23.06
X104.88Y20.52
X104.88Y17.98
X120.12Y48.46
X120.12Y45.92
X120.12Y43.38
X120.12Y40.84
X120.12Y38.3
X120.12Y35.76
X120.12Y33.22
X120.12Y30.68
X120.12Y28.14
X120.12Y25.6
X120.12Y23.06
X120.12Y20.52
X120.12Y17.98
X102.38Y49.71
X102.38Y47.17
X102.38Y44.63
X102.38Y42.09
X102.38Y39.55
X102.38Y37.01
X102.38Y34.47
X102.38Y31.93
X102.38Y29.39
X102.38Y26.85
X102.38Y24.31
X102.38Y21.77
X102.38Y19.23
X117.62Y49.71
X117.62Y47.17
X117.62Y44.63
X117.62Y42.09
X117.62Y39.55
X117.62Y37.01
X117.62Y34.47
X117.62Y31.93
X117.62Y29.39
X117.62Y26.85
X117.62Y24.31
X117.62Y21.77
X117.62Y19.23
T5
X107.0Y13.45
X107.0Y6.95
T6
X120.0Y11.7
X120.0Y8.7
X120.0Y11.7
X120.0Y8.7
T7
X113.4Y-0.5
X120.4Y-0.5
X113.4Y-2.5
X120.4Y-2.5
T8
X66.5Y45.9
X77.5Y45.9
X30.5Y11.9
X41.5Y11.9
X66.5Y28.9
X77.5Y28.9
X12.5Y34.0
X23.5Y34.0
X48.5Y32.3
X59.5Y32.3
X77.581Y-7.995
X88.206Y-10.843
X66.5Y11.9
X77.5Y11.9
X48.5Y15.3
X59.5Y15.3
X113.46Y-25.423
X121.238Y-33.201
X12.5Y17.0
X23.5Y17.0
X12.5Y0.0
X23.5Y0.0
X84.5Y27.2
X95.5Y27.2
X30.5Y45.9
X41.5Y45.9
X84.5Y44.2
X95.5Y44.2
X96.668Y-14.348
X106.194Y-19.848
X48.5Y49.3
X59.5Y49.3
X84.5Y10.2
X95.5Y10.2
X30.5Y28.9
X41.5Y28.9
T9
X31.0Y15.65
X36.0Y17.85
X36.0Y17.85
X41.0Y15.65
X67.0Y32.65
X72.0Y34.85
X72.0Y34.85
X77.0Y32.65
X13.0Y37.75
X18.0Y39.95
X18.0Y39.95
X23.0Y37.75
X49.0Y36.05
X54.0Y38.25
X54.0Y38.25
X59.0Y36.05
X79.034Y-4.503
X84.433Y-3.672
X84.433Y-3.672
X88.694Y-7.091
X67.0Y15.65
X72.0Y17.85
X72.0Y17.85
X77.0Y15.65
X49.0Y19.05
X54.0Y21.25
X54.0Y21.25
X59.0Y19.05
X116.465Y-23.125
X121.556Y-25.105
X121.556Y-25.105
X123.536Y-30.196
X13.0Y20.75
X18.0Y22.95
X18.0Y22.95
X23.0Y20.75
X13.0Y3.75
X18.0Y5.95
X18.0Y5.95
X23.0Y3.75
X85.0Y30.95
X90.0Y33.15
X90.0Y33.15
X95.0Y30.95
X31.0Y49.65
X36.0Y51.85
X36.0Y51.85
X41.0Y49.65
X85.0Y47.95
X90.0Y50.15
X90.0Y50.15
X95.0Y47.95
X98.976Y-11.35
X104.406Y-11.945
X104.406Y-11.945
X107.636Y-16.35
X49.0Y53.05
X54.0Y55.25
X54.0Y55.25
X59.0Y53.05
X85.0Y13.95
X90.0Y16.15
X90.0Y16.15
X95.0Y13.95
X31.0Y32.65
X36.0Y34.85
X36.0Y34.85
X41.0Y32.65
X67.0Y49.65
X72.0Y51.85
X72.0Y51.85
X77.0Y49.65
T10
X36.0Y11.9
X72.0Y28.9
X18.0Y34.0
X54.0Y32.3
X82.893Y-9.419
X72.0Y11.9
X54.0Y15.3
X117.349Y-29.312
X18.0Y17.0
X18.0Y0.0
X90.0Y27.2
X36.0Y45.9
X90.0Y44.2
X101.431Y-17.098
X54.0Y49.3
X90.0Y10.2
X36.0Y28.9
X72.0Y45.9
T2
X111.0Y-2.8G85X110.4Y-2.8
G05
X112.1Y1.8G85X111.5Y1.8
G05
X116.1Y1.8G85X115.5Y1.8
G05
X119.1Y1.8G85X118.5Y1.8
G05
X111.0Y-0.2G85X110.4Y-0.2
G05
X112.1Y-4.8G85X111.5Y-4.8
G05
X116.1Y-4.8G85X115.5Y-4.8
G05
X119.1Y-4.8G85X118.5Y-4.8
G05
T0
M30
