G04 #@! TF.GenerationSoftware,KiCad,Pcbnew,5.1.5+dfsg1-2build2*
G04 #@! TF.CreationDate,2021-09-18T16:55:54+00:00*
G04 #@! TF.ProjectId,bottom_plate,626f7474-6f6d-45f7-906c-6174652e6b69,VERSION_HERE*
G04 #@! TF.SameCoordinates,Original*
G04 #@! TF.FileFunction,Paste,Top*
G04 #@! TF.FilePolarity,Positive*
%FSLAX46Y46*%
G04 Gerber Fmt 4.6, Leading zero omitted, Abs format (unit mm)*
G04 Created by KiCad (PCBNEW 5.1.5+dfsg1-2build2) date 2021-09-18 16:55:54*
%MOMM*%
%LPD*%
G04 APERTURE LIST*
G04 #@! TA.AperFunction,Profile*
%ADD10C,0.150000*%
G04 #@! TD*
%ADD11R,2.600000X2.600000*%
%ADD12R,0.900000X1.200000*%
%ADD13C,0.350000*%
G04 APERTURE END LIST*
D10*
X10000000Y-9500000D02*
X26000000Y-9500000D01*
X8000000Y-7500000D02*
X8000000Y41500000D01*
X10000000Y-9500000D02*
G75*
G02X8000000Y-7500000I0J2000000D01*
G01*
X26000000Y43500000D02*
X10000000Y43500000D01*
X8000000Y41500000D02*
G75*
G02X10000000Y43500000I2000000J0D01*
G01*
X44000000Y55400000D02*
X28000000Y55400000D01*
X26000000Y53400000D02*
G75*
G02X28000000Y55400000I2000000J0D01*
G01*
X26000000Y53400000D02*
X26000000Y43500000D01*
X64000000Y55400000D02*
X64000000Y56800000D01*
X62000000Y58800000D02*
G75*
G02X64000000Y56800000I0J-2000000D01*
G01*
X62000000Y58800000D02*
X46000000Y58800000D01*
X44000000Y56800000D02*
G75*
G02X46000000Y58800000I2000000J0D01*
G01*
X44000000Y56800000D02*
X44000000Y55400000D01*
X80000000Y55400000D02*
G75*
G02X81977391Y53699872I0J-2000000D01*
G01*
X80000000Y55400000D02*
X64000000Y55400000D01*
X98000000Y53700000D02*
G75*
G02X99994367Y51850000I0J-2000000D01*
G01*
X98000000Y53700000D02*
X82000000Y53700000D01*
X81977391Y53699872D02*
G75*
G02X82000000Y53700000I22609J-1999872D01*
G01*
X119117258Y-41686664D02*
G75*
G02X116288831Y-41686665I-1414214J1414213D01*
G01*
X119117258Y-41686665D02*
X129723860Y-31080063D01*
X129723859Y-28251636D02*
G75*
G02X129723860Y-31080063I-1414213J-1414214D01*
G01*
X122000000Y-20208734D02*
X129723860Y-28251636D01*
X116288831Y-41686665D02*
X72707107Y-16524745D01*
X72707107Y-16524745D02*
X26000000Y-9500000D01*
X122000000Y-20208734D02*
X122000000Y49850000D01*
X120000000Y51850000D02*
G75*
G02X122000000Y49850000I0J-2000000D01*
G01*
X120000000Y51850000D02*
X99994367Y51850000D01*
X28050000Y28900000D02*
G75*
G03X28050000Y28900000I-1050000J0D01*
G01*
X28050000Y0D02*
G75*
G03X28050000Y0I-1050000J0D01*
G01*
X82050000Y44200000D02*
G75*
G03X82050000Y44200000I-1050000J0D01*
G01*
X73050000Y-6120000D02*
G75*
G03X73050000Y-6120000I-1050000J0D01*
G01*
X111399134Y-22311939D02*
G75*
G03X111399134Y-22311939I-1050000J0D01*
G01*
D11*
G04 #@! TO.C,S1*
X21275000Y5950000D03*
X9725000Y3750000D03*
G04 #@! TD*
D12*
G04 #@! TO.C,D1*
X16350000Y-5000000D03*
X19650000Y-5000000D03*
G04 #@! TD*
D11*
G04 #@! TO.C,S2*
X21275000Y22950000D03*
X9725000Y20750000D03*
G04 #@! TD*
D12*
G04 #@! TO.C,D2*
X16350000Y12000000D03*
X19650000Y12000000D03*
G04 #@! TD*
D11*
G04 #@! TO.C,S3*
X21275000Y39950000D03*
X9725000Y37750000D03*
G04 #@! TD*
D12*
G04 #@! TO.C,D3*
X16350000Y29000000D03*
X19650000Y29000000D03*
G04 #@! TD*
D11*
G04 #@! TO.C,S4*
X39275000Y17850000D03*
X27725000Y15650000D03*
G04 #@! TD*
D12*
G04 #@! TO.C,D4*
X34350000Y6900000D03*
X37650000Y6900000D03*
G04 #@! TD*
D11*
G04 #@! TO.C,S5*
X39275000Y34850000D03*
X27725000Y32650000D03*
G04 #@! TD*
D12*
G04 #@! TO.C,D5*
X34350000Y23900000D03*
X37650000Y23900000D03*
G04 #@! TD*
D11*
G04 #@! TO.C,S6*
X39275000Y51850000D03*
X27725000Y49650000D03*
G04 #@! TD*
D12*
G04 #@! TO.C,D6*
X34350000Y40900000D03*
X37650000Y40900000D03*
G04 #@! TD*
D11*
G04 #@! TO.C,S7*
X57275000Y21250000D03*
X45725000Y19050000D03*
G04 #@! TD*
D12*
G04 #@! TO.C,D7*
X52350000Y10300000D03*
X55650000Y10300000D03*
G04 #@! TD*
D11*
G04 #@! TO.C,S8*
X57275000Y38250000D03*
X45725000Y36050000D03*
G04 #@! TD*
D12*
G04 #@! TO.C,D8*
X52350000Y27300000D03*
X55650000Y27300000D03*
G04 #@! TD*
D11*
G04 #@! TO.C,S9*
X57275000Y55250000D03*
X45725000Y53050000D03*
G04 #@! TD*
D12*
G04 #@! TO.C,D9*
X52350000Y44300000D03*
X55650000Y44300000D03*
G04 #@! TD*
D11*
G04 #@! TO.C,S10*
X75275000Y17850000D03*
X63725000Y15650000D03*
G04 #@! TD*
D12*
G04 #@! TO.C,D10*
X70350000Y6900000D03*
X73650000Y6900000D03*
G04 #@! TD*
D11*
G04 #@! TO.C,S11*
X75275000Y34850000D03*
X63725000Y32650000D03*
G04 #@! TD*
D12*
G04 #@! TO.C,D11*
X70350000Y23900000D03*
X73650000Y23900000D03*
G04 #@! TD*
D11*
G04 #@! TO.C,S12*
X75275000Y51850000D03*
X63725000Y49650000D03*
G04 #@! TD*
D12*
G04 #@! TO.C,D12*
X70350000Y40900000D03*
X73650000Y40900000D03*
G04 #@! TD*
D11*
G04 #@! TO.C,S13*
X93275000Y16150000D03*
X81725000Y13950000D03*
G04 #@! TD*
D12*
G04 #@! TO.C,D13*
X88350000Y5200000D03*
X91650000Y5200000D03*
G04 #@! TD*
D11*
G04 #@! TO.C,S14*
X93275000Y33150000D03*
X81725000Y30950000D03*
G04 #@! TD*
D12*
G04 #@! TO.C,D14*
X88350000Y22200000D03*
X91650000Y22200000D03*
G04 #@! TD*
D11*
G04 #@! TO.C,S15*
X93275000Y50150000D03*
X81725000Y47950000D03*
G04 #@! TD*
D12*
G04 #@! TO.C,D15*
X88350000Y39200000D03*
X91650000Y39200000D03*
G04 #@! TD*
D13*
G04 #@! TO.C,S16*
G36*
X86004512Y-5438613D02*
G01*
X86677441Y-2927206D01*
X89188848Y-3600135D01*
X88515919Y-6111542D01*
X86004512Y-5438613D01*
G37*
G36*
X74278667Y-4574290D02*
G01*
X74951596Y-2062883D01*
X77463003Y-2735812D01*
X76790074Y-5247219D01*
X74278667Y-4574290D01*
G37*
G04 #@! TD*
G04 #@! TO.C,D16*
G36*
X79415464Y-14284637D02*
G01*
X79726047Y-13125526D01*
X80595380Y-13358463D01*
X80284797Y-14517574D01*
X79415464Y-14284637D01*
G37*
G36*
X82603020Y-15138737D02*
G01*
X82913603Y-13979626D01*
X83782936Y-14212563D01*
X83472353Y-15371674D01*
X82603020Y-15138737D01*
G37*
G04 #@! TD*
G04 #@! TO.C,S17*
G36*
X105466400Y-14057982D02*
G01*
X106766400Y-11806316D01*
X109018066Y-13106316D01*
X107718066Y-15357982D01*
X105466400Y-14057982D01*
G37*
G36*
X94363807Y-10188238D02*
G01*
X95663807Y-7936572D01*
X97915473Y-9236572D01*
X96615473Y-11488238D01*
X94363807Y-10188238D01*
G37*
G04 #@! TD*
G04 #@! TO.C,D17*
G36*
X96812247Y-20897315D02*
G01*
X97412247Y-19858085D01*
X98191669Y-20308085D01*
X97591669Y-21347315D01*
X96812247Y-20897315D01*
G37*
G36*
X99670131Y-22547315D02*
G01*
X100270131Y-21508085D01*
X101049553Y-21958085D01*
X100449553Y-22997315D01*
X99670131Y-22547315D01*
G37*
G04 #@! TD*
G04 #@! TO.C,S18*
G36*
X122033582Y-27420789D02*
G01*
X123872060Y-25582311D01*
X125710538Y-27420789D01*
X123872060Y-29259267D01*
X122033582Y-27420789D01*
G37*
G36*
X112310864Y-20809341D02*
G01*
X114149342Y-18970863D01*
X115987820Y-20809341D01*
X114149342Y-22647819D01*
X112310864Y-20809341D01*
G37*
G04 #@! TD*
G04 #@! TO.C,D18*
G36*
X111904812Y-31787140D02*
G01*
X112753340Y-30938612D01*
X113389736Y-31575008D01*
X112541208Y-32423536D01*
X111904812Y-31787140D01*
G37*
G36*
X114238264Y-34120592D02*
G01*
X115086792Y-33272064D01*
X115723188Y-33908460D01*
X114874660Y-34756988D01*
X114238264Y-34120592D01*
G37*
G04 #@! TD*
M02*
