G04 #@! TF.GenerationSoftware,KiCad,Pcbnew,5.1.5+dfsg1-2build2*
G04 #@! TF.CreationDate,2021-09-18T16:55:54+00:00*
G04 #@! TF.ProjectId,bottom_plate,626f7474-6f6d-45f7-906c-6174652e6b69,VERSION_HERE*
G04 #@! TF.SameCoordinates,Original*
G04 #@! TF.FileFunction,Copper,L2,Bot*
G04 #@! TF.FilePolarity,Positive*
%FSLAX46Y46*%
G04 Gerber Fmt 4.6, Leading zero omitted, Abs format (unit mm)*
G04 Created by KiCad (PCBNEW 5.1.5+dfsg1-2build2) date 2021-09-18 16:55:54*
%MOMM*%
%LPD*%
G04 APERTURE LIST*
G04 #@! TA.AperFunction,Profile*
%ADD10C,0.150000*%
G04 #@! TD*
G04 #@! TA.AperFunction,SMDPad,CuDef*
%ADD11R,2.600000X2.600000*%
G04 #@! TD*
G04 #@! TA.AperFunction,SMDPad,CuDef*
%ADD12R,0.900000X1.200000*%
G04 #@! TD*
G04 #@! TA.AperFunction,ComponentPad*
%ADD13C,1.905000*%
G04 #@! TD*
G04 #@! TA.AperFunction,ComponentPad*
%ADD14R,1.778000X1.778000*%
G04 #@! TD*
G04 #@! TA.AperFunction,SMDPad,CuDef*
%ADD15C,0.350000*%
G04 #@! TD*
G04 #@! TA.AperFunction,ComponentPad*
%ADD16C,0.350000*%
G04 #@! TD*
G04 #@! TA.AperFunction,ViaPad*
%ADD17C,0.800000*%
G04 #@! TD*
G04 #@! TA.AperFunction,Conductor*
%ADD18C,0.250000*%
G04 #@! TD*
G04 APERTURE END LIST*
D10*
X10000000Y-9500000D02*
X26000000Y-9500000D01*
X8000000Y-7500000D02*
X8000000Y41500000D01*
X10000000Y-9500000D02*
G75*
G02X8000000Y-7500000I0J2000000D01*
G01*
X26000000Y43500000D02*
X10000000Y43500000D01*
X8000000Y41500000D02*
G75*
G02X10000000Y43500000I2000000J0D01*
G01*
X44000000Y55400000D02*
X28000000Y55400000D01*
X26000000Y53400000D02*
G75*
G02X28000000Y55400000I2000000J0D01*
G01*
X26000000Y53400000D02*
X26000000Y43500000D01*
X64000000Y55400000D02*
X64000000Y56800000D01*
X62000000Y58800000D02*
G75*
G02X64000000Y56800000I0J-2000000D01*
G01*
X62000000Y58800000D02*
X46000000Y58800000D01*
X44000000Y56800000D02*
G75*
G02X46000000Y58800000I2000000J0D01*
G01*
X44000000Y56800000D02*
X44000000Y55400000D01*
X80000000Y55400000D02*
G75*
G02X81977391Y53699872I0J-2000000D01*
G01*
X80000000Y55400000D02*
X64000000Y55400000D01*
X98000000Y53700000D02*
G75*
G02X99994367Y51850000I0J-2000000D01*
G01*
X98000000Y53700000D02*
X82000000Y53700000D01*
X81977391Y53699872D02*
G75*
G02X82000000Y53700000I22609J-1999872D01*
G01*
X119117258Y-41686664D02*
G75*
G02X116288831Y-41686665I-1414214J1414213D01*
G01*
X119117258Y-41686665D02*
X129723860Y-31080063D01*
X129723859Y-28251636D02*
G75*
G02X129723860Y-31080063I-1414213J-1414214D01*
G01*
X122000000Y-20208734D02*
X129723860Y-28251636D01*
X116288831Y-41686665D02*
X72707107Y-16524745D01*
X72707107Y-16524745D02*
X26000000Y-9500000D01*
X122000000Y-20208734D02*
X122000000Y49850000D01*
X120000000Y51850000D02*
G75*
G02X122000000Y49850000I0J-2000000D01*
G01*
X120000000Y51850000D02*
X99994367Y51850000D01*
X28050000Y28900000D02*
G75*
G03X28050000Y28900000I-1050000J0D01*
G01*
X28050000Y0D02*
G75*
G03X28050000Y0I-1050000J0D01*
G01*
X82050000Y44200000D02*
G75*
G03X82050000Y44200000I-1050000J0D01*
G01*
X73050000Y-6120000D02*
G75*
G03X73050000Y-6120000I-1050000J0D01*
G01*
X111399134Y-22311939D02*
G75*
G03X111399134Y-22311939I-1050000J0D01*
G01*
D11*
G04 #@! TO.P,S1,1*
G04 #@! TO.N,pinky_bottom*
X14725000Y5950000D03*
G04 #@! TO.P,S1,2*
G04 #@! TO.N,P21*
X26275000Y3750000D03*
G04 #@! TD*
D12*
G04 #@! TO.P,D1,2*
G04 #@! TO.N,pinky_bottom*
X19650000Y-5000000D03*
G04 #@! TO.P,D1,1*
G04 #@! TO.N,P7*
X16350000Y-5000000D03*
D13*
G04 #@! TO.N,pinky_bottom*
X21810000Y-5000000D03*
D14*
G04 #@! TO.P,D1,2*
G04 #@! TO.N,P7*
X14190000Y-5000000D03*
G04 #@! TD*
D11*
G04 #@! TO.P,S2,1*
G04 #@! TO.N,pinky_home*
X14725000Y22950000D03*
G04 #@! TO.P,S2,2*
G04 #@! TO.N,P21*
X26275000Y20750000D03*
G04 #@! TD*
D12*
G04 #@! TO.P,D2,2*
G04 #@! TO.N,pinky_home*
X19650000Y12000000D03*
G04 #@! TO.P,D2,1*
G04 #@! TO.N,P6*
X16350000Y12000000D03*
D13*
G04 #@! TO.N,pinky_home*
X21810000Y12000000D03*
D14*
G04 #@! TO.P,D2,2*
G04 #@! TO.N,P6*
X14190000Y12000000D03*
G04 #@! TD*
D11*
G04 #@! TO.P,S3,1*
G04 #@! TO.N,pinky_top*
X14725000Y39950000D03*
G04 #@! TO.P,S3,2*
G04 #@! TO.N,P21*
X26275000Y37750000D03*
G04 #@! TD*
D12*
G04 #@! TO.P,D3,2*
G04 #@! TO.N,pinky_top*
X19650000Y29000000D03*
G04 #@! TO.P,D3,1*
G04 #@! TO.N,P5*
X16350000Y29000000D03*
D13*
G04 #@! TO.N,pinky_top*
X21810000Y29000000D03*
D14*
G04 #@! TO.P,D3,2*
G04 #@! TO.N,P5*
X14190000Y29000000D03*
G04 #@! TD*
D11*
G04 #@! TO.P,S4,1*
G04 #@! TO.N,ring_bottom*
X32725000Y17850000D03*
G04 #@! TO.P,S4,2*
G04 #@! TO.N,P20*
X44275000Y15650000D03*
G04 #@! TD*
D12*
G04 #@! TO.P,D4,2*
G04 #@! TO.N,ring_bottom*
X37650000Y6900000D03*
G04 #@! TO.P,D4,1*
G04 #@! TO.N,P7*
X34350000Y6900000D03*
D13*
G04 #@! TO.N,ring_bottom*
X39810000Y6900000D03*
D14*
G04 #@! TO.P,D4,2*
G04 #@! TO.N,P7*
X32190000Y6900000D03*
G04 #@! TD*
D11*
G04 #@! TO.P,S5,1*
G04 #@! TO.N,ring_home*
X32725000Y34850000D03*
G04 #@! TO.P,S5,2*
G04 #@! TO.N,P20*
X44275000Y32650000D03*
G04 #@! TD*
D12*
G04 #@! TO.P,D5,2*
G04 #@! TO.N,ring_home*
X37650000Y23900000D03*
G04 #@! TO.P,D5,1*
G04 #@! TO.N,P6*
X34350000Y23900000D03*
D13*
G04 #@! TO.N,ring_home*
X39810000Y23900000D03*
D14*
G04 #@! TO.P,D5,2*
G04 #@! TO.N,P6*
X32190000Y23900000D03*
G04 #@! TD*
D11*
G04 #@! TO.P,S6,1*
G04 #@! TO.N,ring_top*
X32725000Y51850000D03*
G04 #@! TO.P,S6,2*
G04 #@! TO.N,P20*
X44275000Y49650000D03*
G04 #@! TD*
D12*
G04 #@! TO.P,D6,2*
G04 #@! TO.N,ring_top*
X37650000Y40900000D03*
G04 #@! TO.P,D6,1*
G04 #@! TO.N,P5*
X34350000Y40900000D03*
D13*
G04 #@! TO.N,ring_top*
X39810000Y40900000D03*
D14*
G04 #@! TO.P,D6,2*
G04 #@! TO.N,P5*
X32190000Y40900000D03*
G04 #@! TD*
D11*
G04 #@! TO.P,S7,1*
G04 #@! TO.N,middle_bottom*
X50725000Y21250000D03*
G04 #@! TO.P,S7,2*
G04 #@! TO.N,P19*
X62275000Y19050000D03*
G04 #@! TD*
D12*
G04 #@! TO.P,D7,2*
G04 #@! TO.N,middle_bottom*
X55650000Y10300000D03*
G04 #@! TO.P,D7,1*
G04 #@! TO.N,P7*
X52350000Y10300000D03*
D13*
G04 #@! TO.N,middle_bottom*
X57810000Y10300000D03*
D14*
G04 #@! TO.P,D7,2*
G04 #@! TO.N,P7*
X50190000Y10300000D03*
G04 #@! TD*
D11*
G04 #@! TO.P,S8,1*
G04 #@! TO.N,middle_home*
X50725000Y38250000D03*
G04 #@! TO.P,S8,2*
G04 #@! TO.N,P19*
X62275000Y36050000D03*
G04 #@! TD*
D12*
G04 #@! TO.P,D8,2*
G04 #@! TO.N,middle_home*
X55650000Y27300000D03*
G04 #@! TO.P,D8,1*
G04 #@! TO.N,P6*
X52350000Y27300000D03*
D13*
G04 #@! TO.N,middle_home*
X57810000Y27300000D03*
D14*
G04 #@! TO.P,D8,2*
G04 #@! TO.N,P6*
X50190000Y27300000D03*
G04 #@! TD*
D11*
G04 #@! TO.P,S9,1*
G04 #@! TO.N,middle_top*
X50725000Y55250000D03*
G04 #@! TO.P,S9,2*
G04 #@! TO.N,P19*
X62275000Y53050000D03*
G04 #@! TD*
D12*
G04 #@! TO.P,D9,2*
G04 #@! TO.N,middle_top*
X55650000Y44300000D03*
G04 #@! TO.P,D9,1*
G04 #@! TO.N,P5*
X52350000Y44300000D03*
D13*
G04 #@! TO.N,middle_top*
X57810000Y44300000D03*
D14*
G04 #@! TO.P,D9,2*
G04 #@! TO.N,P5*
X50190000Y44300000D03*
G04 #@! TD*
D11*
G04 #@! TO.P,S10,1*
G04 #@! TO.N,index_bottom*
X68725000Y17850000D03*
G04 #@! TO.P,S10,2*
G04 #@! TO.N,P18*
X80275000Y15650000D03*
G04 #@! TD*
D12*
G04 #@! TO.P,D10,2*
G04 #@! TO.N,index_bottom*
X73650000Y6900000D03*
G04 #@! TO.P,D10,1*
G04 #@! TO.N,P7*
X70350000Y6900000D03*
D13*
G04 #@! TO.N,index_bottom*
X75810000Y6900000D03*
D14*
G04 #@! TO.P,D10,2*
G04 #@! TO.N,P7*
X68190000Y6900000D03*
G04 #@! TD*
D11*
G04 #@! TO.P,S11,1*
G04 #@! TO.N,index_home*
X68725000Y34850000D03*
G04 #@! TO.P,S11,2*
G04 #@! TO.N,P18*
X80275000Y32650000D03*
G04 #@! TD*
D12*
G04 #@! TO.P,D11,2*
G04 #@! TO.N,index_home*
X73650000Y23900000D03*
G04 #@! TO.P,D11,1*
G04 #@! TO.N,P6*
X70350000Y23900000D03*
D13*
G04 #@! TO.N,index_home*
X75810000Y23900000D03*
D14*
G04 #@! TO.P,D11,2*
G04 #@! TO.N,P6*
X68190000Y23900000D03*
G04 #@! TD*
D11*
G04 #@! TO.P,S12,1*
G04 #@! TO.N,index_top*
X68725000Y51850000D03*
G04 #@! TO.P,S12,2*
G04 #@! TO.N,P18*
X80275000Y49650000D03*
G04 #@! TD*
D12*
G04 #@! TO.P,D12,2*
G04 #@! TO.N,index_top*
X73650000Y40900000D03*
G04 #@! TO.P,D12,1*
G04 #@! TO.N,P5*
X70350000Y40900000D03*
D13*
G04 #@! TO.N,index_top*
X75810000Y40900000D03*
D14*
G04 #@! TO.P,D12,2*
G04 #@! TO.N,P5*
X68190000Y40900000D03*
G04 #@! TD*
D11*
G04 #@! TO.P,S13,1*
G04 #@! TO.N,inner_bottom*
X86725000Y16150000D03*
G04 #@! TO.P,S13,2*
G04 #@! TO.N,P15*
X98275000Y13950000D03*
G04 #@! TD*
D12*
G04 #@! TO.P,D13,2*
G04 #@! TO.N,inner_bottom*
X91650000Y5200000D03*
G04 #@! TO.P,D13,1*
G04 #@! TO.N,P7*
X88350000Y5200000D03*
D13*
G04 #@! TO.N,inner_bottom*
X93810000Y5200000D03*
D14*
G04 #@! TO.P,D13,2*
G04 #@! TO.N,P7*
X86190000Y5200000D03*
G04 #@! TD*
D11*
G04 #@! TO.P,S14,1*
G04 #@! TO.N,inner_home*
X86725000Y33150000D03*
G04 #@! TO.P,S14,2*
G04 #@! TO.N,P15*
X98275000Y30950000D03*
G04 #@! TD*
D12*
G04 #@! TO.P,D14,2*
G04 #@! TO.N,inner_home*
X91650000Y22200000D03*
G04 #@! TO.P,D14,1*
G04 #@! TO.N,P6*
X88350000Y22200000D03*
D13*
G04 #@! TO.N,inner_home*
X93810000Y22200000D03*
D14*
G04 #@! TO.P,D14,2*
G04 #@! TO.N,P6*
X86190000Y22200000D03*
G04 #@! TD*
D11*
G04 #@! TO.P,S15,1*
G04 #@! TO.N,inner_top*
X86725000Y50150000D03*
G04 #@! TO.P,S15,2*
G04 #@! TO.N,P15*
X98275000Y47950000D03*
G04 #@! TD*
D12*
G04 #@! TO.P,D15,2*
G04 #@! TO.N,inner_top*
X91650000Y39200000D03*
G04 #@! TO.P,D15,1*
G04 #@! TO.N,P5*
X88350000Y39200000D03*
D13*
G04 #@! TO.N,inner_top*
X93810000Y39200000D03*
D14*
G04 #@! TO.P,D15,2*
G04 #@! TO.N,P5*
X86190000Y39200000D03*
G04 #@! TD*
G04 #@! TA.AperFunction,SMDPad,CuDef*
D15*
G04 #@! TO.P,S16,1*
G04 #@! TO.N,near_thumb*
G36*
X79677698Y-3743348D02*
G01*
X80350627Y-1231941D01*
X82862034Y-1904870D01*
X82189105Y-4416277D01*
X79677698Y-3743348D01*
G37*
G04 #@! TD.AperFunction*
G04 #@! TA.AperFunction,SMDPad,CuDef*
G04 #@! TO.P,S16,2*
G04 #@! TO.N,P19*
G36*
X90264740Y-8857745D02*
G01*
X90937669Y-6346338D01*
X93449076Y-7019267D01*
X92776147Y-9530674D01*
X90264740Y-8857745D01*
G37*
G04 #@! TD.AperFunction*
G04 #@! TD*
G04 #@! TA.AperFunction,SMDPad,CuDef*
G04 #@! TO.P,D16,2*
G04 #@! TO.N,near_thumb*
G36*
X82603020Y-15138737D02*
G01*
X82913603Y-13979626D01*
X83782936Y-14212563D01*
X83472353Y-15371674D01*
X82603020Y-15138737D01*
G37*
G04 #@! TD.AperFunction*
G04 #@! TA.AperFunction,SMDPad,CuDef*
G04 #@! TO.P,D16,1*
G04 #@! TO.N,P4*
G36*
X79415464Y-14284637D02*
G01*
X79726047Y-13125526D01*
X80595380Y-13358463D01*
X80284797Y-14517574D01*
X79415464Y-14284637D01*
G37*
G04 #@! TD.AperFunction*
D13*
G04 #@! TO.N,near_thumb*
X85279377Y-15234702D03*
G04 #@! TA.AperFunction,ComponentPad*
D16*
G04 #@! TO.P,D16,2*
G04 #@! TO.N,P4*
G36*
X76830225Y-13891116D02*
G01*
X77290405Y-12173700D01*
X79007821Y-12633880D01*
X78547641Y-14351296D01*
X76830225Y-13891116D01*
G37*
G04 #@! TD.AperFunction*
G04 #@! TD*
G04 #@! TA.AperFunction,SMDPad,CuDef*
D15*
G04 #@! TO.P,S17,1*
G04 #@! TO.N,home_thumb*
G36*
X99793934Y-10782982D02*
G01*
X101093934Y-8531316D01*
X103345600Y-9831316D01*
X102045600Y-12082982D01*
X99793934Y-10782982D01*
G37*
G04 #@! TD.AperFunction*
G04 #@! TA.AperFunction,SMDPad,CuDef*
G04 #@! TO.P,S17,2*
G04 #@! TO.N,P18*
G36*
X108696527Y-18463238D02*
G01*
X109996527Y-16211572D01*
X112248193Y-17511572D01*
X110948193Y-19763238D01*
X108696527Y-18463238D01*
G37*
G04 #@! TD.AperFunction*
G04 #@! TD*
G04 #@! TA.AperFunction,SMDPad,CuDef*
G04 #@! TO.P,D17,2*
G04 #@! TO.N,home_thumb*
G36*
X99670131Y-22547315D02*
G01*
X100270131Y-21508085D01*
X101049553Y-21958085D01*
X100449553Y-22997315D01*
X99670131Y-22547315D01*
G37*
G04 #@! TD.AperFunction*
G04 #@! TA.AperFunction,SMDPad,CuDef*
G04 #@! TO.P,D17,1*
G04 #@! TO.N,P4*
G36*
X96812247Y-20897315D02*
G01*
X97412247Y-19858085D01*
X98191669Y-20308085D01*
X97591669Y-21347315D01*
X96812247Y-20897315D01*
G37*
G04 #@! TD.AperFunction*
D13*
G04 #@! TO.N,home_thumb*
X102230457Y-23332700D03*
G04 #@! TA.AperFunction,ComponentPad*
D16*
G04 #@! TO.P,D17,2*
G04 #@! TO.N,P4*
G36*
X94416946Y-19848097D02*
G01*
X95305946Y-18308303D01*
X96845740Y-19197303D01*
X95956740Y-20737097D01*
X94416946Y-19848097D01*
G37*
G04 #@! TD.AperFunction*
G04 #@! TD*
G04 #@! TA.AperFunction,SMDPad,CuDef*
D15*
G04 #@! TO.P,S18,1*
G04 #@! TO.N,far_thumb*
G36*
X117402033Y-22789240D02*
G01*
X119240511Y-20950762D01*
X121078989Y-22789240D01*
X119240511Y-24627718D01*
X117402033Y-22789240D01*
G37*
G04 #@! TD.AperFunction*
G04 #@! TA.AperFunction,SMDPad,CuDef*
G04 #@! TO.P,S18,2*
G04 #@! TO.N,P15*
G36*
X124013481Y-32511958D02*
G01*
X125851959Y-30673480D01*
X127690437Y-32511958D01*
X125851959Y-34350436D01*
X124013481Y-32511958D01*
G37*
G04 #@! TD.AperFunction*
G04 #@! TD*
G04 #@! TA.AperFunction,SMDPad,CuDef*
G04 #@! TO.P,D18,2*
G04 #@! TO.N,far_thumb*
G36*
X114238264Y-34120592D02*
G01*
X115086792Y-33272064D01*
X115723188Y-33908460D01*
X114874660Y-34756988D01*
X114238264Y-34120592D01*
G37*
G04 #@! TD.AperFunction*
G04 #@! TA.AperFunction,SMDPad,CuDef*
G04 #@! TO.P,D18,1*
G04 #@! TO.N,P4*
G36*
X111904812Y-31787140D02*
G01*
X112753340Y-30938612D01*
X113389736Y-31575008D01*
X112541208Y-32423536D01*
X111904812Y-31787140D01*
G37*
G04 #@! TD.AperFunction*
D13*
G04 #@! TO.N,far_thumb*
X116508077Y-35541877D03*
G04 #@! TA.AperFunction,ComponentPad*
D16*
G04 #@! TO.P,D18,2*
G04 #@! TO.N,P4*
G36*
X109862687Y-30153723D02*
G01*
X111119923Y-28896487D01*
X112377159Y-30153723D01*
X111119923Y-31410959D01*
X109862687Y-30153723D01*
G37*
G04 #@! TD.AperFunction*
G04 #@! TD*
D17*
G04 #@! TO.N,P21*
X24497000Y30845400D03*
X25550200Y26248800D03*
G04 #@! TO.N,P20*
X44275000Y41372200D03*
G04 #@! TO.N,P19*
X54459300Y46354200D03*
X62275000Y40166400D03*
X92042500Y-1812300D03*
G04 #@! TO.N,P18*
X79550200Y37302300D03*
X110472400Y-9264100D03*
G04 #@! TO.N,P15*
X98275000Y21896700D03*
X121164200Y-20809300D03*
G04 #@! TD*
D18*
G04 #@! TO.N,pinky_bottom*
X19650000Y-5000000D02*
X18874700Y-5000000D01*
X18874700Y-5000000D02*
X15921700Y-2047000D01*
X15921700Y-2047000D02*
X15921700Y4753300D01*
X15921700Y4753300D02*
X14725000Y5950000D01*
X21810000Y-5000000D02*
X19650000Y-5000000D01*
G04 #@! TO.N,P21*
X24497000Y30845400D02*
X26275000Y32623400D01*
X26275000Y32623400D02*
X26275000Y37750000D01*
X25550200Y26248800D02*
X25550200Y23100100D01*
X25550200Y23100100D02*
X26275000Y22375300D01*
X26275000Y20750000D02*
X26275000Y3750000D01*
X26275000Y21256000D02*
X26275000Y20750000D01*
X26275000Y21256000D02*
X26275000Y22375300D01*
G04 #@! TO.N,P7*
X32190000Y6900000D02*
X32190000Y3173400D01*
X32190000Y3173400D02*
X22679300Y-6337300D01*
X22679300Y-6337300D02*
X18462600Y-6337300D01*
X18462600Y-6337300D02*
X17125300Y-5000000D01*
X16350000Y-5000000D02*
X17125300Y-5000000D01*
X34350000Y6900000D02*
X32190000Y6900000D01*
X16350000Y-5000000D02*
X14190000Y-5000000D01*
X52350000Y10300000D02*
X50190000Y10300000D01*
X70350000Y6900000D02*
X68190000Y6900000D01*
X88350000Y5200000D02*
X86190000Y5200000D01*
G04 #@! TO.N,pinky_home*
X19650000Y12000000D02*
X18874700Y12000000D01*
X18874700Y12000000D02*
X15921700Y14953000D01*
X15921700Y14953000D02*
X15921700Y21753300D01*
X15921700Y21753300D02*
X14725000Y22950000D01*
X21810000Y12000000D02*
X19650000Y12000000D01*
G04 #@! TO.N,P6*
X52350000Y27300000D02*
X53125300Y27300000D01*
X68190000Y23900000D02*
X56525300Y23900000D01*
X56525300Y23900000D02*
X53125300Y27300000D01*
X70350000Y23900000D02*
X68190000Y23900000D01*
X16350000Y12000000D02*
X14190000Y12000000D01*
X34350000Y23900000D02*
X32190000Y23900000D01*
X52350000Y27300000D02*
X50190000Y27300000D01*
X88350000Y22200000D02*
X86190000Y22200000D01*
G04 #@! TO.N,pinky_top*
X19650000Y29000000D02*
X18874700Y29000000D01*
X18874700Y29000000D02*
X15921700Y31953000D01*
X15921700Y31953000D02*
X15921700Y38753300D01*
X15921700Y38753300D02*
X14725000Y39950000D01*
X21810000Y29000000D02*
X19650000Y29000000D01*
G04 #@! TO.N,P5*
X17125300Y29000000D02*
X18413700Y27711600D01*
X18413700Y27711600D02*
X22389000Y27711600D01*
X22389000Y27711600D02*
X32190000Y37512600D01*
X32190000Y37512600D02*
X32190000Y40900000D01*
X16350000Y29000000D02*
X17125300Y29000000D01*
X34350000Y40900000D02*
X32190000Y40900000D01*
X52350000Y44300000D02*
X53125300Y44300000D01*
X68190000Y40900000D02*
X56525300Y40900000D01*
X56525300Y40900000D02*
X53125300Y44300000D01*
X70350000Y40900000D02*
X68190000Y40900000D01*
X16350000Y29000000D02*
X14190000Y29000000D01*
X52350000Y44300000D02*
X50190000Y44300000D01*
X88350000Y39200000D02*
X86190000Y39200000D01*
G04 #@! TO.N,ring_bottom*
X37650000Y6900000D02*
X36874700Y6900000D01*
X36874700Y6900000D02*
X33921700Y9853000D01*
X33921700Y9853000D02*
X33921700Y16653300D01*
X33921700Y16653300D02*
X32725000Y17850000D01*
X39810000Y6900000D02*
X37650000Y6900000D01*
G04 #@! TO.N,P20*
X44275000Y41372200D02*
X44275000Y32650000D01*
X44275000Y49650000D02*
X44275000Y41372200D01*
X44275000Y32650000D02*
X44275000Y15650000D01*
G04 #@! TO.N,ring_home*
X37650000Y23900000D02*
X36874700Y23900000D01*
X36874700Y23900000D02*
X33921700Y26853000D01*
X33921700Y26853000D02*
X33921700Y33653300D01*
X33921700Y33653300D02*
X32725000Y34850000D01*
X39810000Y23900000D02*
X37650000Y23900000D01*
G04 #@! TO.N,ring_top*
X37650000Y40900000D02*
X36874700Y40900000D01*
X36874700Y40900000D02*
X33921700Y43853000D01*
X33921700Y43853000D02*
X33921700Y50653300D01*
X33921700Y50653300D02*
X32725000Y51850000D01*
X39810000Y40900000D02*
X37650000Y40900000D01*
G04 #@! TO.N,middle_bottom*
X55650000Y10300000D02*
X54874700Y10300000D01*
X54874700Y10300000D02*
X51921700Y13253000D01*
X51921700Y13253000D02*
X51921700Y20053300D01*
X51921700Y20053300D02*
X50725000Y21250000D01*
X57810000Y10300000D02*
X55650000Y10300000D01*
G04 #@! TO.N,P19*
X62275000Y53050000D02*
X60431800Y54893200D01*
X60431800Y54893200D02*
X58221200Y54893200D01*
X58221200Y54893200D02*
X56566300Y53238300D01*
X56566300Y53238300D02*
X56566300Y48461200D01*
X56566300Y48461200D02*
X54459300Y46354200D01*
X62275000Y37675300D02*
X62275000Y40166400D01*
X62275000Y36050000D02*
X62275000Y37675300D01*
X62275000Y36050000D02*
X62275000Y34424700D01*
X62275000Y18150100D02*
X65395200Y21270300D01*
X65395200Y21270300D02*
X69252500Y21270300D01*
X69252500Y21270300D02*
X71125400Y23143200D01*
X71125400Y23143200D02*
X71125400Y24654700D01*
X71125400Y24654700D02*
X68161200Y27618900D01*
X68161200Y27618900D02*
X68161200Y28907200D01*
X68161200Y28907200D02*
X62643700Y34424700D01*
X62643700Y34424700D02*
X62275000Y34424700D01*
X62275000Y18150100D02*
X62275000Y19050000D01*
X92042500Y-1812300D02*
X87866200Y2364000D01*
X87866200Y2364000D02*
X76614400Y2364000D01*
X76614400Y2364000D02*
X68566800Y10411600D01*
X68566800Y10411600D02*
X66307600Y10411600D01*
X66307600Y10411600D02*
X62275000Y14444200D01*
X62275000Y14444200D02*
X62275000Y18150100D01*
X92390300Y-5947800D02*
X92390200Y-5947800D01*
X92390200Y-5947800D02*
X92042500Y-5600100D01*
X92042500Y-5600100D02*
X92042500Y-1812300D01*
X91856900Y-7938500D02*
X92390300Y-5947800D01*
G04 #@! TO.N,middle_home*
X55650000Y27300000D02*
X54874700Y27300000D01*
X54874700Y27300000D02*
X51921700Y30253000D01*
X51921700Y30253000D02*
X51921700Y37053300D01*
X51921700Y37053300D02*
X50725000Y38250000D01*
X57810000Y27300000D02*
X55650000Y27300000D01*
G04 #@! TO.N,middle_top*
X55650000Y44300000D02*
X54874700Y44300000D01*
X54874700Y44300000D02*
X51921700Y47253000D01*
X51921700Y47253000D02*
X51921700Y54053300D01*
X51921700Y54053300D02*
X50725000Y55250000D01*
X57810000Y44300000D02*
X55650000Y44300000D01*
G04 #@! TO.N,index_bottom*
X73650000Y6900000D02*
X72874700Y6900000D01*
X72874700Y6900000D02*
X69921700Y9853000D01*
X69921700Y9853000D02*
X69921700Y16653300D01*
X69921700Y16653300D02*
X68725000Y17850000D01*
X75810000Y6900000D02*
X73650000Y6900000D01*
G04 #@! TO.N,P18*
X79550200Y37302300D02*
X79550200Y35000100D01*
X79550200Y35000100D02*
X80275000Y34275300D01*
X80275000Y48024700D02*
X79550200Y47299900D01*
X79550200Y47299900D02*
X79550200Y37302300D01*
X81037100Y15650000D02*
X81900300Y15650000D01*
X80275000Y15650000D02*
X81037100Y15650000D01*
X80275000Y32650000D02*
X80275000Y16412100D01*
X80275000Y16412100D02*
X81037100Y15650000D01*
X80275000Y33031100D02*
X80275000Y32650000D01*
X80275000Y33031100D02*
X80275000Y34275300D01*
X80275000Y49650000D02*
X80275000Y48024700D01*
X110472400Y-9264100D02*
X104542400Y-9264100D01*
X104542400Y-9264100D02*
X86136000Y9142300D01*
X86136000Y9142300D02*
X86136000Y10232500D01*
X86136000Y10232500D02*
X81900300Y14468200D01*
X81900300Y14468200D02*
X81900300Y15650000D01*
X111502800Y-16202700D02*
X110472400Y-15172300D01*
X110472400Y-15172300D02*
X110472400Y-9264100D01*
X110472400Y-17987400D02*
X111502800Y-16202700D01*
G04 #@! TO.N,index_home*
X73650000Y23900000D02*
X72874700Y23900000D01*
X72874700Y23900000D02*
X69921700Y26853000D01*
X69921700Y26853000D02*
X69921700Y33653300D01*
X69921700Y33653300D02*
X68725000Y34850000D01*
X75810000Y23900000D02*
X73650000Y23900000D01*
G04 #@! TO.N,index_top*
X73650000Y40900000D02*
X72874700Y40900000D01*
X72874700Y40900000D02*
X69921700Y43853000D01*
X69921700Y43853000D02*
X69921700Y50653300D01*
X69921700Y50653300D02*
X68725000Y51850000D01*
X75810000Y40900000D02*
X73650000Y40900000D01*
G04 #@! TO.N,inner_bottom*
X90874700Y5200000D02*
X87921700Y8153000D01*
X87921700Y8153000D02*
X87921700Y14953300D01*
X87921700Y14953300D02*
X86725000Y16150000D01*
X91650000Y5200000D02*
X90874700Y5200000D01*
X93810000Y5200000D02*
X91650000Y5200000D01*
G04 #@! TO.N,P15*
X98275000Y21896700D02*
X98275000Y13950000D01*
X98275000Y30950000D02*
X98275000Y21896700D01*
X98275000Y47950000D02*
X98275000Y30950000D01*
X121164200Y-20809300D02*
X121164200Y-10564500D01*
X121164200Y-10564500D02*
X98275000Y12324700D01*
X125852000Y-32512000D02*
X125852000Y-25497100D01*
X125852000Y-25497100D02*
X121164200Y-20809300D01*
X98275000Y13950000D02*
X98275000Y12324700D01*
G04 #@! TO.N,inner_home*
X91650000Y22200000D02*
X90874700Y22200000D01*
X90874700Y22200000D02*
X87921700Y25153000D01*
X87921700Y25153000D02*
X87921700Y31953300D01*
X87921700Y31953300D02*
X86725000Y33150000D01*
X93810000Y22200000D02*
X91650000Y22200000D01*
G04 #@! TO.N,inner_top*
X91650000Y39200000D02*
X90874700Y39200000D01*
X90874700Y39200000D02*
X87921700Y42153000D01*
X87921700Y42153000D02*
X87921700Y48953300D01*
X87921700Y48953300D02*
X86725000Y50150000D01*
X93810000Y39200000D02*
X91650000Y39200000D01*
G04 #@! TO.N,near_thumb*
X83193000Y-14675700D02*
X82204500Y-14410800D01*
X81269900Y-2824100D02*
X81269900Y-7663200D01*
X81269900Y-7663200D02*
X80850800Y-8082300D01*
X80850800Y-8082300D02*
X80850800Y-12333500D01*
X80850800Y-12333500D02*
X82204500Y-13687200D01*
X82204500Y-13687200D02*
X82204500Y-14410800D01*
X83193000Y-14675700D02*
X84181400Y-14940500D01*
X85279400Y-15234700D02*
X84475500Y-15234700D01*
X84475500Y-15234700D02*
X84181400Y-14940600D01*
X84181400Y-14940600D02*
X84181400Y-14940500D01*
G04 #@! TO.N,P4*
X97502000Y-20602700D02*
X96615800Y-20091100D01*
X96615800Y-20091100D02*
X96199700Y-20091100D01*
X96199700Y-20091100D02*
X95631300Y-19522700D01*
X111119900Y-30153700D02*
X112647300Y-31681100D01*
X80005400Y-13821500D02*
X79017000Y-13556700D01*
X79017000Y-13556700D02*
X78213200Y-13556700D01*
X78213200Y-13556700D02*
X77919000Y-13262500D01*
G04 #@! TO.N,home_thumb*
X102230500Y-23332700D02*
X103499700Y-22063500D01*
X103499700Y-22063500D02*
X103499700Y-15976700D01*
X103499700Y-15976700D02*
X101569800Y-14046800D01*
X101569800Y-14046800D02*
X101569800Y-10307100D01*
X102230500Y-23332700D02*
X101814400Y-23332700D01*
X101814400Y-23332700D02*
X101246000Y-22764300D01*
X100359800Y-22252700D02*
X101246000Y-22764300D01*
G04 #@! TO.N,far_thumb*
X116508100Y-35541900D02*
X119405700Y-32644300D01*
X119405700Y-32644300D02*
X119405700Y-22954400D01*
X119405700Y-22954400D02*
X119240500Y-22789200D01*
X116508100Y-35541900D02*
X114980700Y-34014500D01*
G04 #@! TD*
M02*
