G04 #@! TF.GenerationSoftware,KiCad,Pcbnew,5.1.5+dfsg1-2build2*
G04 #@! TF.CreationDate,2021-11-13T16:54:26+00:00*
G04 #@! TF.ProjectId,top_plate,746f705f-706c-4617-9465-2e6b69636164,VERSION_HERE*
G04 #@! TF.SameCoordinates,Original*
G04 #@! TF.FileFunction,Legend,Bot*
G04 #@! TF.FilePolarity,Positive*
%FSLAX46Y46*%
G04 Gerber Fmt 4.6, Leading zero omitted, Abs format (unit mm)*
G04 Created by KiCad (PCBNEW 5.1.5+dfsg1-2build2) date 2021-11-13 16:54:26*
%MOMM*%
%LPD*%
G04 APERTURE LIST*
G04 #@! TA.AperFunction,Profile*
%ADD10C,0.150000*%
G04 #@! TD*
G04 APERTURE END LIST*
D10*
X10000000Y-9500000D02*
X26000000Y-9500000D01*
X8000000Y-7500000D02*
X8000000Y41500000D01*
X10000000Y-9500000D02*
G75*
G02X8000000Y-7500000I0J2000000D01*
G01*
X26000000Y43500000D02*
X10000000Y43500000D01*
X8000000Y41500000D02*
G75*
G02X10000000Y43500000I2000000J0D01*
G01*
X44000000Y55400000D02*
X28000000Y55400000D01*
X26000000Y53400000D02*
G75*
G02X28000000Y55400000I2000000J0D01*
G01*
X26000000Y53400000D02*
X26000000Y43500000D01*
X64000000Y55400000D02*
X64000000Y56800000D01*
X62000000Y58800000D02*
G75*
G02X64000000Y56800000I0J-2000000D01*
G01*
X62000000Y58800000D02*
X46000000Y58800000D01*
X44000000Y56800000D02*
G75*
G02X46000000Y58800000I2000000J0D01*
G01*
X44000000Y56800000D02*
X44000000Y55400000D01*
X80000000Y55400000D02*
G75*
G02X81977391Y53699872I0J-2000000D01*
G01*
X80000000Y55400000D02*
X64000000Y55400000D01*
X100000000Y2700000D02*
X100000000Y51700000D01*
X98000000Y53700000D02*
G75*
G02X100000000Y51700000I0J-2000000D01*
G01*
X98000000Y53700000D02*
X82000000Y53700000D01*
X81977391Y53699872D02*
G75*
G02X82000000Y53700000I22609J-1999872D01*
G01*
X119117258Y-41686664D02*
G75*
G02X116288831Y-41686665I-1414214J1414213D01*
G01*
X119117258Y-41686665D02*
X129723860Y-31080063D01*
X129723859Y-28251636D02*
G75*
G02X129723860Y-31080063I-1414213J-1414214D01*
G01*
X100000000Y2700000D02*
X129723860Y-28251636D01*
X116288831Y-41686665D02*
X72707107Y-16524745D01*
X72707107Y-16524745D02*
X26000000Y-9500000D01*
X11000000Y-7000000D02*
X25000000Y-7000000D01*
X25000000Y-7000000D02*
X25000000Y7000000D01*
X25000000Y7000000D02*
X11000000Y7000000D01*
X11000000Y7000000D02*
X11000000Y-7000000D01*
X11000000Y10000000D02*
X25000000Y10000000D01*
X25000000Y10000000D02*
X25000000Y24000000D01*
X25000000Y24000000D02*
X11000000Y24000000D01*
X11000000Y24000000D02*
X11000000Y10000000D01*
X11000000Y27000000D02*
X25000000Y27000000D01*
X25000000Y27000000D02*
X25000000Y41000000D01*
X25000000Y41000000D02*
X11000000Y41000000D01*
X11000000Y41000000D02*
X11000000Y27000000D01*
X29000000Y4900000D02*
X43000000Y4900000D01*
X43000000Y4900000D02*
X43000000Y18900000D01*
X43000000Y18900000D02*
X29000000Y18900000D01*
X29000000Y18900000D02*
X29000000Y4900000D01*
X29000000Y21900000D02*
X43000000Y21900000D01*
X43000000Y21900000D02*
X43000000Y35900000D01*
X43000000Y35900000D02*
X29000000Y35900000D01*
X29000000Y35900000D02*
X29000000Y21900000D01*
X29000000Y38900000D02*
X43000000Y38900000D01*
X43000000Y38900000D02*
X43000000Y52900000D01*
X43000000Y52900000D02*
X29000000Y52900000D01*
X29000000Y52900000D02*
X29000000Y38900000D01*
X47000000Y8300000D02*
X61000000Y8300000D01*
X61000000Y8300000D02*
X61000000Y22300000D01*
X61000000Y22300000D02*
X47000000Y22300000D01*
X47000000Y22300000D02*
X47000000Y8300000D01*
X47000000Y25300000D02*
X61000000Y25300000D01*
X61000000Y25300000D02*
X61000000Y39300000D01*
X61000000Y39300000D02*
X47000000Y39300000D01*
X47000000Y39300000D02*
X47000000Y25300000D01*
X47000000Y42300000D02*
X61000000Y42300000D01*
X61000000Y42300000D02*
X61000000Y56300000D01*
X61000000Y56300000D02*
X47000000Y56300000D01*
X47000000Y56300000D02*
X47000000Y42300000D01*
X65000000Y4900000D02*
X79000000Y4900000D01*
X79000000Y4900000D02*
X79000000Y18900000D01*
X79000000Y18900000D02*
X65000000Y18900000D01*
X65000000Y18900000D02*
X65000000Y4900000D01*
X65000000Y21900000D02*
X79000000Y21900000D01*
X79000000Y21900000D02*
X79000000Y35900000D01*
X79000000Y35900000D02*
X65000000Y35900000D01*
X65000000Y35900000D02*
X65000000Y21900000D01*
X65000000Y38900000D02*
X79000000Y38900000D01*
X79000000Y38900000D02*
X79000000Y52900000D01*
X79000000Y52900000D02*
X65000000Y52900000D01*
X65000000Y52900000D02*
X65000000Y38900000D01*
X83000000Y3200000D02*
X97000000Y3200000D01*
X97000000Y3200000D02*
X97000000Y17200000D01*
X97000000Y17200000D02*
X83000000Y17200000D01*
X83000000Y17200000D02*
X83000000Y3200000D01*
X83000000Y20200000D02*
X97000000Y20200000D01*
X97000000Y20200000D02*
X97000000Y34200000D01*
X97000000Y34200000D02*
X83000000Y34200000D01*
X83000000Y34200000D02*
X83000000Y20200000D01*
X83000000Y37200000D02*
X97000000Y37200000D01*
X97000000Y37200000D02*
X97000000Y51200000D01*
X97000000Y51200000D02*
X83000000Y51200000D01*
X83000000Y51200000D02*
X83000000Y37200000D01*
X74320080Y-14368749D02*
X87843042Y-17992216D01*
X87843042Y-17992216D02*
X91466508Y-4469254D01*
X91466508Y-4469254D02*
X77943547Y-845788D01*
X77943547Y-845788D02*
X74320080Y-14368749D01*
X91868716Y-19659705D02*
X103993071Y-26659705D01*
X103993071Y-26659705D02*
X110993071Y-14535349D01*
X110993071Y-14535349D02*
X98868716Y-7535349D01*
X98868716Y-7535349D02*
X91868716Y-19659705D01*
X107449996Y-29312296D02*
X117349491Y-39211791D01*
X117349491Y-39211791D02*
X127248986Y-29312296D01*
X127248986Y-29312296D02*
X117349491Y-19412801D01*
X117349491Y-19412801D02*
X107449996Y-29312296D01*
X28050000Y28900000D02*
G75*
G03X28050000Y28900000I-1050000J0D01*
G01*
X28050000Y0D02*
G75*
G03X28050000Y0I-1050000J0D01*
G01*
X82050000Y44200000D02*
G75*
G03X82050000Y44200000I-1050000J0D01*
G01*
X73050000Y-6120000D02*
G75*
G03X73050000Y-6120000I-1050000J0D01*
G01*
X111399134Y-22311939D02*
G75*
G03X111399134Y-22311939I-1050000J0D01*
G01*
M02*
