G04 #@! TF.GenerationSoftware,KiCad,Pcbnew,5.1.5+dfsg1-2build2*
G04 #@! TF.CreationDate,2021-09-18T17:09:23+00:00*
G04 #@! TF.ProjectId,top_plate,746f705f-706c-4617-9465-2e6b69636164,VERSION_HERE*
G04 #@! TF.SameCoordinates,Original*
G04 #@! TF.FileFunction,Legend,Bot*
G04 #@! TF.FilePolarity,Positive*
%FSLAX46Y46*%
G04 Gerber Fmt 4.6, Leading zero omitted, Abs format (unit mm)*
G04 Created by KiCad (PCBNEW 5.1.5+dfsg1-2build2) date 2021-09-18 17:09:23*
%MOMM*%
%LPD*%
G04 APERTURE LIST*
G04 #@! TA.AperFunction,Profile*
%ADD10C,0.150000*%
G04 #@! TD*
%ADD11C,0.100000*%
G04 APERTURE END LIST*
D10*
X10000000Y-9500000D02*
X26000000Y-9500000D01*
X8000000Y-7500000D02*
X8000000Y41500000D01*
X10000000Y-9500000D02*
G75*
G02X8000000Y-7500000I0J2000000D01*
G01*
X26000000Y43500000D02*
X10000000Y43500000D01*
X8000000Y41500000D02*
G75*
G02X10000000Y43500000I2000000J0D01*
G01*
X44000000Y55400000D02*
X28000000Y55400000D01*
X26000000Y53400000D02*
G75*
G02X28000000Y55400000I2000000J0D01*
G01*
X26000000Y53400000D02*
X26000000Y43500000D01*
X64000000Y55400000D02*
X64000000Y56800000D01*
X62000000Y58800000D02*
G75*
G02X64000000Y56800000I0J-2000000D01*
G01*
X62000000Y58800000D02*
X46000000Y58800000D01*
X44000000Y56800000D02*
G75*
G02X46000000Y58800000I2000000J0D01*
G01*
X44000000Y56800000D02*
X44000000Y55400000D01*
X80000000Y55400000D02*
G75*
G02X81977391Y53699872I0J-2000000D01*
G01*
X80000000Y55400000D02*
X64000000Y55400000D01*
X100000000Y2700000D02*
X100000000Y51700000D01*
X98000000Y53700000D02*
G75*
G02X100000000Y51700000I0J-2000000D01*
G01*
X98000000Y53700000D02*
X82000000Y53700000D01*
X81977391Y53699872D02*
G75*
G02X82000000Y53700000I22609J-1999872D01*
G01*
X119117258Y-41686664D02*
G75*
G02X116288831Y-41686665I-1414214J1414213D01*
G01*
X119117258Y-41686665D02*
X129723860Y-31080063D01*
X129723859Y-28251636D02*
G75*
G02X129723860Y-31080063I-1414213J-1414214D01*
G01*
X100000000Y2700000D02*
X129723860Y-28251636D01*
X116288831Y-41686665D02*
X72707107Y-16524745D01*
X72707107Y-16524745D02*
X26000000Y-9500000D01*
X11000000Y-7000000D02*
X25000000Y-7000000D01*
X25000000Y-7000000D02*
X25000000Y7000000D01*
X25000000Y7000000D02*
X11000000Y7000000D01*
X11000000Y7000000D02*
X11000000Y-7000000D01*
X11000000Y10000000D02*
X25000000Y10000000D01*
X25000000Y10000000D02*
X25000000Y24000000D01*
X25000000Y24000000D02*
X11000000Y24000000D01*
X11000000Y24000000D02*
X11000000Y10000000D01*
X11000000Y27000000D02*
X25000000Y27000000D01*
X25000000Y27000000D02*
X25000000Y41000000D01*
X25000000Y41000000D02*
X11000000Y41000000D01*
X11000000Y41000000D02*
X11000000Y27000000D01*
X29000000Y4900000D02*
X43000000Y4900000D01*
X43000000Y4900000D02*
X43000000Y18900000D01*
X43000000Y18900000D02*
X29000000Y18900000D01*
X29000000Y18900000D02*
X29000000Y4900000D01*
X29000000Y21900000D02*
X43000000Y21900000D01*
X43000000Y21900000D02*
X43000000Y35900000D01*
X43000000Y35900000D02*
X29000000Y35900000D01*
X29000000Y35900000D02*
X29000000Y21900000D01*
X29000000Y38900000D02*
X43000000Y38900000D01*
X43000000Y38900000D02*
X43000000Y52900000D01*
X43000000Y52900000D02*
X29000000Y52900000D01*
X29000000Y52900000D02*
X29000000Y38900000D01*
X47000000Y8300000D02*
X61000000Y8300000D01*
X61000000Y8300000D02*
X61000000Y22300000D01*
X61000000Y22300000D02*
X47000000Y22300000D01*
X47000000Y22300000D02*
X47000000Y8300000D01*
X47000000Y25300000D02*
X61000000Y25300000D01*
X61000000Y25300000D02*
X61000000Y39300000D01*
X61000000Y39300000D02*
X47000000Y39300000D01*
X47000000Y39300000D02*
X47000000Y25300000D01*
X47000000Y42300000D02*
X61000000Y42300000D01*
X61000000Y42300000D02*
X61000000Y56300000D01*
X61000000Y56300000D02*
X47000000Y56300000D01*
X47000000Y56300000D02*
X47000000Y42300000D01*
X65000000Y4900000D02*
X79000000Y4900000D01*
X79000000Y4900000D02*
X79000000Y18900000D01*
X79000000Y18900000D02*
X65000000Y18900000D01*
X65000000Y18900000D02*
X65000000Y4900000D01*
X65000000Y21900000D02*
X79000000Y21900000D01*
X79000000Y21900000D02*
X79000000Y35900000D01*
X79000000Y35900000D02*
X65000000Y35900000D01*
X65000000Y35900000D02*
X65000000Y21900000D01*
X65000000Y38900000D02*
X79000000Y38900000D01*
X79000000Y38900000D02*
X79000000Y52900000D01*
X79000000Y52900000D02*
X65000000Y52900000D01*
X65000000Y52900000D02*
X65000000Y38900000D01*
X83000000Y3200000D02*
X97000000Y3200000D01*
X97000000Y3200000D02*
X97000000Y17200000D01*
X97000000Y17200000D02*
X83000000Y17200000D01*
X83000000Y17200000D02*
X83000000Y3200000D01*
X83000000Y20200000D02*
X97000000Y20200000D01*
X97000000Y20200000D02*
X97000000Y34200000D01*
X97000000Y34200000D02*
X83000000Y34200000D01*
X83000000Y34200000D02*
X83000000Y20200000D01*
X83000000Y37200000D02*
X97000000Y37200000D01*
X97000000Y37200000D02*
X97000000Y51200000D01*
X97000000Y51200000D02*
X83000000Y51200000D01*
X83000000Y51200000D02*
X83000000Y37200000D01*
X74320080Y-14368749D02*
X87843042Y-17992216D01*
X87843042Y-17992216D02*
X91466508Y-4469254D01*
X91466508Y-4469254D02*
X77943547Y-845788D01*
X77943547Y-845788D02*
X74320080Y-14368749D01*
X91868716Y-19659705D02*
X103993071Y-26659705D01*
X103993071Y-26659705D02*
X110993071Y-14535349D01*
X110993071Y-14535349D02*
X98868716Y-7535349D01*
X98868716Y-7535349D02*
X91868716Y-19659705D01*
X107449996Y-29312296D02*
X117349491Y-39211791D01*
X117349491Y-39211791D02*
X127248986Y-29312296D01*
X127248986Y-29312296D02*
X117349491Y-19412801D01*
X117349491Y-19412801D02*
X107449996Y-29312296D01*
X28050000Y28900000D02*
G75*
G03X28050000Y28900000I-1050000J0D01*
G01*
X28050000Y0D02*
G75*
G03X28050000Y0I-1050000J0D01*
G01*
X82050000Y44200000D02*
G75*
G03X82050000Y44200000I-1050000J0D01*
G01*
X73050000Y-6120000D02*
G75*
G03X73050000Y-6120000I-1050000J0D01*
G01*
X111399134Y-22311939D02*
G75*
G03X111399134Y-22311939I-1050000J0D01*
G01*
D11*
G04 #@! TO.C,D1*
X18250000Y-5000000D02*
X18750000Y-5000000D01*
X18250000Y-5400000D02*
X17650000Y-5000000D01*
X18250000Y-4600000D02*
X18250000Y-5400000D01*
X17650000Y-5000000D02*
X18250000Y-4600000D01*
X17650000Y-5000000D02*
X17650000Y-5550000D01*
X17650000Y-5000000D02*
X17650000Y-4450000D01*
X17250000Y-5000000D02*
X17650000Y-5000000D01*
G04 #@! TO.C,D2*
X18250000Y12000000D02*
X18750000Y12000000D01*
X18250000Y11600000D02*
X17650000Y12000000D01*
X18250000Y12400000D02*
X18250000Y11600000D01*
X17650000Y12000000D02*
X18250000Y12400000D01*
X17650000Y12000000D02*
X17650000Y11450000D01*
X17650000Y12000000D02*
X17650000Y12550000D01*
X17250000Y12000000D02*
X17650000Y12000000D01*
G04 #@! TO.C,D3*
X18250000Y29000000D02*
X18750000Y29000000D01*
X18250000Y28600000D02*
X17650000Y29000000D01*
X18250000Y29400000D02*
X18250000Y28600000D01*
X17650000Y29000000D02*
X18250000Y29400000D01*
X17650000Y29000000D02*
X17650000Y28450000D01*
X17650000Y29000000D02*
X17650000Y29550000D01*
X17250000Y29000000D02*
X17650000Y29000000D01*
G04 #@! TO.C,D4*
X36250000Y6900000D02*
X36750000Y6900000D01*
X36250000Y6500000D02*
X35650000Y6900000D01*
X36250000Y7300000D02*
X36250000Y6500000D01*
X35650000Y6900000D02*
X36250000Y7300000D01*
X35650000Y6900000D02*
X35650000Y6350000D01*
X35650000Y6900000D02*
X35650000Y7450000D01*
X35250000Y6900000D02*
X35650000Y6900000D01*
G04 #@! TO.C,D5*
X36250000Y23900000D02*
X36750000Y23900000D01*
X36250000Y23500000D02*
X35650000Y23900000D01*
X36250000Y24300000D02*
X36250000Y23500000D01*
X35650000Y23900000D02*
X36250000Y24300000D01*
X35650000Y23900000D02*
X35650000Y23350000D01*
X35650000Y23900000D02*
X35650000Y24450000D01*
X35250000Y23900000D02*
X35650000Y23900000D01*
G04 #@! TO.C,D6*
X36250000Y40900000D02*
X36750000Y40900000D01*
X36250000Y40500000D02*
X35650000Y40900000D01*
X36250000Y41300000D02*
X36250000Y40500000D01*
X35650000Y40900000D02*
X36250000Y41300000D01*
X35650000Y40900000D02*
X35650000Y40350000D01*
X35650000Y40900000D02*
X35650000Y41450000D01*
X35250000Y40900000D02*
X35650000Y40900000D01*
G04 #@! TO.C,D7*
X54250000Y10300000D02*
X54750000Y10300000D01*
X54250000Y9900000D02*
X53650000Y10300000D01*
X54250000Y10700000D02*
X54250000Y9900000D01*
X53650000Y10300000D02*
X54250000Y10700000D01*
X53650000Y10300000D02*
X53650000Y9750000D01*
X53650000Y10300000D02*
X53650000Y10850000D01*
X53250000Y10300000D02*
X53650000Y10300000D01*
G04 #@! TO.C,D8*
X54250000Y27300000D02*
X54750000Y27300000D01*
X54250000Y26900000D02*
X53650000Y27300000D01*
X54250000Y27700000D02*
X54250000Y26900000D01*
X53650000Y27300000D02*
X54250000Y27700000D01*
X53650000Y27300000D02*
X53650000Y26750000D01*
X53650000Y27300000D02*
X53650000Y27850000D01*
X53250000Y27300000D02*
X53650000Y27300000D01*
G04 #@! TO.C,D9*
X54250000Y44300000D02*
X54750000Y44300000D01*
X54250000Y43900000D02*
X53650000Y44300000D01*
X54250000Y44700000D02*
X54250000Y43900000D01*
X53650000Y44300000D02*
X54250000Y44700000D01*
X53650000Y44300000D02*
X53650000Y43750000D01*
X53650000Y44300000D02*
X53650000Y44850000D01*
X53250000Y44300000D02*
X53650000Y44300000D01*
G04 #@! TO.C,D10*
X72250000Y6900000D02*
X72750000Y6900000D01*
X72250000Y6500000D02*
X71650000Y6900000D01*
X72250000Y7300000D02*
X72250000Y6500000D01*
X71650000Y6900000D02*
X72250000Y7300000D01*
X71650000Y6900000D02*
X71650000Y6350000D01*
X71650000Y6900000D02*
X71650000Y7450000D01*
X71250000Y6900000D02*
X71650000Y6900000D01*
G04 #@! TO.C,D11*
X72250000Y23900000D02*
X72750000Y23900000D01*
X72250000Y23500000D02*
X71650000Y23900000D01*
X72250000Y24300000D02*
X72250000Y23500000D01*
X71650000Y23900000D02*
X72250000Y24300000D01*
X71650000Y23900000D02*
X71650000Y23350000D01*
X71650000Y23900000D02*
X71650000Y24450000D01*
X71250000Y23900000D02*
X71650000Y23900000D01*
G04 #@! TO.C,D12*
X72250000Y40900000D02*
X72750000Y40900000D01*
X72250000Y40500000D02*
X71650000Y40900000D01*
X72250000Y41300000D02*
X72250000Y40500000D01*
X71650000Y40900000D02*
X72250000Y41300000D01*
X71650000Y40900000D02*
X71650000Y40350000D01*
X71650000Y40900000D02*
X71650000Y41450000D01*
X71250000Y40900000D02*
X71650000Y40900000D01*
G04 #@! TO.C,D13*
X90250000Y5200000D02*
X90750000Y5200000D01*
X90250000Y4800000D02*
X89650000Y5200000D01*
X90250000Y5600000D02*
X90250000Y4800000D01*
X89650000Y5200000D02*
X90250000Y5600000D01*
X89650000Y5200000D02*
X89650000Y4650000D01*
X89650000Y5200000D02*
X89650000Y5750000D01*
X89250000Y5200000D02*
X89650000Y5200000D01*
G04 #@! TO.C,D14*
X90250000Y22200000D02*
X90750000Y22200000D01*
X90250000Y21800000D02*
X89650000Y22200000D01*
X90250000Y22600000D02*
X90250000Y21800000D01*
X89650000Y22200000D02*
X90250000Y22600000D01*
X89650000Y22200000D02*
X89650000Y21650000D01*
X89650000Y22200000D02*
X89650000Y22750000D01*
X89250000Y22200000D02*
X89650000Y22200000D01*
G04 #@! TO.C,D15*
X90250000Y39200000D02*
X90750000Y39200000D01*
X90250000Y38800000D02*
X89650000Y39200000D01*
X90250000Y39600000D02*
X90250000Y38800000D01*
X89650000Y39200000D02*
X90250000Y39600000D01*
X89650000Y39200000D02*
X89650000Y38650000D01*
X89650000Y39200000D02*
X89650000Y39750000D01*
X89250000Y39200000D02*
X89650000Y39200000D01*
G04 #@! TO.C,D16*
X81840681Y-14313305D02*
X82323644Y-14442714D01*
X81737154Y-14699675D02*
X81261126Y-14158013D01*
X81944209Y-13926934D02*
X81737154Y-14699675D01*
X81261126Y-14158013D02*
X81944209Y-13926934D01*
X81261126Y-14158013D02*
X81118775Y-14689273D01*
X81261126Y-14158013D02*
X81403476Y-13626754D01*
X80874756Y-14054486D02*
X81261126Y-14158013D01*
G04 #@! TO.C,D17*
X99147406Y-21552700D02*
X99580419Y-21802700D01*
X98947406Y-21899110D02*
X98627791Y-21252700D01*
X99347406Y-21206290D02*
X98947406Y-21899110D01*
X98627791Y-21252700D02*
X99347406Y-21206290D01*
X98627791Y-21252700D02*
X98352791Y-21729014D01*
X98627791Y-21252700D02*
X98902791Y-20776386D01*
X98281381Y-21052700D02*
X98627791Y-21252700D01*
G04 #@! TO.C,D18*
X113990777Y-33024577D02*
X114344330Y-33378130D01*
X113707934Y-33307419D02*
X113566513Y-32600313D01*
X114273619Y-32741734D02*
X113707934Y-33307419D01*
X113566513Y-32600313D02*
X114273619Y-32741734D01*
X113566513Y-32600313D02*
X113177604Y-32989221D01*
X113566513Y-32600313D02*
X113955421Y-32211404D01*
X113283670Y-32317470D02*
X113566513Y-32600313D01*
G04 #@! TD*
M02*
