M48
; DRILL file {KiCad 5.1.5+dfsg1-2build2} date Sat Sep 18 17:09:23 2021
; FORMAT={-:-/ absolute / metric / decimal}
; #@! TF.CreationDate,2021-09-18T17:09:23+00:00
; #@! TF.GenerationSoftware,Kicad,Pcbnew,5.1.5+dfsg1-2build2
FMAT,2
METRIC
T1C0.400
T2C0.991
T3C1.702
T4C3.000
T5C3.429
%
G90
G05
T1
X25.622Y25.5
X44.275Y41.372
X62.275Y29.545
X64.287Y34.74
X81.725Y37.477
X91.857Y-0.52
X104.084Y-7.164
X124.486Y-33.878
T2
X68.19Y40.9
X75.81Y40.9
X32.19Y6.9
X39.81Y6.9
X68.19Y23.9
X75.81Y23.9
X68.19Y6.9
X75.81Y6.9
X50.19Y10.3
X57.81Y10.3
X14.19Y29.0
X21.81Y29.0
X111.12Y-30.154
X116.508Y-35.542
X14.19Y12.0
X21.81Y12.0
X86.19Y22.2
X93.81Y22.2
X86.19Y39.2
X93.81Y39.2
X50.19Y44.3
X57.81Y44.3
X32.19Y40.9
X39.81Y40.9
X95.631Y-19.523
X102.23Y-23.333
X14.19Y-5.0
X21.81Y-5.0
X50.19Y27.3
X57.81Y27.3
X86.19Y5.2
X93.81Y5.2
X32.19Y23.9
X39.81Y23.9
X77.919Y-13.262
X85.279Y-15.235
T3
X30.5Y11.9
X41.5Y11.9
X66.5Y28.9
X77.5Y28.9
X12.5Y34.0
X23.5Y34.0
X48.5Y32.3
X59.5Y32.3
X77.581Y-7.995
X88.206Y-10.843
X66.5Y11.9
X77.5Y11.9
X48.5Y15.3
X59.5Y15.3
X113.46Y-25.423
X121.238Y-33.201
X12.5Y17.0
X23.5Y17.0
X84.5Y27.2
X95.5Y27.2
X30.5Y45.9
X41.5Y45.9
X84.5Y44.2
X95.5Y44.2
X12.5Y0.0
X23.5Y0.0
X96.668Y-14.348
X106.194Y-19.848
X48.5Y49.3
X59.5Y49.3
X84.5Y10.2
X95.5Y10.2
X30.5Y28.9
X41.5Y28.9
X66.5Y45.9
X77.5Y45.9
T4
X31.0Y15.65
X36.0Y17.85
X36.0Y17.85
X41.0Y15.65
X67.0Y32.65
X72.0Y34.85
X72.0Y34.85
X77.0Y32.65
X13.0Y37.75
X18.0Y39.95
X18.0Y39.95
X23.0Y37.75
X49.0Y36.05
X54.0Y38.25
X54.0Y38.25
X59.0Y36.05
X79.034Y-4.503
X84.433Y-3.672
X84.433Y-3.672
X88.694Y-7.091
X67.0Y15.65
X72.0Y17.85
X72.0Y17.85
X77.0Y15.65
X49.0Y19.05
X54.0Y21.25
X54.0Y21.25
X59.0Y19.05
X116.465Y-23.125
X121.556Y-25.105
X121.556Y-25.105
X123.536Y-30.196
X13.0Y20.75
X18.0Y22.95
X18.0Y22.95
X23.0Y20.75
X85.0Y30.95
X90.0Y33.15
X90.0Y33.15
X95.0Y30.95
X31.0Y49.65
X36.0Y51.85
X36.0Y51.85
X41.0Y49.65
X85.0Y47.95
X90.0Y50.15
X90.0Y50.15
X95.0Y47.95
X13.0Y3.75
X18.0Y5.95
X18.0Y5.95
X23.0Y3.75
X98.976Y-11.35
X104.406Y-11.945
X104.406Y-11.945
X107.636Y-16.35
X49.0Y53.05
X54.0Y55.25
X54.0Y55.25
X59.0Y53.05
X85.0Y13.95
X90.0Y16.15
X90.0Y16.15
X95.0Y13.95
X31.0Y32.65
X36.0Y34.85
X36.0Y34.85
X41.0Y32.65
X67.0Y49.65
X72.0Y51.85
X72.0Y51.85
X77.0Y49.65
T5
X90.0Y10.2
X36.0Y28.9
X72.0Y45.9
X36.0Y11.9
X72.0Y28.9
X18.0Y34.0
X54.0Y32.3
X82.893Y-9.419
X72.0Y11.9
X54.0Y15.3
X117.349Y-29.312
X18.0Y17.0
X90.0Y27.2
X36.0Y45.9
X90.0Y44.2
X18.0Y0.0
X101.431Y-17.098
X54.0Y49.3
T0
M30
