<svg width="122.31mm" height="101.072mm" viewBox="0 0 122.31 101.072" xmlns="http://www.w3.org/2000/svg"><g id="svgGroup" stroke-linecap="round" fill-rule="evenodd" font-size="9pt" stroke="#000" stroke-width="0.25mm" fill="none" style="stroke:#000;stroke-width:0.25mm;fill:none"><path d="M 2 68.3 L 18 68.3 L 64.707 75.325 L 108.289 100.487 A 2 2 0 0 0 111.117 100.487 L 121.724 89.88 A 2 2 0 0 0 121.724 87.052 L 114 79.009 L 114 8.95 A 2 2 0 0 0 112 6.95 L 91.994 6.95 A 2 2 0 0 0 90 5.1 L 74 5.1 A 2 2 0 0 0 73.977 5.1 A 2 2 0 0 0 72 3.4 L 56 3.4 L 56 2 A 2 2 0 0 0 54 0 L 38 0 A 2 2 0 0 0 36 2 L 36 3.4 L 20 3.4 A 2 2 0 0 0 18 5.4 L 18 15.3 L 2 15.3 A 2 2 0 0 0 0 17.3 L 0 66.3 A 2 2 0 0 0 2 68.3 Z M 19 29.9 m -1 0 a 1 1 0 0 1 2 0 a 1 1 0 0 1 -2 0 z M 19 58.8 m -1 0 a 1 1 0 0 1 2 0 a 1 1 0 0 1 -2 0 z M 73 14.6 m -1 0 a 1 1 0 0 1 2 0 a 1 1 0 0 1 -2 0 z M 64 64.92 m -1 0 a 1 1 0 0 1 2 0 a 1 1 0 0 1 -2 0 z M 102.349 81.112 m -1 0 a 1 1 0 0 1 2 0 a 1 1 0 0 1 -2 0 z" vector-effect="non-scaling-stroke"/></g></svg>