0
SECTION
2
HEADER
9
$INSUNITS
70
4
0
ENDSEC
0
SECTION
2
TABLES
0
TABLE
2
LTYPE
0
LTYPE
72
65
70
64
2
CONTINUOUS
3
______
73
0
40
0
0
ENDTAB
0
TABLE
2
LAYER
0
ENDTAB
0
ENDSEC
0
SECTION
2
ENTITIES
0
LINE
8
0
10
10
20
-8.5
11
26
21
-8.5
0
ARC
8
0
10
26
20
-7.5
40
1
50
270
51
360
0
LINE
8
0
10
27
20
-7.5
11
27
21
4.4
0
ARC
8
0
10
26
20
7.5
40
1
50
0
51
90
0
ARC
8
0
10
10
20
7.5
40
1
50
90
51
180
0
LINE
8
0
10
9
20
7.5
11
9
21
-7.5
0
ARC
8
0
10
10
20
-7.5
40
1
50
180
51
270
0
ARC
8
0
10
26
20
9.5
40
1
50
270
51
360
0
LINE
8
0
10
27
20
19.4
11
27
21
21.4
0
ARC
8
0
10
26
20
24.5
40
1
50
0
51
90
0
ARC
8
0
10
10
20
24.5
40
1
50
90
51
180
0
LINE
8
0
10
9
20
24.5
11
9
21
9.5
0
ARC
8
0
10
10
20
9.5
40
1
50
180
51
270
0
ARC
8
0
10
26
20
26.5
40
1
50
270
51
360
0
LINE
8
0
10
27
20
36.4
11
27
21
38.4
0
ARC
8
0
10
26
20
41.5
40
1
50
0
51
90
0
LINE
8
0
10
26
20
42.5
11
10
21
42.5
0
ARC
8
0
10
10
20
41.5
40
1
50
90
51
180
0
LINE
8
0
10
9
20
41.5
11
9
21
26.5
0
ARC
8
0
10
10
20
26.5
40
1
50
180
51
270
0
LINE
8
0
10
28
20
3.4
11
44
21
3.4
0
ARC
8
0
10
44
20
4.4
40
1
50
270
51
360
0
LINE
8
0
10
45
20
4.4
11
45
21
7.8
0
ARC
8
0
10
44
20
19.4
40
1
50
0
51
90
0
ARC
8
0
10
28
20
19.4
40
1
50
90
51
180
0
LINE
8
0
10
27
20
9.5
11
27
21
7.5
0
ARC
8
0
10
28
20
4.4
40
1
50
180
51
270
0
ARC
8
0
10
44
20
21.4
40
1
50
270
51
360
0
LINE
8
0
10
45
20
22.8
11
45
21
24.8
0
ARC
8
0
10
44
20
36.4
40
1
50
0
51
90
0
ARC
8
0
10
28
20
36.4
40
1
50
90
51
180
0
LINE
8
0
10
27
20
26.5
11
27
21
24.5
0
ARC
8
0
10
28
20
21.4
40
1
50
180
51
270
0
ARC
8
0
10
44
20
38.4
40
1
50
270
51
360
0
LINE
8
0
10
45
20
39.8
11
45
21
41.8
0
ARC
8
0
10
44
20
53.4
40
1
50
0
51
90
0
LINE
8
0
10
44
20
54.4
11
28
21
54.4
0
ARC
8
0
10
28
20
53.4
40
1
50
90
51
180
0
LINE
8
0
10
27
20
53.4
11
27
21
41.5
0
ARC
8
0
10
28
20
38.4
40
1
50
180
51
270
0
LINE
8
0
10
46
20
6.8
11
62
21
6.8
0
ARC
8
0
10
62
20
7.8
40
1
50
270
51
360
0
LINE
8
0
10
63
20
19.4
11
63
21
21.4
0
ARC
8
0
10
62
20
22.8
40
1
50
0
51
90
0
ARC
8
0
10
46
20
22.8
40
1
50
90
51
180
0
LINE
8
0
10
45
20
21.4
11
45
21
19.4
0
ARC
8
0
10
46
20
7.8
40
1
50
180
51
270
0
ARC
8
0
10
62
20
24.8
40
1
50
270
51
360
0
LINE
8
0
10
63
20
36.4
11
63
21
38.4
0
ARC
8
0
10
62
20
39.8
40
1
50
0
51
90
0
ARC
8
0
10
46
20
39.8
40
1
50
90
51
180
0
LINE
8
0
10
45
20
38.4
11
45
21
36.4
0
ARC
8
0
10
46
20
24.8
40
1
50
180
51
270
0
ARC
8
0
10
62
20
41.8
40
1
50
270
51
360
0
LINE
8
0
10
63
20
53.4
11
63
21
56.8
0
ARC
8
0
10
62
20
56.8
40
1
50
0
51
90
0
LINE
8
0
10
62
20
57.8
11
46
21
57.8
0
ARC
8
0
10
46
20
56.8
40
1
50
90
51
180
0
LINE
8
0
10
45
20
56.8
11
45
21
53.4
0
ARC
8
0
10
46
20
41.8
40
1
50
180
51
270
0
LINE
8
0
10
64
20
3.4
11
80
21
3.4
0
ARC
8
0
10
80
20
4.4
40
1
50
270
51
360
0
LINE
8
0
10
81
20
17.7
11
81
21
19.4
0
ARC
8
0
10
80
20
19.4
40
1
50
0
51
90
0
ARC
8
0
10
64
20
19.4
40
1
50
90
51
180
0
LINE
8
0
10
63
20
7.8
11
63
21
4.4
0
ARC
8
0
10
64
20
4.4
40
1
50
180
51
270
0
ARC
8
0
10
80
20
21.4
40
1
50
270
51
360
0
LINE
8
0
10
81
20
34.7
11
81
21
36.4
0
ARC
8
0
10
80
20
36.4
40
1
50
0
51
90
0
ARC
8
0
10
64
20
36.4
40
1
50
90
51
180
0
LINE
8
0
10
63
20
24.8
11
63
21
22.8
0
ARC
8
0
10
64
20
21.4
40
1
50
180
51
270
0
ARC
8
0
10
80
20
38.4
40
1
50
270
51
360
0
LINE
8
0
10
81
20
51.7
11
81
21
53.4
0
ARC
8
0
10
80
20
53.4
40
1
50
0
51
90
0
LINE
8
0
10
80
20
54.4
11
64
21
54.4
0
ARC
8
0
10
64
20
53.4
40
1
50
90
51
180
0
LINE
8
0
10
63
20
41.8
11
63
21
39.8
0
ARC
8
0
10
64
20
38.4
40
1
50
180
51
270
0
LINE
8
0
10
82
20
1.7
11
98
21
1.7
0
ARC
8
0
10
98
20
2.7
40
1
50
270
51
360
0
LINE
8
0
10
99
20
2.7
11
99
21
17.7
0
ARC
8
0
10
98
20
17.7
40
1
50
0
51
90
0
ARC
8
0
10
82
20
17.7
40
1
50
90
51
180
0
LINE
8
0
10
81
20
4.4
11
81
21
2.7
0
ARC
8
0
10
82
20
2.7
40
1
50
180
51
270
0
ARC
8
0
10
98
20
19.7
40
1
50
270
51
360
0
LINE
8
0
10
99
20
19.7
11
99
21
34.7
0
ARC
8
0
10
98
20
34.7
40
1
50
0
51
90
0
ARC
8
0
10
82
20
34.7
40
1
50
90
51
180
0
LINE
8
0
10
81
20
21.4
11
81
21
19.7
0
ARC
8
0
10
82
20
19.7
40
1
50
180
51
270
0
ARC
8
0
10
98
20
36.7
40
1
50
270
51
360
0
LINE
8
0
10
99
20
36.7
11
99
21
51.7
0
ARC
8
0
10
98
20
51.7
40
1
50
0
51
90
0
LINE
8
0
10
98
20
52.7
11
82
21
52.7
0
ARC
8
0
10
82
20
51.7
40
1
50
90
51
180
0
LINE
8
0
10
81
20
38.4
11
81
21
36.7
0
ARC
8
0
10
82
20
36.7
40
1
50
180
51
270
0
LINE
8
0
10
72.9659258
20
-15.5588191
11
88.420739
21
-19.6999238
0
ARC
8
0
10
88.6795581
20
-18.733998
40
1
50
255
51
345
0
LINE
8
0
10
89.6454839
20
-18.992817
11
93.5277696
21
-4.5039296
0
ARC
8
0
10
92.5618437
20
-4.2451106
40
1
50
345
51
75
0
LINE
8
0
10
92.8206628
20
-3.2791847
11
77.3658496
21
0.86192
0
ARC
8
0
10
77.1070305
20
-0.1040058
40
1
50
75
51
165
0
LINE
8
0
10
76.1411047
20
0.1548132
11
72.258819
21
-14.3340742
0
ARC
8
0
10
73.2247449
20
-14.5928932
40
1
50
165
51
255
0
LINE
8
0
10
90.2526903
20
-20.4587428
11
104.1090967
21
-28.4587428
0
ARC
8
0
10
104.6090967
20
-27.5927174
40
1
50
240
51
330
0
LINE
8
0
10
105.4751221
20
-28.0927174
11
112.9751221
21
-15.1023364
0
ARC
8
0
10
112.1090967
20
-14.6023364
40
1
50
330
51
60
0
LINE
8
0
10
112.6090967
20
-13.736311
11
98.7526903
21
-5.736311
0
ARC
8
0
10
98.2526903
20
-6.6023364
40
1
50
60
51
150
0
LINE
8
0
10
97.3866649
20
-6.1023364
11
89.8866649
21
-19.0927174
0
ARC
8
0
10
90.7526903
20
-19.5927174
40
1
50
150
51
240
0
LINE
8
0
10
105.6822289
20
-29.6658496
11
116.9959374
21
-40.9795581
0
ARC
8
0
10
117.7030442
20
-40.2724513
40
1
50
225
51
315
0
LINE
8
0
10
118.410151
20
-40.9795581
11
129.0167527
21
-30.3729564
0
ARC
8
0
10
128.3096459
20
-29.6658496
40
1
50
315
51
45
0
LINE
8
0
10
129.0167527
20
-28.9587428
11
117.7030442
21
-17.6450343
0
ARC
8
0
10
116.9959374
20
-18.3521411
40
1
50
45
51
135
0
LINE
8
0
10
116.2888306
20
-17.6450343
11
105.6822289
21
-28.251636
0
ARC
8
0
10
106.3893357
20
-28.9587428
40
1
50
135
51
225
0
ENDSEC
0
EOF