<svg width="120.31mm" height="99.072mm" viewBox="0 0 120.31 99.072" xmlns="http://www.w3.org/2000/svg"><g id="svgGroup" stroke-linecap="round" fill-rule="evenodd" font-size="9pt" stroke="#000" stroke-width="0.25mm" fill="none" style="stroke:#000;stroke-width:0.25mm;fill:none"><path d="M 1 66.3 L 17 66.3 A 1 1 0 0 0 18 65.3 L 18 53.4 A 1 1 0 0 0 19 54.4 L 35 54.4 A 1 1 0 0 0 36 53.4 L 36 50 A 1 1 0 0 0 37 51 L 53 51 A 1 1 0 0 0 54 50 L 54 53.4 A 1 1 0 0 0 55 54.4 L 71 54.4 A 1 1 0 0 0 72 53.4 L 72 55.1 A 1 1 0 0 0 73 56.1 L 89 56.1 A 1 1 0 0 0 90 55.1 L 90 40.1 A 1 1 0 0 0 89 39.1 A 1 1 0 0 0 90 38.1 L 90 23.1 A 1 1 0 0 0 89 22.1 A 1 1 0 0 0 90 21.1 L 90 6.1 A 1 1 0 0 0 89 5.1 L 73 5.1 A 1 1 0 0 0 72 6.1 L 72 4.4 A 1 1 0 0 0 71 3.4 L 55 3.4 A 1 1 0 0 0 54 4.4 L 54 1 A 1 1 0 0 0 53 0 L 37 0 A 1 1 0 0 0 36 1 L 36 4.4 A 1 1 0 0 0 35 3.4 L 19 3.4 A 1 1 0 0 0 18 4.4 L 18 16.3 A 1 1 0 0 0 17 15.3 L 1 15.3 A 1 1 0 0 0 0 16.3 L 0 31.3 A 1 1 0 0 0 1 32.3 A 1 1 0 0 0 0 33.3 L 0 48.3 A 1 1 0 0 0 1 49.3 A 1 1 0 0 0 0 50.3 L 0 65.3 A 1 1 0 0 0 1 66.3 Z M 63.966 73.359 L 79.421 77.5 A 1 1 0 0 0 80.645 76.793 L 84.528 62.304 A 1 1 0 0 0 83.821 61.079 L 68.366 56.938 A 1 1 0 0 0 67.141 57.645 L 63.259 72.134 A 1 1 0 0 0 63.966 73.359 Z M 96.682 87.466 L 107.996 98.78 A 1 1 0 0 0 109.41 98.78 L 120.017 88.173 A 1 1 0 0 0 120.017 86.759 L 108.703 75.445 A 1 1 0 0 0 107.289 75.445 L 96.682 86.052 A 1 1 0 0 0 96.682 87.466 Z M 81.253 78.259 L 95.109 86.259 A 1 1 0 0 0 96.475 85.893 L 103.975 72.902 A 1 1 0 0 0 103.609 71.536 L 89.753 63.536 A 1 1 0 0 0 88.387 63.902 L 80.887 76.893 A 1 1 0 0 0 81.253 78.259 Z M 72 40.1 L 72 38.4 A 1 1 0 0 0 71 37.4 A 1 1 0 0 0 72 36.4 L 72 38.1 A 1 1 0 0 0 73 39.1 A 1 1 0 0 0 72 40.1 Z M 72 23.1 L 72 21.4 A 1 1 0 0 0 71 20.4 A 1 1 0 0 0 72 19.4 L 72 21.1 A 1 1 0 0 0 73 22.1 A 1 1 0 0 0 72 23.1 Z M 18 50.3 A 1 1 0 0 0 17 49.3 A 1 1 0 0 0 18 48.3 L 18 50.3 Z M 18 38.4 L 18 36.4 A 1 1 0 0 0 19 37.4 A 1 1 0 0 0 18 38.4 Z M 18 33.3 A 1 1 0 0 0 17 32.3 A 1 1 0 0 0 18 31.3 L 18 33.3 Z M 18 21.4 L 18 19.4 A 1 1 0 0 0 19 20.4 A 1 1 0 0 0 18 21.4 Z M 36 38.4 A 1 1 0 0 0 35 37.4 A 1 1 0 0 0 36 36.4 L 36 38.4 Z M 36 21.4 A 1 1 0 0 0 35 20.4 A 1 1 0 0 0 36 19.4 L 36 21.4 Z M 36 18 L 36 16 A 1 1 0 0 0 37 17 A 1 1 0 0 0 36 18 Z M 54 38.4 L 54 36.4 A 1 1 0 0 0 55 37.4 A 1 1 0 0 0 54 38.4 Z M 54 21.4 L 54 19.4 A 1 1 0 0 0 55 20.4 A 1 1 0 0 0 54 21.4 Z M 54 18 A 1 1 0 0 0 53 17 A 1 1 0 0 0 54 16 L 54 18 Z M 36 35 L 36 33 A 1 1 0 0 0 37 34 A 1 1 0 0 0 36 35 Z M 54 35 A 1 1 0 0 0 53 34 A 1 1 0 0 0 54 33 L 54 35 Z" vector-effect="non-scaling-stroke"/></g></svg>