<svg width="86.549mm" height="69.712mm" viewBox="0 0 86.549 69.712" xmlns="http://www.w3.org/2000/svg"><g id="svgGroup" stroke-linecap="round" fill-rule="evenodd" font-size="9pt" stroke="#000" stroke-width="0.25mm" fill="none" style="stroke:#000;stroke-width:0.25mm;fill:none"><path d="M 1.6 16.9 m -1.6 0 a 1.6 1.6 0 0 1 3.2 0 a 1.6 1.6 0 0 1 -3.2 0 z M 1.6 45.8 m -1.6 0 a 1.6 1.6 0 0 1 3.2 0 a 1.6 1.6 0 0 1 -3.2 0 z M 55.6 1.6 m -1.6 0 a 1.6 1.6 0 0 1 3.2 0 a 1.6 1.6 0 0 1 -3.2 0 z M 46.6 51.92 m -1.6 0 a 1.6 1.6 0 0 1 3.2 0 a 1.6 1.6 0 0 1 -3.2 0 z M 84.949 68.112 m -1.6 0 a 1.6 1.6 0 0 1 3.2 0 a 1.6 1.6 0 0 1 -3.2 0 z" vector-effect="non-scaling-stroke"/></g></svg>