0
SECTION
2
HEADER
9
$INSUNITS
70
4
0
ENDSEC
0
SECTION
2
TABLES
0
TABLE
2
LTYPE
0
LTYPE
72
65
70
64
2
CONTINUOUS
3
______
73
0
40
0
0
ENDTAB
0
TABLE
2
LAYER
0
ENDTAB
0
ENDSEC
0
SECTION
2
ENTITIES
0
LINE
8
0
10
10
20
-9.5
11
26
21
-9.5
0
LINE
8
0
10
8
20
-7.5
11
8
21
41.5
0
ARC
8
0
10
10
20
-7.5
40
2
50
180
51
270
0
LINE
8
0
10
26
20
43.5
11
10
21
43.5
0
ARC
8
0
10
10
20
41.5
40
2
50
90
51
180
0
LINE
8
0
10
44
20
55.4
11
28
21
55.4
0
ARC
8
0
10
28
20
53.4
40
2
50
90
51
180
0
LINE
8
0
10
26
20
53.4
11
26
21
43.5
0
LINE
8
0
10
64
20
55.4
11
64
21
56.8
0
ARC
8
0
10
62
20
56.8
40
2
50
0
51
90
0
LINE
8
0
10
62
20
58.8
11
46
21
58.8
0
ARC
8
0
10
46
20
56.8
40
2
50
90
51
180
0
LINE
8
0
10
44
20
56.8
11
44
21
55.4
0
ARC
8
0
10
80
20
53.4
40
2
50
8.6232234
51
90
0
LINE
8
0
10
80
20
55.4
11
64
21
55.4
0
LINE
8
0
10
100
20
2.7
11
100
21
51.7
0
ARC
8
0
10
98
20
51.7
40
2
50
0
51
90
0
LINE
8
0
10
98
20
53.7
11
82
21
53.7
0
ARC
8
0
10
82
20
51.7
40
2
50
90
51
90.6477025
0
ARC
8
0
10
117.7030442
20
-40.2724513
40
2
50
225
51
315
0
LINE
8
0
10
119.1172578
20
-41.6866649
11
129.7238595
21
-31.0800632
0
ARC
8
0
10
128.3096459
20
-29.6658496
40
2
50
315
51
45
0
LINE
8
0
10
100
20
2.7
11
129.7238595
21
-28.251636
0
LINE
8
0
10
116.2888306
20
-41.6866649
11
72.7071068
21
-16.5247449
0
LINE
8
0
10
72.7071068
20
-16.5247449
11
26
21
-9.5
0
LINE
8
0
10
11
20
-7
11
25
21
-7
0
LINE
8
0
10
25
20
-7
11
25
21
7
0
LINE
8
0
10
25
20
7
11
11
21
7
0
LINE
8
0
10
11
20
7
11
11
21
-7
0
LINE
8
0
10
11
20
10
11
25
21
10
0
LINE
8
0
10
25
20
10
11
25
21
24
0
LINE
8
0
10
25
20
24
11
11
21
24
0
LINE
8
0
10
11
20
24
11
11
21
10
0
LINE
8
0
10
11
20
27
11
25
21
27
0
LINE
8
0
10
25
20
27
11
25
21
41
0
LINE
8
0
10
25
20
41
11
11
21
41
0
LINE
8
0
10
11
20
41
11
11
21
27
0
LINE
8
0
10
29
20
4.9
11
43
21
4.9
0
LINE
8
0
10
43
20
4.9
11
43
21
18.9
0
LINE
8
0
10
43
20
18.9
11
29
21
18.9
0
LINE
8
0
10
29
20
18.9
11
29
21
4.9
0
LINE
8
0
10
29
20
21.9
11
43
21
21.9
0
LINE
8
0
10
43
20
21.9
11
43
21
35.9
0
LINE
8
0
10
43
20
35.9
11
29
21
35.9
0
LINE
8
0
10
29
20
35.9
11
29
21
21.9
0
LINE
8
0
10
29
20
38.9
11
43
21
38.9
0
LINE
8
0
10
43
20
38.9
11
43
21
52.9
0
LINE
8
0
10
43
20
52.9
11
29
21
52.9
0
LINE
8
0
10
29
20
52.9
11
29
21
38.9
0
LINE
8
0
10
47
20
8.3
11
61
21
8.3
0
LINE
8
0
10
61
20
8.3
11
61
21
22.3
0
LINE
8
0
10
61
20
22.3
11
47
21
22.3
0
LINE
8
0
10
47
20
22.3
11
47
21
8.3
0
LINE
8
0
10
47
20
25.3
11
61
21
25.3
0
LINE
8
0
10
61
20
25.3
11
61
21
39.3
0
LINE
8
0
10
61
20
39.3
11
47
21
39.3
0
LINE
8
0
10
47
20
39.3
11
47
21
25.3
0
LINE
8
0
10
47
20
42.3
11
61
21
42.3
0
LINE
8
0
10
61
20
42.3
11
61
21
56.3
0
LINE
8
0
10
61
20
56.3
11
47
21
56.3
0
LINE
8
0
10
47
20
56.3
11
47
21
42.3
0
LINE
8
0
10
65
20
4.9
11
79
21
4.9
0
LINE
8
0
10
79
20
4.9
11
79
21
18.9
0
LINE
8
0
10
79
20
18.9
11
65
21
18.9
0
LINE
8
0
10
65
20
18.9
11
65
21
4.9
0
LINE
8
0
10
65
20
21.9
11
79
21
21.9
0
LINE
8
0
10
79
20
21.9
11
79
21
35.9
0
LINE
8
0
10
79
20
35.9
11
65
21
35.9
0
LINE
8
0
10
65
20
35.9
11
65
21
21.9
0
LINE
8
0
10
65
20
38.9
11
79
21
38.9
0
LINE
8
0
10
79
20
38.9
11
79
21
52.9
0
LINE
8
0
10
79
20
52.9
11
65
21
52.9
0
LINE
8
0
10
65
20
52.9
11
65
21
38.9
0
LINE
8
0
10
83
20
3.2
11
97
21
3.2
0
LINE
8
0
10
97
20
3.2
11
97
21
17.2
0
LINE
8
0
10
97
20
17.2
11
83
21
17.2
0
LINE
8
0
10
83
20
17.2
11
83
21
3.2
0
LINE
8
0
10
83
20
20.2
11
97
21
20.2
0
LINE
8
0
10
97
20
20.2
11
97
21
34.2
0
LINE
8
0
10
97
20
34.2
11
83
21
34.2
0
LINE
8
0
10
83
20
34.2
11
83
21
20.2
0
LINE
8
0
10
83
20
37.2
11
97
21
37.2
0
LINE
8
0
10
97
20
37.2
11
97
21
51.2
0
LINE
8
0
10
97
20
51.2
11
83
21
51.2
0
LINE
8
0
10
83
20
51.2
11
83
21
37.2
0
LINE
8
0
10
74.3200802
20
-14.3687494
11
87.8430418
21
-17.992216
0
LINE
8
0
10
87.8430418
20
-17.992216
11
91.4665084
21
-4.4692544
0
LINE
8
0
10
91.4665084
20
-4.4692544
11
77.9435468
21
-0.8457878
0
LINE
8
0
10
77.9435468
20
-0.8457878
11
74.3200802
21
-14.3687494
0
LINE
8
0
10
91.8687157
20
-19.6597047
11
103.9930713
21
-26.6597047
0
LINE
8
0
10
103.9930713
20
-26.6597047
11
110.9930713
21
-14.5353491
0
LINE
8
0
10
110.9930713
20
-14.5353491
11
98.8687157
21
-7.5353491
0
LINE
8
0
10
98.8687157
20
-7.5353491
11
91.8687157
21
-19.6597047
0
LINE
8
0
10
107.4499959
20
-29.3122962
11
117.3494908
21
-39.2117911
0
LINE
8
0
10
117.3494908
20
-39.2117911
11
127.2489857
21
-29.3122962
0
LINE
8
0
10
127.2489857
20
-29.3122962
11
117.3494908
21
-19.4128013
0
LINE
8
0
10
117.3494908
20
-19.4128013
11
107.4499959
21
-29.3122962
0
CIRCLE
8
0
10
27
20
28.9
40
1
0
CIRCLE
8
0
10
27
20
0
40
1
0
CIRCLE
8
0
10
81
20
44.2
40
1
0
CIRCLE
8
0
10
72
20
-6.12
40
1
0
CIRCLE
8
0
10
110.3491337
20
-22.3119391
40
1
0
ENDSEC
0
EOF