<svg width="122.31mm" height="101.072mm" viewBox="0 0 122.31 101.072" xmlns="http://www.w3.org/2000/svg"><g id="svgGroup" stroke-linecap="round" fill-rule="evenodd" font-size="9pt" stroke="#000" stroke-width="0.25mm" fill="none" style="stroke:#000;stroke-width:0.25mm;fill:none"><path d="M 2 68.3 L 18 68.3 L 64.707 75.325 L 108.289 100.487 A 2 2 0 0 0 111.117 100.487 L 121.724 89.88 A 2 2 0 0 0 121.724 87.052 L 92 56.1 L 92 7.1 A 2 2 0 0 0 90 5.1 L 74 5.1 A 2 2 0 0 0 73.977 5.1 A 2 2 0 0 0 72 3.4 L 56 3.4 L 56 2 A 2 2 0 0 0 54 0 L 38 0 A 2 2 0 0 0 36 2 L 36 3.4 L 20 3.4 A 2 2 0 0 0 18 5.4 L 18 15.3 L 2 15.3 A 2 2 0 0 0 0 17.3 L 0 66.3 A 2 2 0 0 0 2 68.3 Z M 66.32 73.169 L 79.843 76.792 L 83.467 63.269 L 69.944 59.646 L 66.32 73.169 Z M 3 65.8 L 17 65.8 L 17 51.8 L 3 51.8 L 3 65.8 Z M 3 48.8 L 17 48.8 L 17 34.8 L 3 34.8 L 3 48.8 Z M 3 31.8 L 17 31.8 L 17 17.8 L 3 17.8 L 3 31.8 Z M 21 53.9 L 35 53.9 L 35 39.9 L 21 39.9 L 21 53.9 Z M 21 36.9 L 35 36.9 L 35 22.9 L 21 22.9 L 21 36.9 Z M 21 19.9 L 35 19.9 L 35 5.9 L 21 5.9 L 21 19.9 Z M 39 50.5 L 53 50.5 L 53 36.5 L 39 36.5 L 39 50.5 Z M 39 33.5 L 53 33.5 L 53 19.5 L 39 19.5 L 39 33.5 Z M 39 16.5 L 53 16.5 L 53 2.5 L 39 2.5 L 39 16.5 Z M 57 53.9 L 71 53.9 L 71 39.9 L 57 39.9 L 57 53.9 Z M 57 36.9 L 71 36.9 L 71 22.9 L 57 22.9 L 57 36.9 Z M 57 19.9 L 71 19.9 L 71 5.9 L 57 5.9 L 57 19.9 Z M 75 55.6 L 89 55.6 L 89 41.6 L 75 41.6 L 75 55.6 Z M 75 38.6 L 89 38.6 L 89 24.6 L 75 24.6 L 75 38.6 Z M 75 21.6 L 89 21.6 L 89 7.6 L 75 7.6 L 75 21.6 Z M 83.869 78.46 L 95.993 85.46 L 102.993 73.335 L 90.869 66.335 L 83.869 78.46 Z M 99.45 88.112 L 109.349 98.012 L 119.249 88.112 L 109.349 78.213 L 99.45 88.112 Z M 19 29.9 m -1 0 a 1 1 0 0 1 2 0 a 1 1 0 0 1 -2 0 z M 19 58.8 m -1 0 a 1 1 0 0 1 2 0 a 1 1 0 0 1 -2 0 z M 73 14.6 m -1 0 a 1 1 0 0 1 2 0 a 1 1 0 0 1 -2 0 z M 64 64.92 m -1 0 a 1 1 0 0 1 2 0 a 1 1 0 0 1 -2 0 z M 102.349 81.112 m -1 0 a 1 1 0 0 1 2 0 a 1 1 0 0 1 -2 0 z" vector-effect="non-scaling-stroke"/></g></svg>