<svg width="122.31mm" height="101.072mm" viewBox="0 0 122.31 101.072" xmlns="http://www.w3.org/2000/svg"><g id="svgGroup" stroke-linecap="round" fill-rule="evenodd" font-size="9pt" stroke="#000" stroke-width="0.25mm" fill="none" style="stroke:#000;stroke-width:0.25mm;fill:none"><path d="M 2 68.3 L 18 68.3 A 2 2 0 0 0 20 66.3 L 20 56.4 L 36 56.4 A 2 2 0 0 0 38 54.4 L 38 53 L 54 53 L 54 54.4 A 2 2 0 0 0 56 56.4 L 72 56.4 A 2 2 0 0 0 72.023 56.4 A 2 2 0 0 0 73.183 57.926 L 69.625 56.972 A 2 2 0 0 0 67.175 58.386 L 63.293 72.875 A 2 2 0 0 0 64.707 75.325 L 80.162 79.466 A 2 2 0 0 0 81.083 79.493 A 2 2 0 0 0 81.753 80.125 L 95.609 88.125 A 2 2 0 0 0 96.491 88.389 A 2 2 0 0 0 96.975 89.173 L 108.289 100.487 A 2 2 0 0 0 111.117 100.487 L 121.724 89.88 A 2 2 0 0 0 121.724 87.052 L 110.41 75.738 A 2 2 0 0 0 107.582 75.738 L 101.639 81.681 L 105.841 74.402 A 2 2 0 0 0 105.109 71.67 L 91.253 63.67 A 2 2 0 0 0 88.521 64.402 L 84.319 71.681 L 86.494 63.563 A 2 2 0 0 0 85.079 61.113 L 73.794 58.089 A 2 2 0 0 0 74 58.1 L 90 58.1 A 2 2 0 0 0 92 56.1 L 92 41.1 A 2 2 0 0 0 91.732 40.1 A 2 2 0 0 0 92 39.1 L 92 24.1 A 2 2 0 0 0 91.732 23.1 A 2 2 0 0 0 92 22.1 L 92 7.1 A 2 2 0 0 0 90 5.1 L 74 5.1 A 2 2 0 0 0 73.977 5.1 A 2 2 0 0 0 72 3.4 L 56 3.4 L 56 2 A 2 2 0 0 0 54 0 L 38 0 A 2 2 0 0 0 36 2 L 36 3.4 L 20 3.4 A 2 2 0 0 0 18 5.4 L 18 15.3 L 2 15.3 A 2 2 0 0 0 0 17.3 L 0 32.3 A 2 2 0 0 0 0.268 33.3 A 2 2 0 0 0 0 34.3 L 0 49.3 A 2 2 0 0 0 0.268 50.3 A 2 2 0 0 0 0 51.3 L 0 66.3 A 2 2 0 0 0 2 68.3 Z" vector-effect="non-scaling-stroke"/></g></svg>