<svg width="85.349mm" height="68.512mm" viewBox="0 0 85.349 68.512" xmlns="http://www.w3.org/2000/svg"><g id="svgGroup" stroke-linecap="round" fill-rule="evenodd" font-size="9pt" stroke="#000" stroke-width="0.25mm" fill="none" style="stroke:#000;stroke-width:0.25mm;fill:none"><path d="M 1 16.3 m -1 0 a 1 1 0 0 1 2 0 a 1 1 0 0 1 -2 0 z M 1 45.2 m -1 0 a 1 1 0 0 1 2 0 a 1 1 0 0 1 -2 0 z M 55 1 m -1 0 a 1 1 0 0 1 2 0 a 1 1 0 0 1 -2 0 z M 46 51.32 m -1 0 a 1 1 0 0 1 2 0 a 1 1 0 0 1 -2 0 z M 84.349 67.512 m -1 0 a 1 1 0 0 1 2 0 a 1 1 0 0 1 -2 0 z" vector-effect="non-scaling-stroke"/></g></svg>