<svg width="116.249mm" height="95.512mm" viewBox="0 0 116.249 95.512" xmlns="http://www.w3.org/2000/svg"><g id="svgGroup" stroke-linecap="round" fill-rule="evenodd" font-size="9pt" stroke="#000" stroke-width="0.25mm" fill="none" style="stroke:#000;stroke-width:0.25mm;fill:none"><path d="M 63.32 70.669 L 76.843 74.292 L 80.467 60.769 L 66.944 57.146 L 63.32 70.669 Z M 0 63.3 L 14 63.3 L 14 49.3 L 0 49.3 L 0 63.3 Z M 0 46.3 L 14 46.3 L 14 32.3 L 0 32.3 L 0 46.3 Z M 0 29.3 L 14 29.3 L 14 15.3 L 0 15.3 L 0 29.3 Z M 18 51.4 L 32 51.4 L 32 37.4 L 18 37.4 L 18 51.4 Z M 18 34.4 L 32 34.4 L 32 20.4 L 18 20.4 L 18 34.4 Z M 18 17.4 L 32 17.4 L 32 3.4 L 18 3.4 L 18 17.4 Z M 36 48 L 50 48 L 50 34 L 36 34 L 36 48 Z M 36 31 L 50 31 L 50 17 L 36 17 L 36 31 Z M 36 14 L 50 14 L 50 0 L 36 0 L 36 14 Z M 54 51.4 L 68 51.4 L 68 37.4 L 54 37.4 L 54 51.4 Z M 54 34.4 L 68 34.4 L 68 20.4 L 54 20.4 L 54 34.4 Z M 54 17.4 L 68 17.4 L 68 3.4 L 54 3.4 L 54 17.4 Z M 72 53.1 L 86 53.1 L 86 39.1 L 72 39.1 L 72 53.1 Z M 72 36.1 L 86 36.1 L 86 22.1 L 72 22.1 L 72 36.1 Z M 72 19.1 L 86 19.1 L 86 5.1 L 72 5.1 L 72 19.1 Z M 80.869 75.96 L 92.993 82.96 L 99.993 70.835 L 87.869 63.835 L 80.869 75.96 Z M 96.45 85.612 L 106.349 95.512 L 116.249 85.612 L 106.349 75.713 L 96.45 85.612 Z" vector-effect="non-scaling-stroke"/></g></svg>